<svg id="Layer_1" enable-background="new 0 0 510 510" height="512" viewBox="0 0 510 510" width="512" xmlns="http://www.w3.org/2000/svg"><g><g><path d="m478.975 315.214c.225-.868.441-1.742.657-2.617-.213.875-.435 1.746-.657 2.617z" fill="#afe6ff"/><path d="m243.259 11.741c-93.612 0-151.273 52.799-151.432 52.888-3.613 16.676-9.896 40.877-9.896 58.635 0 134.348 113.295 243.232 247.643 243.232 57.253 0 109.857-26.657 151.411-59.755.169-1.037 5.533-22.396 5.533-51.741-.001-134.348-108.911-243.259-243.259-243.259z" fill="#afe6ff"/><path d="m480.984 306.741c-41.554 33.098-94.178 52.888-151.432 52.888-134.348 0-243.259-108.911-243.259-243.259 0-17.758 1.921-35.065 5.533-51.741-.006.004-.011.009-.017.014-55.943 44.569-91.809 113.27-91.809 190.357 0 134.348 108.911 243.259 243.259 243.259 113.561 0 208.918-77.826 235.716-183.044.222-.871.444-1.742.657-2.617.1-.416 1.018-4.315 1.352-5.857z" fill="#9dc6fb"/></g><g><g><g><path d="m510 255c0 54.831-20.346 104.91-53.9 143.099-39.751 45.242-93.2 64.323-158.157 64.323-119.789 0-208.415-83.64-208.415-203.428 0-91.122 42.871-173.114 122.492-205.227 25.049-10.103 52.417-15.664 81.084-15.664 119.788.001 216.896 97.108 216.896 216.897z" fill="#f1d333"/></g><g><path d="m395.331 120.549c-2.363 0-4.751-.668-6.871-2.067-4.176-2.754-8.524-5.348-12.923-7.711-6.083-3.266-8.366-10.844-5.1-16.926 3.266-6.083 10.845-8.366 16.926-5.1 5.061 2.717 10.061 5.7 14.862 8.867 5.763 3.801 7.354 11.554 3.552 17.317-2.403 3.644-6.386 5.62-10.446 5.62z" fill="#f9ef63"/></g><g><path d="m348.403 97.997c-1.284 0-2.59-.199-3.877-.619-16.542-5.393-33.843-8.127-51.422-8.127-12.889 0-25.722 1.482-38.141 4.407-6.72 1.578-13.45-2.583-15.032-9.303s2.583-13.45 9.303-15.032c14.294-3.365 29.054-5.072 43.87-5.072 20.215 0 40.123 3.149 59.171 9.359 6.563 2.14 10.15 9.195 8.01 15.759-1.721 5.275-6.618 8.627-11.882 8.628z" fill="#f9ef63"/></g><g><path d="m375.012 413.768c-119.789 0-216.896-97.108-216.896-216.896 0-54.831 20.356-104.902 53.91-143.091-79.622 32.113-135.819 110.098-135.819 201.219 0 119.789 97.108 216.896 216.896 216.896 64.957 0 123.236-28.563 162.987-73.806-25.049 10.104-52.411 15.678-81.078 15.678z" fill="#eab14d"/></g></g><g><path d="m235.774 293.983c-2.872 0-5.735.703-8.164 2.235-5.085 3.206-7.612 8.969-6.801 14.635l.004.026c3.014 21.066 11.581 40.34 24.171 56.293 2 2.535 4.539 5.016 7.449 7.418 52.936 43.685 134.372 13.835 146.408-53.736 1.113-6.25 1.691-12.734 1.691-19.413v-7.459z" fill="#a55a3c"/></g><g><path d="m448.07 296.219c-2.433-1.532-5.298-2.236-8.174-2.236h-41.826c0 33.075-13.582 62.977-35.472 84.435-10.642 10.432-2.911 28.492 11.983 27.988 42.15-13.762 73.882-50.568 80.312-95.535.812-5.675-1.728-11.444-6.823-14.652z" fill="#783c28"/></g><g><path d="m308.842 322.115c-29.459 0-54.517 18.802-63.857 45.055 21.653 27.437 55.202 45.05 92.867 45.05 12.822 0 25.165-2.049 36.726-5.824 1.323-5.286 2.035-10.814 2.035-16.51 0-37.428-30.342-67.771-67.771-67.771z" fill="#dd6938"/></g><g><g><ellipse cx="284.674" cy="189.012" fill="#eab14d" rx="22.121" ry="44.974"/></g><g><ellipse cx="397.159" cy="189.035" fill="#eab14d" rx="21.975" ry="44.951"/></g><g><ellipse cx="284.385" cy="178.511" fill="#783c28" rx="20.066" ry="34.473"/></g><g><ellipse cx="397.035" cy="178.511" fill="#783c28" rx="20.066" ry="34.473"/></g></g></g></g></svg>