<svg id="Layer_1" enable-background="new 0 0 509.2 509.2" height="512" viewBox="0 0 509.2 509.2" width="512" xmlns="http://www.w3.org/2000/svg"><g><g><path d="m481.322 315.109c.226-.872.444-1.751.66-2.63-.214.88-.437 1.755-.66 2.63z" fill="#afe6ff"/><path d="m244.451 10.149c-94.071 0-152.014 53.058-152.174 53.147-3.631 16.758-9.945 41.078-9.945 58.923 0 135.006 113.85 244.424 248.856 244.424 57.534 0 110.395-26.788 152.153-60.048.17-1.042 5.561-22.505 5.561-51.995 0-135.007-109.445-244.451-244.451-244.451z" fill="#c14098"/><path d="m483.341 306.595c-41.757 33.26-94.64 53.147-152.174 53.147-135.006 0-244.451-109.444-244.451-244.451 0-17.845 1.93-35.237 5.561-51.995-.006.004-.011.009-.017.014-56.218 44.787-92.26 113.825-92.26 191.29 0 135.006 109.444 244.451 244.451 244.451 114.117 0 209.942-78.207 236.871-183.941.223-.875.446-1.751.66-2.63.101-.418 1.023-4.336 1.359-5.885z" fill="#8659b9"/></g><g><g><g><path d="m509.2 254.6c0 54.831-20.346 104.91-53.9 143.099-39.751 45.242-98.039 60.329-162.997 60.329-119.789 0-209.593-83.64-209.593-203.428 0-91.122 48.888-169.119 128.509-201.232 25.049-10.103 52.417-15.664 81.084-15.664 119.789-.001 216.897 97.107 216.897 216.896z" fill="#f1d333"/></g><g><path d="m401.232 123.639c-2.336 0-4.698-.654-6.803-2.022-5.083-3.305-10.4-6.363-15.804-9.088-6.164-3.109-8.641-10.625-5.533-16.79s10.626-8.641 16.79-5.533c6.216 3.135 12.332 6.652 18.176 10.453 5.788 3.764 7.428 11.506 3.665 17.293-2.395 3.684-6.403 5.687-10.491 5.687z" fill="#f9ef63"/></g><g><path d="m347.603 97.597c-1.284 0-2.59-.199-3.877-.619-16.542-5.393-33.843-8.127-51.422-8.127-12.889 0-25.721 1.482-38.141 4.407-6.724 1.58-13.45-2.583-15.032-9.303s2.583-13.45 9.303-15.032c14.295-3.365 29.055-5.072 43.87-5.072 20.215 0 40.123 3.149 59.171 9.359 6.563 2.14 10.149 9.195 8.01 15.759-1.721 5.275-6.618 8.627-11.882 8.628z" fill="#f9ef63"/></g><g><path d="m374.211 413.368c-119.789 0-216.896-97.108-216.896-216.896 0-54.831 20.356-104.902 53.91-143.091-79.621 32.113-135.818 110.098-135.818 201.219 0 119.789 97.108 216.896 216.896 216.896 64.957 0 123.236-28.563 162.987-73.806-25.049 10.104-52.411 15.678-81.079 15.678z" fill="#eab14d"/></g></g><g><path d="m224.125 307.098c3.86 26.003 16.185 49.245 34.084 66.833l114.638 29.577c44.402-12.36 78.276-49.984 85.169-96.41z" fill="#a55a3c"/></g><g><path d="m399.974 307.098c-4.105 27.639-17.767 52.159-37.521 70.085-10.329 9.373-3.782 26.495 10.164 26.328l.229-.003c44.402-12.36 78.277-49.984 85.169-96.41z" fill="#783c28"/></g><g><ellipse cx="397.513" cy="192.813" fill="#eab14d" rx="26.357" ry="31.778"/></g><g><g><ellipse cx="289.256" cy="192.813" fill="#eab14d" rx="26.422" ry="31.778"/></g><g><circle cx="289.126" cy="184.812" fill="#783c28" r="23.778"/></g></g><g><circle cx="397.27" cy="184.812" fill="#783c28" r="23.778"/></g><g><path d="m454.643 294.679c-2.811-3.238-6.889-5.091-11.177-5.091h-136.1v32.675h132.574c9.127 0 16.867-6.708 18.164-15.742.003-.021.006-.042.009-.062.607-4.244-.66-8.543-3.47-11.78z" fill="#fff"/></g><g><path d="m309.256 289.588h-70.581c-4.284 0-8.355 1.861-11.164 5.096s-4.089 7.535-3.483 11.775c.004.03.009.059.013.089 1.3 9.042 9.027 15.715 18.162 15.715h67.053z" fill="#ffebb4"/></g><g><path d="m258.213 373.927c21.336 20.963 50.584 33.9 82.858 33.9 11.009 0 21.663-1.51 31.775-4.325-4.592-31.003-31.309-54.794-63.589-54.794-20.806-.001-39.293 9.891-51.044 25.219z" fill="#dd6938"/></g></g></g></svg>