<svg id="Layer_1" enable-background="new 0 0 511 511" height="512" viewBox="0 0 511 511" width="512" xmlns="http://www.w3.org/2000/svg"><g><g><path d="m468.712 314.424c.22-.849.432-1.705.643-2.561-.208.857-.426 1.709-.643 2.561z" fill="#afe6ff"/><path d="m238.047 17.453c-91.607 0-148.032 51.668-148.187 51.755-3.535 16.319-9.684 40.001-9.684 57.379 0 131.469 110.867 238.02 242.337 238.02 56.027 0 107.503-26.086 148.166-58.475.166-1.014 5.415-21.916 5.415-50.633-.001-131.469-106.578-238.046-238.047-238.046z" fill="#6ec186"/><path d="m470.678 306.133c-40.663 32.389-92.16 51.755-148.187 51.755-131.469 0-238.047-106.577-238.047-238.047 0-17.377 1.879-34.314 5.415-50.633-.005.004-.011.009-.016.013-54.746 43.614-89.843 110.844-89.843 186.279 0 131.47 106.577 238.047 238.047 238.047 111.128 0 204.442-76.159 230.666-179.122.217-.852.435-1.705.643-2.561.098-.408.995-4.222 1.322-5.731z" fill="#61aab7"/></g><g><g><g><path d="m511 259.344c0 54.831-20.346 104.91-53.9 143.099-39.751 45.242-98.039 62.43-162.996 62.43-119.789 0-206.122-89.585-206.122-209.373 0-91.122 45.416-165.275 125.038-197.388 25.049-10.103 52.417-15.664 81.084-15.664 119.788 0 216.896 97.107 216.896 216.896z" fill="#f1d333"/></g><g><path d="m398.532 123.535c-2.422 0-4.868-.702-7.021-2.167-3.937-2.679-8.035-5.218-12.181-7.545-6.021-3.379-8.161-10.999-4.782-17.019 3.379-6.019 11-8.16 17.019-4.782 4.77 2.677 9.482 5.597 14.011 8.678 5.707 3.884 7.185 11.66 3.301 17.367-2.421 3.553-6.349 5.468-10.347 5.468z" fill="#f9ef63"/></g><g><path d="m349.403 102.341c-1.284 0-2.589-.199-3.876-.619-16.544-5.393-33.845-8.128-51.423-8.128-12.888 0-25.721 1.482-38.142 4.407-6.72 1.58-13.45-2.583-15.032-9.303s2.583-13.45 9.303-15.032c14.296-3.365 29.057-5.072 43.87-5.072 20.214 0 40.122 3.149 59.171 9.359 6.564 2.14 10.15 9.195 8.011 15.759-1.72 5.276-6.618 8.628-11.882 8.629z" fill="#f9ef63"/></g><g><path d="m376.012 418.112c-119.789 0-216.896-97.108-216.896-216.896 0-54.831 20.356-104.902 53.91-143.091-79.622 32.113-135.819 110.098-135.819 201.219 0 119.789 97.108 216.896 216.896 216.896 64.957 0 123.236-28.563 162.987-73.806-25.049 10.104-52.411 15.678-81.078 15.678z" fill="#eab14d"/></g></g><g><path d="m450.126 347.86c4.771-10.262 8.131-21.313 9.788-32.918.81-5.667-1.721-11.431-6.808-14.635-2.43-1.531-5.292-2.233-8.163-2.233h-169.47v1.562c0 17.103 3.744 33.463 10.514 48.224z" fill="#fff"/></g><g><path d="m291.623 358.621c16.437 27.739 44.217 48.255 77.715 54.717 31.86-7.286 58.799-27.453 75.089-54.717z" fill="#fff"/></g><g><path d="m235.602 347.86h72.074c-17.777-9.293-29.999-27.78-30.107-49.177-.001-.203-.001-.406-.001-.61h-37.093c-4.284 0-8.355 1.86-11.163 5.095-2.809 3.235-4.09 7.534-3.484 11.774 1.657 11.602 5.003 22.658 9.774 32.918z" fill="#ffebb4"/></g><g><path d="m241.305 358.621c20.64 34.548 58.396 57.691 101.565 57.691 9.099 0 17.958-1.031 26.467-2.977-.275-.063-.55-.127-.824-.192-25.564-6.04-21.079-43.742 5.189-43.742h63.45c2.618-3.451 5.048-7.05 7.282-10.781h-203.129z" fill="#ffebb4"/></g><g><path d="m289.404 205c8.18 0 15.211 8.413 18.336 20.472 1.109-4.28 1.73-9.014 1.73-14.001 0-19.039.897-47.368-20.067-47.368-21.092 0-20.067 28.329-20.067 47.368 0 4.987.621 9.721 1.73 14.001 3.126-12.059 10.158-20.472 18.338-20.472z" fill="#eab14d"/></g><g><path d="m289.404 189.477c8.18 0 15.211 8.413 18.336 20.472 1.109-4.28 1.73-9.014 1.73-14.001 0-19.039-8.984-34.473-20.067-34.473s-20.067 15.434-20.067 34.473c0 4.987.621 9.721 1.73 14.001 3.126-12.059 10.158-20.472 18.338-20.472z" fill="#783c28"/></g><g><g><g><ellipse cx="402.348" cy="190.603" fill="#eab14d" rx="21.905" ry="42.474"/></g></g><g><ellipse cx="402.053" cy="182.602" fill="#783c28" rx="20.066" ry="34.473"/></g></g><g><path d="m444.105 359.192c2.336-3.861 4.455-7.867 6.345-12h-215.158c1.89 4.133 4.009 8.139 6.345 12z" fill="#9dc6fb"/></g></g></g></svg>