<svg id="Layer_1" enable-background="new 0 0 511 511" height="512" viewBox="0 0 511 511" width="512" xmlns="http://www.w3.org/2000/svg"><g><g><path d="m483.415 316.273c.227-.876.445-1.758.663-2.641-.214.882-.439 1.761-.663 2.641z" fill="#afe6ff"/><path d="m245.514 9.986c-94.48 0-152.675 53.288-152.836 53.378-3.646 16.831-9.988 41.256-9.988 59.179 0 135.593 114.345 245.487 249.939 245.487 57.784 0 110.875-26.904 152.814-60.309.171-1.046 5.585-22.603 5.585-52.221 0-135.594-109.92-245.514-245.514-245.514z" fill="#dd6938"/><path d="m485.443 307.721c-41.939 33.405-95.051 53.378-152.836 53.378-135.594 0-245.514-109.92-245.514-245.514 0-17.923 1.938-35.39 5.585-52.221-.006.004-.011.009-.017.014-56.463 44.982-92.661 114.32-92.661 192.122 0 135.594 109.92 245.514 245.514 245.514 114.614 0 210.855-78.548 237.901-184.741.224-.879.448-1.758.663-2.641.102-.42 1.028-4.355 1.365-5.911z" fill="#d80a61"/></g><g><g><g><path d="m498.657 259.344c0 54.831-20.346 104.91-53.9 143.099-39.751 45.242-98.039 62.43-162.996 62.43-119.789 0-206.352-89.585-206.352-209.373 0-91.122 45.646-165.275 125.268-197.388 25.049-10.103 52.417-15.664 81.084-15.664 119.789 0 216.896 97.107 216.896 216.896z" fill="#f1d333"/></g><g><path d="m383.02 121.646c-2.297 0-4.619-.632-6.7-1.957-3.975-2.529-8.104-4.917-12.277-7.098-6.118-3.197-8.486-10.749-5.29-16.868 3.197-6.118 10.748-8.488 16.868-5.29 4.8 2.508 9.552 5.255 14.123 8.165 5.824 3.707 7.54 11.433 3.833 17.257-2.382 3.745-6.426 5.791-10.557 5.791z" fill="#f9ef63"/></g><g><path d="m337.06 102.341c-1.284 0-2.589-.199-3.876-.619-16.544-5.393-33.845-8.128-51.423-8.128-12.888 0-25.721 1.482-38.142 4.407-6.721 1.581-13.45-2.583-15.031-9.303-1.582-6.72 2.583-13.45 9.303-15.032 14.296-3.365 29.057-5.072 43.87-5.072 20.214 0 40.122 3.149 59.171 9.359 6.564 2.14 10.15 9.195 8.011 15.759-1.721 5.276-6.618 8.628-11.883 8.629z" fill="#f9ef63"/></g><g><path d="m363.669 418.112c-119.789 0-216.896-97.108-216.896-216.896 0-54.831 20.356-104.902 53.91-143.091-79.622 32.113-135.819 110.098-135.819 201.219 0 119.789 97.108 216.896 216.896 216.896 64.957 0 123.236-28.563 162.987-73.806-25.049 10.104-52.411 15.678-81.078 15.678z" fill="#eab14d"/></g></g><g><path d="m381.898 336.775c-11.278 3.596-23.606 5.576-36.524 5.576-23.852 0-45.696-6.752-62.621-17.956-5.428-3.594-12.734-.244-13.465 6.225-.301 2.664-.466 5.369-.486 8.108-.269 36.288 25.14 67.157 59.164 75.146l7.259-1.197c28.742-4.738 49.282-30.394 47.614-59.476z" fill="#a55a3c"/></g><g><g><path d="m421.458 330.605c-.732-6.463-8.046-9.796-13.47-6.206-7.756 5.134-16.554 9.318-26.096 12.36.065 1.296.104 2.6.104 3.912 0 34.444-22.743 63.571-54.029 73.197 5.276 1.239 10.757 1.933 16.383 2.006 42.76.559 77.598-33.936 77.598-76.568 0-2.942-.166-5.845-.49-8.701z" fill="#783c28"/></g></g><g><path d="m295.957 143.491c-14.188 2.205-25.553 11.03-31.606 22.745-1.586 3.069-5.64 3.842-8.281 1.617-9.636-8.118-22.739-11.94-36.057-9.29-34.669 6.899-50.761 53.725-11.967 79.642l69.094 41.819c3.578 2.165 8.218 1.23 10.677-2.153l50.371-69.294c20.706-31.174-6.401-70.654-42.231-65.086z" fill="#eab14d"/></g><g><path d="m295.957 125.833c-14.188 2.205-25.553 11.03-31.606 22.745-1.586 3.069-5.64 3.842-8.281 1.617-9.636-8.118-22.739-11.94-36.057-9.29-34.669 6.899-50.761 53.725-11.967 79.642l69.094 41.819c3.578 2.165 8.218 1.23 10.677-2.153l50.371-69.294c20.706-31.174-6.401-70.654-42.231-65.086z" fill="#dd6938"/></g><g><path d="m496.341 227.618c-3.897-26.586-12.619-51.6-25.245-74.134-11.41-.808-22.332 2.989-30.661 10.006-2.641 2.225-6.696 1.451-8.281-1.617-6.053-11.714-17.418-20.54-31.606-22.745-35.83-5.568-62.937 33.911-42.229 65.086l50.371 69.294c2.459 3.383 7.099 4.318 10.677 2.153l69.094-41.819c2.937-1.963 5.556-4.047 7.88-6.224z" fill="#eab14d"/></g><g><path d="m400.548 125.833c14.188 2.205 25.553 11.03 31.606 22.745 1.586 3.069 5.64 3.842 8.281 1.617 9.636-8.118 22.739-11.94 36.057-9.29 34.669 6.899 50.761 53.725 11.967 79.642l-69.094 41.819c-3.578 2.165-8.218 1.23-10.677-2.153l-50.371-69.294c-20.706-31.174 6.4-70.654 42.231-65.086z" fill="#dd6938"/></g><g><path d="m439.726 241.388-50.371-69.294c-10.419-15.686-8.73-33.47.081-46.564-29.953 3.063-49.619 37.538-31.118 65.39l50.371 69.294c2.459 3.383 7.099 4.318 10.677 2.153l29.56-17.891c-.133-.032-.264-.074-.395-.112-3.199.953-6.757-.16-8.805-2.976z" fill="#d80a61"/></g><g><g><path d="m243.714 201.721c-25.838-17.261-27.323-43.794-15.194-61.632-2.806-.006-5.651.248-8.508.816-34.669 6.899-50.761 53.725-11.967 79.642l69.094 41.819c3.578 2.166 8.218 1.23 10.677-2.153l16.053-22.084z" fill="#d80a61"/></g></g></g></g></svg>