<svg id="Layer_1" enable-background="new 0 0 511 511" height="512" viewBox="0 0 511 511" width="512" xmlns="http://www.w3.org/2000/svg"><g><g><path d="m484.025 316.349c.227-.877.446-1.76.664-2.645-.215.885-.44 1.765-.664 2.645z" fill="#afe6ff"/><path d="m245.824 9.676c-94.599 0-152.868 53.356-153.028 53.446-3.651 16.852-10.001 41.308-10.001 59.253 0 135.764 114.489 245.797 250.254 245.797 57.857 0 111.015-26.938 153.007-60.385.171-1.048 5.592-22.632 5.592-52.287-.001-135.765-110.06-245.824-245.824-245.824z" fill="#9bd069"/><path d="m486.055 307.787c-41.992 33.447-95.171 53.446-153.028 53.446-135.765 0-245.823-110.059-245.823-245.824 0-17.945 1.941-35.435 5.592-52.287-.006.004-.011.009-.017.014-56.535 45.038-92.779 114.464-92.779 192.364 0 135.765 110.059 245.824 245.824 245.824 114.758 0 211.121-78.647 238.202-184.974.224-.88.449-1.76.664-2.645.101-.421 1.028-4.36 1.365-5.918z" fill="#6ec186"/></g><g><g><g><path d="m511 255.5c0 54.831-20.346 104.91-53.9 143.099-39.751 45.242-98.039 62.31-162.996 62.31-119.789 0-205.289-85.621-205.289-205.41 0-91.122 44.583-169.119 124.205-201.232 25.049-10.103 52.417-15.664 81.084-15.664 119.788.001 216.896 97.108 216.896 216.897z" fill="#f1d333"/></g><g><path d="m395.739 117.958c-2.251 0-4.529-.607-6.582-1.882-4.247-2.637-8.665-5.111-13.13-7.353-6.17-3.098-8.66-10.61-5.562-16.78 3.097-6.169 10.608-8.66 16.779-5.563 5.136 2.578 10.216 5.423 15.101 8.456 5.865 3.642 7.667 11.349 4.025 17.213-2.367 3.814-6.452 5.909-10.631 5.909z" fill="#f9ef63"/></g><g><path d="m349.403 98.497c-1.284 0-2.589-.199-3.876-.619-16.543-5.393-33.844-8.127-51.423-8.127-12.89 0-25.722 1.482-38.142 4.407-6.719 1.581-13.449-2.583-15.031-9.303s2.582-13.45 9.303-15.032c14.294-3.365 29.054-5.072 43.87-5.072 20.215 0 40.123 3.149 59.171 9.359 6.564 2.14 10.15 9.195 8.011 15.759-1.721 5.275-6.619 8.627-11.883 8.628z" fill="#f9ef63"/></g><g><path d="m376.012 414.268c-119.789 0-216.896-97.108-216.896-216.896 0-54.831 20.356-104.902 53.91-143.091-79.622 32.113-135.819 110.098-135.819 201.219 0 119.789 97.108 216.896 216.896 216.896 64.957 0 123.236-28.563 162.987-73.806-25.049 10.104-52.411 15.678-81.078 15.678z" fill="#eab14d"/></g></g><g><path d="m289.152 229.977c6.335 0 12.118 4.047 16.523 10.717 2.515 3.808 8.483 2.1 8.494-2.463 0-.062 0-.124 0-.186 0-23.737 1.118-59.055-25.018-59.055-26.296 0-25.018 35.319-25.018 59.055v.186c.011 4.563 5.979 6.271 8.494 2.463 4.408-6.67 10.19-10.717 16.525-10.717z" fill="#eab14d"/></g><g><path d="m289.152 210.624c6.335 0 12.118 4.047 16.523 10.717 2.515 3.808 8.483 2.1 8.494-2.463 0-.062 0-.124 0-.186 0-23.737-11.201-42.979-25.018-42.979s-25.018 19.242-25.018 42.979v.186c.011 4.563 5.979 6.271 8.494 2.463 4.408-6.67 10.19-10.717 16.525-10.717z" fill="#783c28"/></g><g><path d="m407.983 231.615c6.335 0 12.117 4.047 16.523 10.718 2.515 3.808 8.483 2.1 8.494-2.463 0-.062 0-.124 0-.186 0-23.737 1.118-59.055-25.018-59.055-26.296 0-25.018 35.319-25.018 59.055v.186c.011 4.563 5.979 6.271 8.494 2.463 4.408-6.671 10.19-10.718 16.525-10.718z" fill="#eab14d"/></g><g><path d="m407.983 212.262c6.335 0 12.117 4.047 16.523 10.717 2.515 3.808 8.483 2.1 8.494-2.463 0-.062 0-.124 0-.186 0-23.737-11.201-42.979-25.018-42.979s-25.018 19.242-25.018 42.979v.186c.011 4.563 5.979 6.271 8.494 2.463 4.408-6.67 10.19-10.717 16.525-10.717z" fill="#783c28"/></g><g><circle cx="233.042" cy="308.452" fill="#fa870a" r="49.108"/></g><g><circle cx="451.446" cy="305.883" fill="#fa870a" r="49.108"/></g><g><path d="m349.4 365.56c-33.719 0-65.42-13.131-89.264-36.975-3.124-3.124-3.124-8.189 0-11.313 3.125-3.124 8.189-3.124 11.314 0 20.821 20.821 48.504 32.288 77.949 32.288 29.446 0 57.129-11.467 77.95-32.288 3.125-3.124 8.189-3.124 11.314 0 3.124 3.124 3.124 8.189 0 11.313-23.842 23.843-55.544 36.975-89.263 36.975z" fill="#783c28"/></g></g></g></svg>