<svg id="Layer_1" enable-background="new 0 0 509.596 509.596" height="512" viewBox="0 0 509.596 509.596" width="512" xmlns="http://www.w3.org/2000/svg"><g><g><path d="m491.789 316.623c.231-.891.453-1.789.674-2.687-.218.899-.446 1.793-.674 2.687z" fill="#afe6ff"/><path d="m249.767 5.031c-96.117 0-155.32 54.211-155.483 54.303-4.491 9.019-12.659 41.008-12.659 59.241 0 137.942 118.824 250.702 256.766 250.702 58.785 0 112.796-27.37 155.461-61.354.174-1.064 5.681-22.995 5.681-53.125 0-137.942-111.824-249.767-249.766-249.767z" fill="#afe6ff"/><path d="m493.852 307.923c-42.665 33.983-96.698 54.303-155.483 54.303-137.942 0-249.767-111.824-249.767-249.767 0-18.233 1.972-36.003 5.681-53.125-.006.005-.011.009-.017.014-57.441 45.761-94.266 116.301-94.266 195.45 0 137.942 111.824 249.767 249.767 249.767 116.599 0 214.507-79.908 242.022-187.941.228-.894.456-1.789.674-2.687.104-.428 1.046-4.43 1.389-6.014z" fill="#9dc6fb"/></g><g><g><g><path d="m449.378 254.798c0 54.68-20.29 104.622-53.752 142.706-39.642 45.118-92.944 64.147-157.723 64.147-119.46 0-207.843-83.41-207.843-202.869 0-90.871 42.753-172.638 122.156-204.663 24.98-10.075 52.273-15.621 80.861-15.621 119.46-.001 216.301 96.841 216.301 216.3z" fill="#f1d333"/></g><g><path d="m328.776 118.11c-2.412 0-4.848-.698-6.994-2.156-3.797-2.58-7.749-5.031-11.747-7.285-5.997-3.382-8.117-10.984-4.735-16.982 3.38-5.997 10.983-8.118 16.982-4.735 4.598 2.593 9.144 5.412 13.511 8.379 5.695 3.869 7.175 11.622 3.306 17.317-2.412 3.55-6.333 5.462-10.323 5.462z" fill="#f9ef63"/></g><g><path d="m288.225 98.226c-1.281 0-2.583-.199-3.866-.617-16.498-5.378-33.751-8.106-51.281-8.106-12.854 0-25.651 1.478-38.036 4.395-6.707 1.574-13.413-2.576-14.991-9.277s2.576-13.413 9.277-14.991c14.256-3.356 28.975-5.058 43.75-5.058 20.158 0 40.012 3.14 59.009 9.334 6.545 2.134 10.122 9.17 7.988 15.715-1.717 5.262-6.601 8.605-11.85 8.605z" fill="#f9ef63"/></g><g><path d="m314.76 413.13c-119.459 0-216.301-96.841-216.301-216.301 0-54.681 20.3-104.614 53.762-142.698-79.402 32.026-135.444 109.796-135.444 200.667 0 119.459 96.841 216.301 216.301 216.301 64.779 0 122.897-28.485 162.539-73.603-24.981 10.075-52.268 15.634-80.857 15.634z" fill="#eab14d"/></g></g><g><path d="m298.985 400.076c-21.428 0-41.738-6.851-58.735-19.814-16.445-12.541-28.657-30.332-34.387-50.096-1.304-4.496 1.285-9.198 5.781-10.501 4.493-1.306 9.198 1.284 10.501 5.781 9.846 33.959 41.444 57.677 76.84 57.677 35.397 0 66.994-23.718 76.839-57.677 1.304-4.496 6.005-7.083 10.502-5.781 4.496 1.304 7.085 6.005 5.781 10.502-5.73 19.764-17.942 37.556-34.387 50.096-16.997 12.962-37.307 19.813-58.735 19.813z" fill="#a55a3c"/></g><g><path d="m406.658 297.99-67.841-62.032c-13.819-13.909-18.145-30.562-11.866-45.72 5.971-14.416 20.551-24.103 36.28-24.103 12.015 0 23.215 5.392 30.729 14.793 3.113 3.896 7.761 6.13 12.752 6.13h.007c4.971-.002 9.595-2.226 12.687-6.102 3.586-4.495 7.979-8.05 12.885-10.557-2.622-6.182-5.528-12.214-8.693-18.085-6.284 3.138-12.032 7.365-16.901 12.568-11.231-12.057-26.831-18.888-43.466-18.888-24.15 0-45.695 14.341-54.889 36.537-9.434 22.776-3.308 48.13 16.385 67.824l68.891 63.006c3.663 3.349 8.352 5.022 13.042 5.022 4.722 0 9.445-1.697 13.117-5.089l27.002-24.945c1.515-9.728 2.382-19.67 2.555-29.781z" fill="#eab14d"/></g><g><g><path d="m193.32 318.382c-4.69 0-9.379-1.673-13.042-5.022l-68.891-63.006c-19.694-19.693-25.819-45.048-16.385-67.824 9.193-22.195 30.739-36.536 54.888-36.536 16.635 0 32.235 6.831 43.467 18.888 11.781-12.591 28.65-19.571 46.027-18.834 23.828 1.008 44.055 15.5 52.787 37.822 8.512 21.758 3.515 45.614-13.04 62.257l-.306.295-72.387 66.871c-3.673 3.391-8.396 5.089-13.118 5.089zm-67.845-82.424 67.842 62.033 71.674-66.212c10.893-11.053 14.041-26.204 8.421-40.571-4.53-11.581-16.072-24.24-34.88-25.035-12.701-.545-24.544 4.85-32.468 14.784-3.091 3.875-7.715 6.099-12.686 6.102-.002 0-.005 0-.008 0-4.992 0-9.639-2.234-12.752-6.13-7.513-9.401-18.714-14.793-30.729-14.793-15.729 0-30.308 9.686-36.28 24.103-6.277 15.157-1.952 31.81 11.866 45.719z" fill="#eab14d"/></g></g><g><path d="m452.298 142.148c-16.502-.698-31.307 6.708-40.766 18.566-2.478 3.106-7.226 3.069-9.706-.035-9.049-11.322-22.975-18.576-38.596-18.576-40.664 0-69.332 49.218-31.382 87.168l68.566 62.694c3.55 3.246 8.995 3.232 12.529-.032l72.388-66.871c30.362-30.524 8.642-81.152-33.033-82.914z" fill="#41378c"/></g><g><g><path d="m314.184 215.212h-27.99c-5.562 0-10.071-4.509-10.071-10.071s4.509-10.071 10.071-10.071h27.99c5.562 0 10.071 4.509 10.071 10.071s-4.51 10.071-10.071 10.071z" fill="#eab14d"/></g></g><g><path d="m359.53 262.615-38.467-38.467 68.196-68.196 84.732-7.798z" fill="#5046af"/></g><g><path d="m505.51 169.906c-8.732-22.321-28.959-36.813-52.787-37.821-17.371-.734-34.247 6.245-46.027 18.833-11.232-12.057-26.831-18.888-43.467-18.888-.335 0-.668.013-1.002.019v20.161c.335-.009.666-.038 1.002-.038 12.015 0 23.215 5.392 30.729 14.793 3.113 3.896 7.761 6.13 12.752 6.13h.006c4.97-.002 9.595-2.225 12.687-6.102 7.924-9.933 19.768-15.332 32.468-14.783 18.807.795 30.349 13.453 34.88 25.035 5.62 14.367 2.471 29.518-8.42 40.571l-71.675 66.213-13.604-12.439v27.292l.564.516c3.663 3.349 8.353 5.022 13.042 5.022 4.723 0 9.446-1.697 13.117-5.089l72.388-66.871.306-.295c16.557-16.645 21.553-40.5 13.041-62.259z" fill="#dd6938"/></g><g><path d="m400.41 302.035c-2.427 0-4.861-.872-6.793-2.639l-68.891-63.005c-19.694-19.694-25.819-45.048-16.385-67.824 9.194-22.195 30.739-36.537 54.889-36.537 5.562 0 10.071 4.509 10.071 10.071s-4.509 10.071-10.071 10.071c-15.729 0-30.309 9.686-36.28 24.103-6.279 15.158-1.954 31.811 11.865 45.72l68.394 62.537c4.105 3.753 4.39 10.123.636 14.228-1.986 2.173-4.706 3.275-7.435 3.275z" fill="#d82e3d"/></g><g><path d="m314.184 206.236h-27.99c-5.562 0-10.071-4.509-10.071-10.071s4.509-10.071 10.071-10.071h27.99c5.562 0 10.071 4.509 10.071 10.071-.001 5.562-4.51 10.071-10.071 10.071z" fill="#d82e3d"/></g><g><path d="m238.958 142.148c-16.502-.698-31.307 6.708-40.766 18.566-2.478 3.106-7.226 3.069-9.706-.035-9.049-11.322-22.975-18.576-38.596-18.576-40.664 0-69.332 49.218-31.382 87.168l68.566 62.694c3.55 3.246 8.995 3.232 12.529-.032l72.388-66.871c30.362-30.524 8.643-81.152-33.033-82.914z" fill="#41378c"/></g><g><path d="m149.94 258.754-38.467-38.467 68.196-68.196 80.911-3.977z" fill="#5046af"/></g><g><path d="m292.17 169.906c-8.732-22.321-28.959-36.813-52.787-37.821-17.375-.734-34.246 6.244-46.027 18.833-11.232-12.057-26.831-18.888-43.467-18.888-.12 0-.239.006-.359.007v20.149c.12-.001.239-.014.359-.014 12.015 0 23.215 5.392 30.729 14.793 3.113 3.896 7.761 6.13 12.752 6.13h.007c4.971-.002 9.595-2.226 12.686-6.102 7.924-9.933 19.765-15.332 32.468-14.783 18.807.795 30.35 13.453 34.88 25.035 5.62 14.367 2.471 29.518-8.42 40.571l-71.675 66.213-12.961-11.851v27.039c0 .082-.009.157-.012.237 3.654 3.309 8.313 4.966 12.974 4.966 4.723 0 9.446-1.697 13.117-5.089l72.387-66.871.306-.295c16.559-16.645 21.555-40.5 13.043-62.259z" fill="#dd6938"/></g><g><path d="m187.07 302.035c-2.427 0-4.861-.872-6.793-2.639l-68.891-63.005c-19.694-19.694-25.819-45.049-16.385-67.824 9.193-22.195 30.739-36.536 54.888-36.536 5.562 0 10.071 4.509 10.071 10.071s-4.509 10.071-10.071 10.071c-15.729 0-30.308 9.686-36.28 24.103-6.279 15.158-1.954 31.81 11.865 45.72l68.394 62.537c4.105 3.753 4.39 10.123.636 14.228-1.985 2.172-4.705 3.274-7.434 3.274z" fill="#d82e3d"/></g></g></g></svg>