<svg id="Layer_1" enable-background="new 0 0 511 511" height="512" viewBox="0 0 511 511" width="512" xmlns="http://www.w3.org/2000/svg"><g><g><path d="m481.972 316.091c.226-.873.444-1.753.661-2.633-.214.88-.437 1.757-.661 2.633z" fill="#afe6ff"/><path d="m244.781 10.719c-94.198 0-152.22 53.129-152.379 53.219-3.635 16.781-9.958 41.133-9.958 59.002 0 135.189 114.004 244.754 249.193 244.754 57.612 0 110.544-26.824 152.358-60.129.171-1.043 5.568-22.536 5.568-52.065-.001-135.189-109.593-244.781-244.782-244.781z" fill="#c14098"/><path d="m483.994 307.565c-41.814 33.305-94.768 53.219-152.379 53.219-135.189 0-244.781-109.592-244.781-244.781 0-17.869 1.933-35.284 5.568-52.065-.006.004-.011.009-.017.014-56.295 44.847-92.385 113.978-92.385 191.548 0 135.189 109.592 244.781 244.781 244.781 114.271 0 210.226-78.313 237.191-184.19.223-.877.447-1.753.661-2.633.102-.419 1.025-4.341 1.361-5.893z" fill="#8659b9"/></g><g><g><g><path d="m511 255.5c0 54.831-20.346 104.91-53.9 143.099-39.751 45.242-98.039 60.329-162.996 60.329-119.789 0-209.593-83.64-209.593-203.428 0-91.122 48.888-169.119 128.509-201.232 25.049-10.103 52.417-15.664 81.084-15.664 119.788 0 216.896 97.107 216.896 216.896z" fill="#f1d333"/></g><g><path d="m396.877 124.366c-2.728 0-5.474-.888-7.774-2.719-3.809-3.03-7.8-5.928-11.862-8.613-5.759-3.806-7.343-11.561-3.536-17.32 3.806-5.759 11.56-7.343 17.32-3.536 4.671 3.087 9.262 6.42 13.643 9.906 5.402 4.298 6.298 12.162 2 17.564-2.468 3.101-6.112 4.718-9.791 4.718z" fill="#f9ef63"/></g><g><path d="m349.403 98.497c-1.284 0-2.59-.199-3.877-.619-16.543-5.393-33.844-8.128-51.422-8.128-12.889 0-25.721 1.482-38.141 4.407-6.723 1.58-13.45-2.583-15.032-9.303s2.583-13.45 9.303-15.032c14.295-3.365 29.055-5.072 43.87-5.072 20.214 0 40.122 3.149 59.171 9.359 6.563 2.14 10.149 9.195 8.01 15.759-1.721 5.276-6.618 8.628-11.882 8.629z" fill="#f9ef63"/></g><g><path d="m376.012 414.268c-119.789 0-216.896-97.108-216.896-216.896 0-54.831 20.356-104.902 53.91-143.091-79.622 32.113-135.819 110.098-135.819 201.219 0 119.789 97.108 216.896 216.896 216.896 64.957 0 123.236-28.563 162.987-73.806-25.049 10.104-52.411 15.678-81.078 15.678z" fill="#eab14d"/></g></g><g><path d="m392.133 329.653c-11.278 3.596-23.607 5.576-36.524 5.576-23.852 0-45.696-6.752-62.621-17.956-5.428-3.594-12.734-.243-13.465 6.226-.301 2.663-.465 5.368-.486 8.107-.269 36.288 25.14 67.157 59.164 75.146l26.055-1.916c37.663-2.77 54.63-48.528 27.877-75.183z" fill="#a55a3c"/></g><g><g><path d="m431.694 323.484c-.732-6.463-8.046-9.796-13.47-6.206-7.756 5.134-16.554 9.318-26.096 12.36.065 1.296.104 2.6.104 3.912 0 34.444-22.743 63.571-54.029 73.197 5.276 1.239 10.757 1.933 16.383 2.006 42.76.559 77.598-33.936 77.598-76.568 0-2.942-.167-5.846-.49-8.701z" fill="#783c28"/></g></g><g><g><path d="m283.872 143.183 19.7 26.808c1.209 1.645 2.9 2.874 4.839 3.516l31.584 10.452c6.305 2.087 8.776 9.691 4.902 15.086l-19.408 27.02c-1.191 1.659-1.837 3.646-1.848 5.688l-.18 33.268c-.036 6.642-6.505 11.342-12.833 9.323l-31.695-10.109c-1.945-.62-4.036-.62-5.981 0l-31.695 10.109c-6.328 2.018-12.797-2.682-12.833-9.323l-.18-33.268c-.011-2.042-.657-4.03-1.848-5.688l-19.408-27.02c-3.875-5.394-1.404-12.999 4.902-15.086l31.584-10.452c1.939-.642 3.63-1.87 4.839-3.516l19.7-26.808c3.93-5.352 11.926-5.352 15.859 0z" fill="#eab14d"/></g><g><path d="m283.872 128.902 19.7 26.808c1.209 1.645 2.9 2.874 4.839 3.516l31.584 10.452c6.305 2.087 8.776 9.691 4.902 15.086l-19.408 27.02c-1.191 1.659-1.837 3.646-1.848 5.688l-.18 33.268c-.036 6.642-6.505 11.342-12.833 9.323l-31.695-10.109c-1.945-.62-4.036-.62-5.981 0l-31.695 10.109c-6.328 2.018-12.797-2.682-12.833-9.323l-.18-33.268c-.011-2.042-.657-4.03-1.848-5.688l-19.408-27.02c-3.875-5.394-1.404-12.999 4.902-15.086l31.584-10.452c1.939-.642 3.63-1.87 4.839-3.516l19.7-26.808c3.93-5.352 11.926-5.352 15.859 0z" fill="#f9f48e"/></g><g><path d="m271.015 205.107c-14.139-12.98-20.518-32.075-21.72-50.737l-.985 1.34c-1.209 1.646-2.9 2.874-4.839 3.516l-31.584 10.452c-6.305 2.087-8.776 9.691-4.902 15.086l19.408 27.02c1.191 1.659 1.837 3.646 1.848 5.688l.18 33.268c.036 6.642 6.505 11.342 12.833 9.323l31.695-10.109c1.945-.621 4.036-.621 5.981 0l31.695 10.109c6.328 2.018 12.797-2.682 12.833-9.323l.129-23.791c-20.139-.047-38.02-8.483-52.572-21.842z" fill="#f9ef63"/></g></g><g><g><path d="m442.547 143.183 19.7 26.808c1.209 1.645 2.9 2.874 4.839 3.516l31.584 10.452c6.305 2.087 8.776 9.691 4.902 15.086l-19.408 27.02c-1.191 1.659-1.837 3.646-1.848 5.688l-.18 33.268c-.036 6.642-6.505 11.342-12.833 9.323l-31.695-10.109c-1.945-.62-4.036-.62-5.981 0l-31.695 10.109c-6.328 2.018-12.797-2.682-12.833-9.323l-.18-33.268c-.011-2.042-.657-4.03-1.848-5.688l-19.408-27.02c-3.875-5.394-1.404-12.999 4.902-15.086l31.584-10.452c1.939-.642 3.63-1.87 4.839-3.516l19.7-26.808c3.93-5.352 11.926-5.352 15.859 0z" fill="#eab14d"/></g><g><path d="m442.547 128.902 19.7 26.808c1.209 1.645 2.9 2.874 4.839 3.516l31.584 10.452c6.305 2.087 8.776 9.691 4.902 15.086l-19.408 27.02c-1.191 1.659-1.837 3.646-1.848 5.688l-.18 33.268c-.036 6.642-6.505 11.342-12.833 9.323l-31.695-10.109c-1.945-.62-4.036-.62-5.981 0l-31.695 10.109c-6.328 2.018-12.797-2.682-12.833-9.323l-.18-33.268c-.011-2.042-.657-4.03-1.848-5.688l-19.408-27.02c-3.875-5.394-1.404-12.999 4.902-15.086l31.584-10.452c1.939-.642 3.63-1.87 4.839-3.516l19.7-26.808c3.93-5.352 11.926-5.352 15.859 0z" fill="#f9f48e"/></g><g><path d="m429.689 205.107c-14.139-12.98-20.518-32.075-21.72-50.737l-.985 1.34c-1.209 1.646-2.9 2.874-4.839 3.516l-31.584 10.452c-6.305 2.087-8.776 9.691-4.902 15.086l19.408 27.02c1.191 1.659 1.837 3.646 1.848 5.688l.18 33.268c.036 6.642 6.505 11.342 12.833 9.323l31.695-10.109c1.945-.621 4.036-.621 5.981 0l31.695 10.109c6.328 2.018 12.797-2.682 12.833-9.323l.129-23.791c-20.139-.047-38.019-8.483-52.572-21.842z" fill="#f9ef63"/></g></g></g></g></svg>