<svg id="Layer_1" enable-background="new 0 0 511 511" height="512" viewBox="0 0 511 511" width="512" xmlns="http://www.w3.org/2000/svg"><g><g><path d="m466.761 314.179c.219-.846.43-1.698.64-2.55-.207.852-.423 1.701-.64 2.55z" fill="#afe6ff"/><path d="m237.056 18.444c-91.225 0-147.416 51.453-147.57 51.539-3.521 16.251-9.644 39.835-9.644 57.14 0 130.922 110.406 237.03 241.328 237.03 55.793 0 107.056-25.978 147.55-58.232.165-1.01 5.392-21.825 5.392-50.422-.001-130.921-106.134-237.055-237.056-237.055z" fill="#6ec186"/><path d="m468.719 305.922c-40.494 32.254-91.777 51.539-147.57 51.539-130.922 0-237.056-106.134-237.056-237.056 0-17.305 1.872-34.171 5.392-50.422-.005.004-.011.009-.016.013-54.518 43.433-89.469 110.383-89.469 185.504 0 130.922 106.133 237.056 237.056 237.056 110.665 0 203.591-75.842 229.706-178.377.216-.849.433-1.698.64-2.55.098-.406.992-4.204 1.317-5.707z" fill="#61aab7"/></g><g><g><g><path d="m511 255.5c0 54.831-20.346 104.91-53.9 143.099-39.751 45.242-98.039 62.43-162.996 62.43-119.789 0-206.122-89.585-206.122-209.373 0-91.122 45.416-165.275 125.038-197.388 25.049-10.103 52.417-15.664 81.084-15.664 119.788 0 216.896 97.107 216.896 216.896z" fill="#f1d333"/></g><g><path d="m349.402 98.497c-1.284 0-2.589-.199-3.876-.619-16.543-5.393-33.844-8.127-51.423-8.127-12.889 0-25.721 1.482-38.142 4.407-6.722 1.579-13.45-2.583-15.032-9.303s2.583-13.45 9.303-15.032c14.295-3.365 29.055-5.072 43.87-5.072 20.215 0 40.123 3.149 59.171 9.359 6.564 2.14 10.15 9.195 8.011 15.759-1.719 5.275-6.617 8.627-11.882 8.628z" fill="#f9ef63"/></g><g><path d="m396.749 118.485c-2.184 0-4.394-.572-6.404-1.774-4.969-2.972-10.149-5.71-15.398-8.138-6.266-2.899-8.994-10.328-6.096-16.594 2.898-6.265 10.329-8.994 16.594-6.096 6.044 2.797 12.01 5.95 17.732 9.372 5.925 3.543 7.855 11.219 4.312 17.144-2.341 3.914-6.488 6.086-10.74 6.086z" fill="#f9ef63"/></g><g><path d="m376.012 414.268c-119.789 0-216.896-97.108-216.896-216.896 0-54.831 20.356-104.902 53.91-143.091-79.622 32.113-135.819 110.098-135.819 201.219 0 119.789 97.108 216.896 216.896 216.896 64.957 0 123.236-28.563 162.987-73.806-25.049 10.104-52.411 15.678-81.078 15.678z" fill="#eab14d"/></g></g><g><g><ellipse cx="284.439" cy="207.966" fill="#eab14d" rx="22.121" ry="44.974"/></g><g><ellipse cx="396.923" cy="207.989" fill="#eab14d" rx="21.975" ry="44.951"/></g><g><ellipse cx="284.15" cy="197.466" fill="#783c28" rx="20.066" ry="34.473"/></g><g><ellipse cx="396.799" cy="197.466" fill="#783c28" rx="20.066" ry="34.473"/></g></g><g><path d="m340.608 374.487c-23.851 0-45.695 6.752-62.62 17.956-5.385 3.565-12.717.312-13.452-6.104-.31-2.702-.479-5.448-.499-8.228-.311-41.914 33.636-76.599 75.548-77.147 42.76-.559 77.598 33.936 77.598 76.568 0 2.942-.166 5.846-.49 8.701-.732 6.463-8.046 9.796-13.47 6.206-16.924-11.202-38.766-17.952-62.615-17.952z" fill="#783c28"/></g><g><path d="m224.38 186.058c-.459 0-.926-.053-1.392-.164-3.224-.766-5.216-4.001-4.45-7.225 3.781-15.911 13.206-30.727 26.537-41.719 12.964-10.69 27.581-15.962 40.111-14.471 3.29.392 5.64 3.377 5.248 6.668-.392 3.29-3.38 5.643-6.668 5.248-18.66-2.219-46.713 18.268-53.554 47.048-.654 2.758-3.116 4.614-5.832 4.615z" fill="#eab14d"/></g><g><path d="m451.482 186.058c-2.716 0-5.177-1.856-5.833-4.614-6.839-28.78-34.895-49.274-53.553-47.048-3.287.396-6.275-1.958-6.668-5.248-.392-3.291 1.958-6.276 5.248-6.668 12.53-1.494 27.147 3.782 40.111 14.471 13.331 10.992 22.756 25.808 26.537 41.719.766 3.224-1.227 6.458-4.45 7.225-.467.11-.933.163-1.392.163z" fill="#eab14d"/></g></g></g></svg>