<svg id="Layer_1" enable-background="new 0 0 511 511" height="512" viewBox="0 0 511 511" width="512" xmlns="http://www.w3.org/2000/svg"><g><g><path d="m471.06 314.719c.221-.854.434-1.713.646-2.574-.21.861-.428 1.718-.646 2.574z" fill="#afe6ff"/><path d="m239.239 16.261c-92.065 0-148.773 51.926-148.929 52.014-3.553 16.401-9.733 40.202-9.733 57.666 0 132.128 111.423 239.212 243.55 239.212 56.307 0 108.042-26.217 148.908-58.768.167-1.02 5.442-22.026 5.442-50.886 0-132.127-107.11-239.238-239.238-239.238z" fill="#dd6938"/><path d="m473.035 306.386c-40.867 32.551-92.622 52.014-148.929 52.014-132.128 0-239.239-107.111-239.239-239.239 0-17.464 1.889-34.485 5.442-50.886-.005.004-.011.009-.016.013-55.02 43.833-90.293 111.399-90.293 187.212 0 132.128 107.111 239.239 239.239 239.239 111.684 0 205.466-76.54 231.821-180.019.218-.857.437-1.713.646-2.574.099-.409 1.001-4.243 1.329-5.76z" fill="#d80a61"/></g><g><g><g><path d="m511 255.5c0 54.831-20.346 104.91-53.9 143.099-39.751 45.242-98.039 62.43-162.996 62.43-119.789 0-206.122-89.585-206.122-209.373 0-91.122 45.416-165.275 125.038-197.388 25.049-10.103 52.417-15.664 81.084-15.664 119.788 0 216.896 97.107 216.896 216.896z" fill="#f1d333"/></g><g><path d="m392.25 120.21c-3.325-2.143-6.77-4.193-10.239-6.093-6.055-3.316-8.274-10.913-4.959-16.968 3.316-6.055 10.913-8.274 16.969-4.959 3.988 2.185 7.949 4.542 11.772 7.005 5.803 3.74 7.476 11.476 3.735 17.278-3.721 5.775-11.448 7.493-17.278 3.737z" fill="#f9ef63"/></g><g><path d="m345.527 97.878c-16.544-5.393-33.845-8.127-51.424-8.127-12.889 0-25.721 1.482-38.141 4.407-6.72 1.582-13.449-2.583-15.031-9.303s2.582-13.45 9.303-15.032c14.294-3.365 29.054-5.072 43.869-5.072 20.214 0 40.123 3.149 59.172 9.359 6.563 2.14 10.15 9.195 8.011 15.759-2.134 6.541-9.178 10.156-15.759 8.009z" fill="#f9ef63"/></g><g><path d="m376.012 414.268c-119.789 0-216.896-97.108-216.896-216.896 0-54.831 20.356-104.902 53.91-143.091-79.622 32.113-135.819 110.098-135.819 201.219 0 119.789 97.108 216.896 216.896 216.896 64.957 0 123.236-28.563 162.987-73.806-25.049 10.104-52.411 15.678-81.078 15.678z" fill="#eab14d"/></g></g><g><path d="m449.132 373.429c-3.687 0-7.082-2.417-8.16-6.136-9.873-34.053-41.558-57.836-77.051-57.836-35.494 0-67.179 23.783-77.052 57.836-1.308 4.509-6.022 7.105-10.531 5.797-4.509-1.307-7.104-6.022-5.797-10.53 5.746-19.819 17.992-37.659 34.482-50.234 17.044-12.998 37.41-19.868 58.897-19.868 21.486 0 41.853 6.87 58.896 19.868 16.49 12.575 28.736 30.416 34.482 50.234 1.307 4.508-1.288 9.223-5.797 10.53-.789.23-1.585.339-2.369.339z" fill="#a55a3c"/></g><g><path d="m226.079 177.344c-2.703-1.917-3.341-5.662-1.424-8.365 9.462-13.34 23.745-23.553 40.221-28.757 16.021-5.062 31.552-4.482 42.612 1.591 2.904 1.595 3.967 5.242 2.372 8.147-1.595 2.904-5.241 3.968-8.147 2.372-16.476-9.047-50.155-.54-67.269 23.59-1.921 2.707-5.667 3.336-8.365 1.422z" fill="#eab14d"/></g><g><path d="m478.717 175.922c-17.113-24.13-50.794-32.635-67.269-23.59-2.906 1.595-6.553.533-8.147-2.372s-.532-6.552 2.372-8.147c11.059-6.073 26.591-6.652 42.612-1.591 16.476 5.205 30.759 15.417 40.221 28.757 1.917 2.703 1.279 6.448-1.424 8.365-2.685 1.906-6.436 1.296-8.365-1.422z" fill="#eab14d"/></g><g><path d="m264.38 234.01c-2.835-3.389-2.387-8.434 1.002-11.269 11.322-9.472 26.059-14.246 41.102-13.019-7.562-9.812-19.421-15.952-32.336-15.952-5.894 0-11.594 1.241-16.942 3.688-4.016 1.837-8.764.071-10.603-3.946-1.839-4.018-.071-8.765 3.946-10.604 7.451-3.409 15.392-5.138 23.599-5.138 25.449 0 47.952 17.123 54.725 41.639 1.787 6.467-4.732 12.137-10.892 9.471-14.187-6.147-30.602-3.681-42.331 6.132-3.38 2.828-8.428 2.396-11.27-1.002z" fill="#783c28"/></g><g><path d="m440.398 235.013c-7.308-6.114-16.589-9.481-26.136-9.481-5.618 0-11.066 1.126-16.194 3.349-6.153 2.669-12.679-3.001-10.892-9.47 6.772-24.517 29.275-41.639 54.724-41.639 8.208 0 16.148 1.729 23.6 5.139 4.018 1.838 5.784 6.586 3.945 10.604-1.839 4.017-6.585 5.785-10.604 3.945-5.347-2.447-11.047-3.688-16.941-3.688-12.915 0-24.773 6.139-32.335 15.952 15.452-1.262 30.099 3.814 41.101 13.019 3.389 2.835 3.837 7.88 1.002 11.269-2.839 3.392-7.885 3.832-11.27 1.001z" fill="#783c28"/></g></g></g></svg>