<svg id="Layer_1" enable-background="new 0 0 511 511" height="512" viewBox="0 0 511 511" width="512" xmlns="http://www.w3.org/2000/svg"><g><g><path d="m464.302 313.87c.218-.841.428-1.689.637-2.537-.206.848-.421 1.692-.637 2.537z" fill="#afe6ff"/><path d="m235.807 19.693c-90.745 0-146.639 51.181-146.793 51.268-3.502 16.165-9.593 39.625-9.593 56.839 0 130.232 109.824 235.781 240.057 235.781 55.5 0 106.492-25.841 146.772-57.925.164-1.005 5.364-21.71 5.364-50.156 0-130.233-105.574-235.807-235.807-235.807z" fill="#9bd069"/><path d="m466.25 305.656c-40.281 32.084-91.293 51.268-146.793 51.268-130.233 0-235.807-105.574-235.807-235.807 0-17.214 1.862-33.991 5.364-50.156-.005.004-.011.009-.016.013-54.231 43.203-88.998 109.8-88.998 184.526 0 130.233 105.574 235.807 235.807 235.807 110.082 0 202.518-75.442 228.496-177.437.215-.844.431-1.689.637-2.537.097-.403.986-4.182 1.31-5.677z" fill="#6ec186"/></g><g><g><g><path d="m511 255.5c0 54.831-20.346 104.91-53.9 143.099-39.751 45.242-98.039 62.311-162.996 62.311-119.789 0-205.289-85.621-205.289-205.41 0-91.122 44.583-169.119 124.205-201.232 25.049-10.103 52.417-15.664 81.084-15.664 119.788 0 216.896 97.107 216.896 216.896z" fill="#f1d333"/></g><g><path d="m393.104 115.741c-1.874 0-3.774-.423-5.565-1.315-3.878-1.932-7.882-3.735-11.901-5.359-6.401-2.585-9.494-9.871-6.908-16.272s9.872-9.493 16.271-6.908c4.623 1.867 9.229 3.941 13.688 6.164 6.179 3.079 8.691 10.584 5.612 16.763-2.186 4.387-6.606 6.927-11.197 6.927z" fill="#f9ef63"/></g><g><path d="m349.402 98.497c-1.284 0-2.589-.199-3.876-.619-16.544-5.393-33.845-8.128-51.423-8.128-12.889 0-25.721 1.482-38.142 4.407-6.72 1.583-13.45-2.583-15.031-9.303-1.582-6.72 2.583-13.45 9.303-15.032 14.295-3.365 29.055-5.072 43.87-5.072 20.214 0 40.122 3.149 59.171 9.359 6.564 2.14 10.15 9.195 8.011 15.759-1.721 5.276-6.618 8.628-11.883 8.629z" fill="#f9ef63"/></g><g><path d="m376.012 414.268c-119.789 0-216.896-97.108-216.896-216.896 0-54.831 20.356-104.902 53.91-143.091-79.622 32.113-135.819 110.098-135.819 201.219 0 119.789 97.108 216.896 216.896 216.896 64.957 0 123.236-28.563 162.987-73.806-25.049 10.104-52.411 15.678-81.078 15.678z" fill="#eab14d"/></g></g><g><ellipse cx="298.419" cy="218.142" fill="#eab14d" rx="26.422" ry="31.778"/></g><g><ellipse cx="406.676" cy="218.142" fill="#eab14d" rx="26.357" ry="31.778"/></g><g><circle cx="298.289" cy="210.141" fill="#783c28" r="23.778"/></g><g><circle cx="406.433" cy="210.141" fill="#783c28" r="23.778"/></g><g><path d="m352.515 378.331c-23.851 0-45.695 6.752-62.62 17.956-5.385 3.565-12.717.312-13.452-6.104-.31-2.702-.479-5.448-.499-8.228-.311-41.914 33.636-76.599 75.548-77.147 42.76-.559 77.598 33.936 77.598 76.568 0 2.942-.166 5.846-.49 8.701-.732 6.463-8.046 9.796-13.47 6.206-16.924-11.202-38.766-17.952-62.615-17.952z" fill="#783c28"/></g><g><path d="m234.805 187.078c-4.76 0-9.264-.706-13.355-2.138-3.128-1.095-4.775-4.518-3.681-7.646 1.095-3.127 4.515-4.773 7.646-3.681 17.738 6.208 49.56-7.724 62.468-34.342 1.445-2.983 5.035-4.225 8.017-2.781 2.981 1.446 4.227 5.035 2.78 8.017-7.135 14.715-19.542 27.141-34.937 34.986-9.826 5.008-19.847 7.585-28.938 7.585z" fill="#eab14d"/></g><g><path d="m464.919 187.078c-9.092 0-19.11-2.576-28.937-7.584-15.395-7.846-27.802-20.271-34.938-34.986-1.446-2.982-.201-6.571 2.78-8.017 2.982-1.443 6.57-.201 8.017 2.781 12.909 26.619 44.73 40.555 62.468 34.343 3.131-1.093 6.551.554 7.646 3.681 1.095 3.128-.553 6.551-3.681 7.646-4.09 1.43-8.596 2.136-13.355 2.136z" fill="#eab14d"/></g></g></g></svg>