<svg id="Layer_1" enable-background="new 0 0 511 511" height="512" viewBox="0 0 511 511" width="512" xmlns="http://www.w3.org/2000/svg"><g><g><path d="m474.228 318.621c.223-.91.437-1.826.65-2.743-.21.917-.43 1.83-.65 2.743z" fill="#afe6ff"/><path d="m240.848.5c-92.685 0-149.774 55.347-149.931 55.441-3.577 17.481-9.798 42.85-9.798 61.465 0 140.833 112.172 254.972 245.189 254.972 56.686 0 108.768-27.944 149.91-62.639.168-1.087 5.479-23.477 5.479-54.239-.001-140.833-107.833-255-240.849-255z" fill="#afe6ff"/><path d="m476.217 309.739c-41.142 34.696-93.245 55.441-149.931 55.441-133.017 0-240.848-114.167-240.848-255 0-18.615 1.902-36.757 5.479-54.239-.006.005-.011.01-.016.014-55.391 46.72-90.901 118.737-90.901 199.545 0 140.833 107.831 255 240.848 255 112.435 0 206.848-81.583 233.38-191.879.22-.913.44-1.826.65-2.743.1-.436 1.008-4.523 1.339-6.139z" fill="#9dc6fb"/></g><g><g><g><path d="m511 255.5c0 54.831-20.346 104.91-53.9 143.099-39.751 45.242-93.2 64.323-158.157 64.323-119.789 0-208.415-83.64-208.415-203.428 0-91.122 42.871-173.114 122.492-205.227 25.049-10.103 52.417-15.664 81.084-15.664 119.788.001 216.896 97.108 216.896 216.897z" fill="#f1d333"/></g><g><path d="m409.823 132.42c-2.873 0-5.759-.984-8.114-2.997-3.221-2.751-6.587-5.412-10.006-7.907-5.577-4.069-6.799-11.889-2.73-17.465s11.889-6.8 17.465-2.73c3.934 2.87 7.807 5.93 11.512 9.096 5.248 4.484 5.867 12.375 1.382 17.623-2.472 2.894-5.98 4.38-9.509 4.38z" fill="#f9ef63"/></g><g><path d="m349.403 98.497c-1.284 0-2.59-.199-3.877-.619-16.543-5.393-33.844-8.128-51.422-8.128-12.887 0-25.719 1.482-38.141 4.407-6.72 1.579-13.45-2.583-15.032-9.303s2.583-13.45 9.303-15.032c14.297-3.365 29.057-5.072 43.87-5.072 20.214 0 40.122 3.149 59.171 9.359 6.563 2.14 10.149 9.195 8.01 15.759-1.721 5.276-6.618 8.628-11.882 8.629z" fill="#f9ef63"/></g><g><path d="m376.012 414.268c-119.789 0-216.896-97.108-216.896-216.896 0-54.831 20.356-104.902 53.91-143.091-79.622 32.113-135.819 110.098-135.819 201.219 0 119.789 97.108 216.896 216.896 216.896 64.957 0 123.236-28.563 162.987-73.806-25.049 10.104-52.411 15.678-81.078 15.678z" fill="#eab14d"/></g></g><g><path d="m221.628 194.558c-1.2 0-2.412-.359-3.466-1.106-2.703-1.917-3.34-5.662-1.423-8.365 9.461-13.339 23.745-23.552 40.22-28.757 16.021-5.061 31.553-4.481 42.612 1.591 2.905 1.595 3.966 5.242 2.372 8.147-1.595 2.904-5.244 3.967-8.147 2.372-16.475-9.044-50.154-.541-67.269 23.59-1.169 1.647-3.02 2.528-4.899 2.528z" fill="#eab14d"/></g><g><path d="m475.701 194.558c-1.879 0-3.729-.88-4.899-2.529-17.113-24.13-50.793-32.635-67.269-23.59-2.906 1.594-6.552.533-8.147-2.372s-.533-6.552 2.372-8.147c11.06-6.072 26.591-6.652 42.612-1.591 16.476 5.205 30.759 15.417 40.22 28.757 1.917 2.703 1.28 6.448-1.423 8.365-1.054.747-2.266 1.107-3.466 1.107z" fill="#eab14d"/></g><g><path d="m262.604 252.984c-2.287 0-4.558-.975-6.14-2.866-2.835-3.389-2.387-8.434 1.002-11.27 10.181-8.518 23.109-13.209 36.403-13.209 1.576 0 3.143.064 4.698.191-7.562-9.813-19.421-15.952-32.336-15.952-5.894 0-11.594 1.241-16.941 3.688-4.02 1.839-8.765.072-10.604-3.945-1.838-4.018-.072-8.765 3.945-10.604 7.451-3.41 15.391-5.139 23.599-5.139 25.449 0 47.952 17.123 54.725 41.639.82 2.969-.138 6.146-2.462 8.167-2.325 2.021-5.604 2.527-8.43 1.303-5.127-2.222-10.576-3.349-16.194-3.349-9.547 0-18.829 3.367-26.135 9.48-1.498 1.255-3.319 1.866-5.13 1.866z" fill="#783c28"/></g><g><path d="m437.61 252.984c-1.811 0-3.632-.611-5.129-1.864-7.307-6.114-16.588-9.48-26.135-9.48-5.619 0-11.067 1.126-16.194 3.349-2.826 1.226-6.105.719-8.43-1.303-2.325-2.021-3.282-5.198-2.462-8.167 6.772-24.517 29.276-41.639 54.725-41.639 8.208 0 16.148 1.729 23.599 5.139 4.018 1.838 5.784 6.586 3.945 10.604s-6.585 5.783-10.604 3.945c-5.347-2.447-11.047-3.688-16.941-3.688-12.915 0-24.773 6.139-32.336 15.952 1.556-.127 3.122-.191 4.698-.191 13.294 0 26.222 4.691 36.403 13.209 3.389 2.835 3.837 7.881 1.002 11.27-1.583 1.889-3.854 2.864-6.141 2.864z" fill="#783c28"/></g><g><path d="m431.457 369.181c-1.958 0-3.916-.674-5.502-2.021l-34.531-29.327-34.526 29.327c-3.174 2.695-7.832 2.695-11.006 0l-34.526-29.326-34.525 29.326c-3.173 2.695-7.833 2.695-11.006 0l-40.027-34c-3.578-3.04-4.015-8.403-.976-11.981 3.039-3.579 8.404-4.015 11.981-.976l34.524 29.326 34.525-29.326c3.174-2.695 7.833-2.695 11.005 0l34.527 29.326 34.525-29.326c3.174-2.695 7.832-2.695 11.005 0l34.531 29.327 34.531-29.327c3.579-3.039 8.942-2.602 11.981.976s2.602 8.942-.976 11.981l-40.034 34c-1.585 1.348-3.542 2.021-5.5 2.021z" fill="#a55a3c"/></g></g></g></svg>