<svg id="Layer_1" enable-background="new 0 0 511 511" height="512" viewBox="0 0 511 511" width="512" xmlns="http://www.w3.org/2000/svg"><g><g><g><path d="m479.61 318.621c.225-.91.442-1.826.658-2.743-.214.917-.436 1.83-.658 2.743z" fill="#afe6ff"/></g><g><path d="m243.581.5c-93.736 0-151.473 55.347-151.632 55.441-3.618 17.481-9.91 42.85-9.91 61.465 0 140.833 113.445 254.972 247.971 254.972 57.329 0 110.003-27.944 151.611-62.639.17-1.087 5.541-23.477 5.541-54.239 0-140.833-109.055-255-243.581-255z" fill="#c14098"/></g><g><path d="m481.621 309.739c-41.609 34.696-94.303 55.441-151.632 55.441-134.526 0-243.581-114.167-243.581-255 0-18.615 1.923-36.757 5.541-54.239-.006.005-.011.01-.017.014-56.019 46.72-91.932 118.737-91.932 199.545 0 140.833 109.055 255 243.581 255 113.711 0 209.195-81.583 236.029-191.879.222-.913.445-1.826.658-2.743.1-.436 1.019-4.523 1.353-6.139z" fill="#8659b9"/></g></g><g><g><g><path d="m506.974 255.5c0 54.831-20.346 104.91-53.9 143.099-39.751 45.242-98.039 60.329-162.996 60.329-119.789 0-209.593-83.64-209.593-203.428 0-91.122 48.888-169.119 128.509-201.232 25.049-10.103 52.417-15.664 81.084-15.664 119.788 0 216.896 97.107 216.896 216.896z" fill="#f1d333"/></g><g><path d="m411.605 137.601c-3.053 0-6.112-1.111-8.521-3.357-4.859-4.531-10.043-8.813-15.407-12.728-5.577-4.07-6.798-11.89-2.729-17.466 4.07-5.577 11.89-6.798 17.466-2.729 6.169 4.502 12.13 9.427 17.719 14.637 5.049 4.708 5.326 12.618.618 17.667-2.463 2.641-5.8 3.976-9.146 3.976z" fill="#f9ef63"/></g><g><path d="m345.377 98.497c-1.284 0-2.59-.199-3.877-.619-16.544-5.393-33.845-8.128-51.422-8.128-12.887 0-25.72 1.482-38.142 4.407-6.72 1.581-13.451-2.584-15.032-9.303-1.582-6.72 2.583-13.45 9.303-15.032 14.297-3.365 29.057-5.072 43.87-5.072 20.213 0 40.121 3.149 59.171 9.359 6.563 2.14 10.15 9.195 8.01 15.759-1.719 5.276-6.617 8.628-11.881 8.629z" fill="#f9ef63"/></g><g><path d="m371.986 414.268c-119.789 0-216.896-97.108-216.896-216.896 0-54.831 20.356-104.902 53.91-143.091-79.622 32.113-135.819 110.098-135.819 201.219 0 119.789 97.108 216.896 216.896 216.896 64.957 0 123.236-28.563 162.987-73.806-25.049 10.104-52.411 15.678-81.078 15.678z" fill="#eab14d"/></g></g><g><g><ellipse cx="277.455" cy="215.501" fill="#eab14d" rx="26.422" ry="31.778"/></g><g><circle cx="277.326" cy="207.5" fill="#783c28" r="23.778"/></g></g><g><g><ellipse cx="385.713" cy="215.501" fill="#eab14d" rx="26.357" ry="31.778"/></g><g><circle cx="385.469" cy="207.5" fill="#783c28" r="23.778"/></g></g><g><path d="m330.153 336.648c21.893-.286 42.263 6.159 59.177 17.394 6.348 4.217 14.078-2.844 10.656-9.654-12.728-25.328-39.089-42.618-69.459-42.221-29.452.385-54.957 17.63-67.413 42.393-3.431 6.82 4.388 13.801 10.74 9.566 16.191-10.795 35.528-17.207 56.299-17.478z" fill="#783c28"/></g><g><path d="m213.841 184.436c-4.76 0-9.264-.706-13.355-2.138-3.127-1.095-4.775-4.518-3.681-7.646 1.095-3.127 4.517-4.774 7.646-3.681 17.739 6.209 49.561-7.725 62.468-34.342 1.446-2.982 5.035-4.225 8.017-2.781 2.982 1.446 4.227 5.035 2.781 8.017-7.136 14.715-19.543 27.141-34.938 34.986-9.826 5.009-19.846 7.585-28.938 7.585z" fill="#eab14d"/></g><g><path d="m443.955 184.436c-9.092 0-19.11-2.576-28.937-7.584-15.394-7.846-27.802-20.271-34.938-34.986-1.446-2.981-.201-6.571 2.781-8.017 2.982-1.444 6.571-.201 8.017 2.781 12.908 26.619 44.729 40.554 62.467 34.342 3.13-1.095 6.551.554 7.646 3.681 1.095 3.128-.553 6.551-3.681 7.646-4.091 1.432-8.596 2.137-13.355 2.137z" fill="#eab14d"/></g><g><g><path d="m511 315.105c0 2.791-.255 5.523-.743 8.173-3.842 20.853-22.495 30.768-44.459 30.768-24.756 0-40.308-13.412-40.308-38.168s40.687-84.6 40.687-84.6 44.823 59.071 44.823 83.827z" fill="#9dc6fb"/></g><g><path d="m487.446 329.508c-24.756 0-44.999-20.069-44.825-44.825.15-21.345 23.554-53.406 23.554-53.406s-44.825 59.071-44.825 83.827 20.069 44.825 44.825 44.825c21.964 0 40.225-15.802 44.068-36.654-6.68 3.955-14.471 6.233-22.797 6.233z" fill="#61a3e0"/></g></g></g></g></svg>