<svg id="Layer_1" enable-background="new 0 0 511 511" height="512" viewBox="0 0 511 511" width="512" xmlns="http://www.w3.org/2000/svg"><g><g><g><path d="m475.866 315.324c.223-.862.439-1.731.652-2.6-.211.869-.432 1.734-.652 2.6z" fill="#afe6ff"/></g><g><path d="m483.359 255.5c0-133.476-108.204-241.68-241.68-241.68-93.005 0-150.291 52.456-150.449 52.545-3.589 16.568-9.832 40.612-9.832 58.255 0 133.476 112.559 241.653 246.035 241.653 56.882 0 109.144-26.484 150.428-59.367.169-1.031 5.498-22.251 5.498-51.406z" fill="#6ec186"/></g><g><path d="m477.862 306.905c-41.284 32.883-93.567 52.545-150.449 52.545-133.476 0-241.68-108.204-241.68-241.68 0-17.643 1.908-34.837 5.497-51.405-.006.004-.011.009-.016.013-55.581 44.28-91.214 112.535-91.214 189.122 0 133.476 108.204 241.68 241.68 241.68 112.824 0 207.562-77.321 234.186-181.856.22-.866.441-1.731.652-2.6.1-.414 1.012-4.287 1.344-5.819z" fill="#61aab7"/></g></g><g><g><g><path d="m511 245.003c0 54.831-20.346 104.91-53.9 143.099-39.751 45.242-98.039 62.43-162.996 62.43-119.789 0-206.122-89.585-206.122-209.373 0-91.122 45.416-165.275 125.038-197.388 25.049-10.103 52.417-15.664 81.084-15.664 119.788 0 216.896 97.108 216.896 216.896z" fill="#f1d333"/></g><g><path d="m392.639 108.402c-2.604 0-5.229-.811-7.475-2.489-1.254-.938-2.105-1.586-2.729-2.062-.465-.354-.731-.566-.979-.737-.225-.139-.528-.302-1.045-.593-.684-.385-1.615-.91-2.968-1.688-5.985-3.441-8.047-11.082-4.606-17.067 3.441-5.984 11.082-8.049 17.067-4.606 1.263.726 2.133 1.215 2.771 1.575 2.31 1.3 2.815 1.632 4.913 3.231.582.443 1.375 1.048 2.545 1.922 5.529 4.133 6.661 11.966 2.527 17.496-2.453 3.285-6.214 5.018-10.021 5.018z" fill="#f9ef63"/></g><g><path d="m349.402 88c-1.284 0-2.589-.199-3.876-.619-16.543-5.393-33.844-8.127-51.423-8.127-12.889 0-25.721 1.482-38.141 4.407-6.719 1.581-13.449-2.583-15.032-9.303-1.582-6.72 2.583-13.45 9.303-15.032 14.294-3.365 29.054-5.072 43.869-5.072 20.215 0 40.123 3.149 59.171 9.359 6.564 2.14 10.15 9.195 8.011 15.759-1.72 5.275-6.617 8.627-11.882 8.628z" fill="#f9ef63"/></g><g><path d="m376.012 403.771c-119.789 0-216.896-97.108-216.896-216.896 0-54.831 20.356-104.902 53.91-143.091-79.622 32.113-135.819 110.098-135.819 201.219 0 119.789 97.108 216.896 216.896 216.896 64.957 0 123.236-28.563 162.987-73.806-25.049 10.104-52.411 15.678-81.078 15.678z" fill="#eab14d"/></g></g><g><path d="m411.043 273.695h-163.72c-2.872 0-5.734.703-8.163 2.235-5.085 3.206-7.613 8.97-6.802 14.635l.004.026c8.198 57.297 57.476 101.342 117.04 101.342.226 0 .452-.001.677-.002 33.787-.19 60.965-27.901 60.965-61.689v-56.547z" fill="#a55a3c"/></g><g><path d="m409.619 273.695c0 55.291-37.954 101.713-89.228 114.647 9.283 2.342 19 3.591 29.01 3.591 59.568 0 108.847-44.049 117.041-101.351.606-4.241-.659-8.535-3.464-11.773s-6.88-5.115-11.164-5.115h-42.195z" fill="#783c28"/></g><g><path d="m456.212 171.594c-2.227 0-4.366-1.245-5.402-3.384-5.412-11.161-14.732-21-26.243-27.705-6.379-3.715-13.157-6.282-19.603-7.422-3.263-.578-5.439-3.691-4.862-6.954s3.688-5.44 6.954-4.862c7.821 1.384 15.965 4.451 23.55 8.87 13.55 7.892 24.56 19.554 31.001 32.838 1.446 2.981.201 6.571-2.78 8.017-.845.408-1.736.602-2.615.602z" fill="#eab14d"/></g><g><g><circle cx="287.898" cy="193.535" fill="#eab14d" r="42.11"/></g><g><circle cx="287.898" cy="177.433" fill="#fff" r="42.11"/></g><g><circle cx="287.898" cy="177.433" fill="#783c28" r="16.102"/></g><g><circle cx="296.144" cy="163.891" fill="#fff" r="8.246"/></g></g><g><path d="m442.285 207.323c-1.919 0-3.839-.732-5.303-2.197-14.821-14.819-38.934-14.817-53.751 0-2.93 2.929-7.678 2.929-10.607 0s-2.929-7.678 0-10.606c20.668-20.667 54.296-20.667 74.964 0 2.93 2.929 2.93 7.677.001 10.606-1.465 1.465-3.385 2.197-5.304 2.197z" fill="#783c28"/></g><g><path d="m387.711 463.398c5.715-7.831 9.096-17.474 9.096-27.912v-92.152c0-4.401-3.163-8.167-7.498-8.926-11.669-2.044-22.312-.848-31.527 4.86-5.356 3.317-12.008 3.52-17.607.633-3.292-1.697-6.7-2.934-10.204-3.786v127.283z" fill="#dd6938"/></g><g><path d="m389.719 460.42c-3.77.965-7.72 1.479-11.791 1.479-26.182 0-47.407-21.225-47.407-47.407v-78.242c-6.466-1.653-13.272-1.957-20.321-1.296-4.661.437-8.206 4.341-8.206 9.022v91.51c0 26.182 21.225 47.407 47.407 47.407 17.032 0 31.96-8.987 40.318-22.473z" fill="#d80a61"/></g></g></g></svg>