<svg id="Layer_1" enable-background="new 0 0 511 511" height="512" viewBox="0 0 511 511" width="512" xmlns="http://www.w3.org/2000/svg"><g><g><g><path d="m482.022 316.098c.226-.874.444-1.753.661-2.634-.214.88-.438 1.757-.661 2.634z" fill="#afe6ff"/></g><g><path d="m244.806 10.694c-94.208 0-152.235 53.135-152.395 53.224-3.636 16.782-9.959 41.137-9.959 59.008 0 135.203 114.016 244.779 249.218 244.779 57.618 0 110.556-26.827 152.374-60.135.171-1.043 5.569-22.538 5.569-52.07 0-135.203-109.604-244.806-244.807-244.806z" fill="#dd6938"/></g><g><path d="m484.044 307.57c-41.818 33.309-94.778 53.224-152.395 53.224-135.203 0-244.806-109.604-244.806-244.806 0-17.871 1.933-35.288 5.569-52.07-.006.004-.011.009-.017.014-56.301 44.852-92.395 113.99-92.395 191.568 0 135.203 109.604 244.806 244.806 244.806 114.283 0 210.247-78.321 237.216-184.209.223-.877.447-1.753.661-2.634.102-.418 1.025-4.341 1.361-5.893z" fill="#d80a61"/></g></g><g><g><path d="m501.01 177.476c-.548 0-1.103-.045-1.66-.138l-25.241-4.22c-5.447-.911-9.125-6.065-8.215-11.512.911-5.448 6.073-9.122 11.512-8.214l25.241 4.22c5.447.911 9.125 6.065 8.215 11.512-.818 4.889-5.054 8.352-9.852 8.352z" fill="#9dc6fb"/></g><g><g><g><path d="m475.446 255.5c0 54.831-20.346 104.91-53.9 143.099-39.751 45.242-98.039 62.43-162.996 62.43-119.789 0-206.352-89.585-206.352-209.373 0-91.122 45.646-165.275 125.268-197.388 25.049-10.103 52.417-15.664 81.084-15.664 119.788 0 216.896 97.107 216.896 216.896z" fill="#f1d333"/></g><g><path d="m407.866 170.592c-4.079 0-8.076-1.993-10.475-5.662-11.047-16.898-24.923-31.505-41.243-43.415-5.576-4.07-6.798-11.889-2.728-17.466 4.068-5.578 11.889-6.798 17.466-2.729 18.768 13.697 34.726 30.496 47.431 49.93 3.777 5.778 2.155 13.525-3.623 17.303-2.11 1.38-4.483 2.039-6.828 2.039z" fill="#f9ef63"/></g><g><path d="m313.849 98.497c-1.284 0-2.589-.199-3.876-.619-16.543-5.393-33.844-8.127-51.423-8.127-12.89 0-25.722 1.482-38.142 4.407-6.719 1.581-13.449-2.583-15.031-9.303s2.582-13.45 9.303-15.032c14.294-3.365 29.054-5.072 43.87-5.072 20.215 0 40.123 3.149 59.171 9.359 6.564 2.14 10.15 9.195 8.011 15.759-1.721 5.275-6.618 8.627-11.883 8.628z" fill="#f9ef63"/></g><g><path d="m340.458 414.268c-119.789 0-216.896-97.108-216.896-216.896 0-54.831 20.356-104.902 53.91-143.091-79.622 32.113-135.819 110.098-135.819 201.219 0 119.789 97.108 216.896 216.896 216.896 64.957 0 123.236-28.563 162.987-73.806-25.049 10.104-52.411 15.678-81.078 15.678z" fill="#eab14d"/></g></g><g><path d="m300.846 383.796c-21.487 0-41.854-6.871-58.897-19.868-16.49-12.576-28.735-30.416-34.481-50.234-1.307-4.509 1.288-9.224 5.797-10.531 4.515-1.306 9.225 1.289 10.531 5.797 9.872 34.053 41.557 57.836 77.051 57.836 35.493 0 67.178-23.783 77.051-57.836 1.307-4.509 6.019-7.106 10.531-5.796 4.509 1.307 7.104 6.022 5.797 10.531-5.746 19.818-17.992 37.658-34.482 50.234-17.045 12.996-37.412 19.867-58.898 19.867z" fill="#a55a3c"/></g><g><path d="m104.996 176.143c-4.799 0-9.034-3.463-9.852-8.353-.91-5.447 2.768-10.602 8.215-11.512l25.241-4.22c5.449-.914 10.602 2.768 11.512 8.214.91 5.447-2.768 10.602-8.215 11.512l-25.241 4.22c-.557.094-1.113.139-1.66.139z" fill="#61a3e0"/></g><g><path d="m192.628 270.632h27.874c35.003 0 63.378-28.375 63.378-63.378v-45.332c-51.543-9.238-103.087-9.238-154.63 0v45.332c0 35.003 28.375 63.378 63.378 63.378z" fill="#41378c"/></g><g><path d="m321.127 206.992h-37.248c-5.522 0-10-4.477-10-10s4.478-10 10-10h37.248c5.522 0 10 4.477 10 10s-4.477 10-10 10z" fill="#61a3e0"/></g><g><path d="m174.418 273.3-35.813-27.729 73.263-94.623 48.786 10.974z" fill="#5046af"/></g><g><path d="m285.644 152.079c-38.612-6.92-77.623-8.729-116.445-5.465v20.076c34.883-3.07 69.935-1.857 104.681 3.681v36.884c0 29.433-23.945 53.378-53.378 53.378h-1.104c0 .019.003.036.003.056v19.944h1.101c40.461 0 73.378-32.917 73.378-73.378v-45.333c-.001-4.842-3.47-8.989-8.236-9.843z" fill="#9dc6fb"/></g><g><path d="m220.501 280.632h-27.874c-40.461 0-73.378-32.917-73.378-73.378v-53.699l8.235-1.477c14.19-2.543 28.583-4.425 42.779-5.593 5.507-.448 10.333 3.643 10.786 9.146.452 5.504-3.643 10.333-9.147 10.786-10.826.891-21.775 2.216-32.653 3.952v36.884c0 29.433 23.945 53.378 53.378 53.378h27.874c5.522 0 10 4.477 10 10s-4.477 10.001-10 10.001z" fill="#61a3e0"/></g><g><path d="m412.379 271.965h-27.874c-35.003 0-63.378-28.375-63.378-63.378v-45.332c51.543-9.238 103.087-9.238 154.63 0v45.332c0 35.003-28.375 63.378-63.378 63.378z" fill="#41378c"/></g><g><path d="m365.164 274.632-35.813-27.729 73.264-94.622 48.786 10.974z" fill="#5046af"/></g><g><path d="m477.522 153.412c-31.277-5.605-62.816-7.842-94.306-6.766v19.999c27.549-.986 55.14.691 82.541 5.058v36.883c0 29.433-23.945 53.378-53.378 53.378h-.979v20h.979c40.461 0 73.378-32.917 73.378-73.378v-45.332c0-4.841-3.47-8.988-8.235-9.842z" fill="#9dc6fb"/></g><g><path d="m412.379 281.965h-27.874c-40.461 0-73.378-32.917-73.378-73.378v-45.332c0-4.842 3.47-8.989 8.235-9.843 21.899-3.925 44.109-6.244 66.016-6.892 5.503-.161 10.128 4.179 10.292 9.7.163 5.521-4.18 10.128-9.7 10.292-18.185.538-36.594 2.282-54.843 5.193v36.883c0 29.433 23.945 53.378 53.378 53.378h27.874c5.522 0 10 4.477 10 10s-4.477 9.999-10 9.999z" fill="#61a3e0"/></g></g></g></g></svg>