<svg id="Layer_1" enable-background="new 0 0 511 511" height="512" viewBox="0 0 511 511" width="512" xmlns="http://www.w3.org/2000/svg"><g><g><g><path d="m474.329 315.13c.223-.86.437-1.725.65-2.592-.211.867-.431 1.73-.65 2.592z" fill="#afe6ff"/></g><g><path d="m240.899 14.601c-92.704 0-149.806 52.287-149.963 52.375-3.578 16.515-9.8 40.481-9.8 58.066 0 133.045 112.196 240.872 245.241 240.872 56.698 0 108.791-26.399 149.942-59.176.168-1.027 5.48-22.178 5.48-51.239-.001-133.044-107.855-240.898-240.9-240.898z" fill="#9bd069"/></g><g><path d="m476.318 306.739c-41.151 32.777-93.265 52.375-149.963 52.375-133.045 0-240.899-107.854-240.899-240.899 0-17.586 1.902-34.725 5.48-51.239-.006.004-.011.009-.016.013-55.402 44.137-90.92 112.172-90.92 188.511 0 133.045 107.854 240.899 240.899 240.899 112.459 0 206.892-77.071 233.43-181.269.22-.863.44-1.725.65-2.592.1-.411 1.008-4.272 1.339-5.799z" fill="#6ec186"/></g></g><g><g><g><path d="m511 255.5c0 54.831-20.346 104.91-53.9 143.099-39.751 45.242-98.039 62.311-162.996 62.311-119.789 0-205.289-85.621-205.289-205.41 0-91.122 44.583-169.119 124.205-201.232 25.049-10.103 52.417-15.664 81.084-15.664 119.788 0 216.896 97.107 216.896 216.896z" fill="#f1d333"/></g><g><path d="m418.323 140.162c-3.139 0-6.281-1.175-8.71-3.535-5.594-5.435-11.62-10.519-17.912-15.111-5.576-4.07-6.798-11.889-2.728-17.466 4.068-5.577 11.889-6.798 17.466-2.729 7.235 5.28 14.165 11.126 20.596 17.375 4.951 4.811 5.064 12.725.254 17.676-2.451 2.523-5.707 3.79-8.966 3.79z" fill="#f9ef63"/></g><g><path d="m349.403 98.497c-1.285 0-2.59-.199-3.877-.619-16.544-5.393-33.845-8.128-51.423-8.128-12.887 0-25.72 1.482-38.141 4.407-6.718 1.581-13.45-2.583-15.031-9.303-1.582-6.72 2.583-13.45 9.303-15.032 14.296-3.365 29.056-5.072 43.869-5.072 20.214 0 40.122 3.149 59.171 9.359 6.564 2.14 10.15 9.195 8.011 15.759-1.721 5.276-6.618 8.628-11.882 8.629z" fill="#f9ef63"/></g><path d="m376.012 414.268c-119.789 0-216.897-97.108-216.897-216.896 0-54.831 20.356-104.902 53.91-143.091-79.621 32.113-135.818 110.098-135.818 201.219 0 94.662 60.642 175.16 145.197 204.765l61.907 11.914c3.246.144 6.511.217 9.793.217 38.092 0 73.886-9.822 104.995-27.07 21.941-12.165 47.635-48.565 47.635-48.565s-27.343 14.14-47.643 16.291c-7.584.804-15.283 1.216-23.079 1.216z" fill="#eab14d"/></g><path d="m400.453 334.076c-.835-6.609-5.472-12.075-11.805-14.141l-94.17.105c-6.213 2.041-10.664 7.544-11.484 14.032-.449 3.553-.682 7.192-.682 10.896 0 39.629 26.6 71.754 59.412 71.754s59.412-32.125 59.412-71.754c-.001-3.703-.234-7.34-.683-10.892z" fill="#783c28"/><g><path d="m428.536 220.032v205.647c9.454-7.479 18.273-15.725 26.356-24.651.738-.807 1.482-1.603 2.208-2.429 1.314-1.495 2.6-3.016 3.873-4.547v-174.02z" fill="#9dc6fb"/></g><g><path d="m460.973 234.886v-14.854h-61.883v225.279c10.972-6.086 21.356-13.102 31.059-20.929v-158.672c0-17.024 13.8-30.824 30.824-30.824z" fill="#61a3e0"/></g><g><path d="m475.8 200.428c-2.227 0-4.366-1.245-5.402-3.384-5.412-11.16-14.731-21-26.243-27.705-6.377-3.715-13.156-6.281-19.603-7.422-3.263-.578-5.439-3.691-4.862-6.954.576-3.263 3.682-5.443 6.954-4.862 7.822 1.384 15.966 4.452 23.551 8.87 13.55 7.893 24.56 19.555 31 32.838 1.446 2.981.201 6.571-2.78 8.017-.844.409-1.736.602-2.615.602z" fill="#eab14d"/></g><g><path d="m461.874 236.158c-1.919 0-3.839-.732-5.304-2.197-14.818-14.819-38.932-14.819-53.75 0-2.93 2.929-7.678 2.929-10.607 0s-2.929-7.678 0-10.606c20.668-20.668 54.297-20.668 74.965 0 2.929 2.929 2.929 7.678 0 10.606-1.465 1.465-3.385 2.197-5.304 2.197z" fill="#783c28"/></g><g><path d="m208.501 200.428c-.879 0-1.771-.194-2.614-.603-2.981-1.446-4.227-5.035-2.78-8.017 6.441-13.284 17.451-24.946 31.001-32.838 7.585-4.418 15.729-7.485 23.55-8.87 3.271-.576 6.378 1.6 6.954 4.862.577 3.263-1.6 6.376-4.862 6.954-6.445 1.141-13.224 3.708-19.603 7.422-11.511 6.705-20.831 16.544-26.243 27.705-1.037 2.14-3.177 3.385-5.403 3.385z" fill="#eab14d"/></g><g><path d="m249.748 221.994v245.841c11.228 2.334 22.772 3.807 34.564 4.331v-250.172z" fill="#9dc6fb"/></g><g><path d="m284.311 232.893v-10.899h-61.883v238.263c9.37 3.28 19.035 5.928 28.941 7.908v-202.33c0-18.194 14.749-32.942 32.942-32.942z" fill="#61a3e0"/></g><g><path d="m222.427 236.158c-1.92 0-3.839-.732-5.304-2.197-2.929-2.929-2.929-7.678.001-10.606 20.667-20.668 54.297-20.667 74.964 0 2.929 2.929 2.929 7.678 0 10.606-2.93 2.929-7.678 2.929-10.607 0-14.816-14.817-38.929-14.819-53.751 0-1.464 1.465-3.384 2.197-5.303 2.197z" fill="#783c28"/></g><g><path d="m390.312 320.584c-.542-.24-1.094-.463-1.665-.649-31.39-10.241-62.78-10.206-94.17.105-.459.151-.905.326-1.344.513v10.812c0 7.574 6.14 13.714 13.714 13.714h69.75c7.574 0 13.714-6.14 13.714-13.714v-10.781z" fill="#fff"/></g></g></g></svg>