<svg id="Layer_1" enable-background="new 0 0 511 511" height="512" viewBox="0 0 511 511" width="512" xmlns="http://www.w3.org/2000/svg"><g><g><g><path d="m472.549 314.907c.222-.856.435-1.719.648-2.582-.209.863-.429 1.722-.648 2.582z" fill="#afe6ff"/></g><g><path d="m239.995 15.505c-92.357 0-149.244 52.091-149.4 52.178-3.564 16.453-9.764 40.329-9.764 57.849 0 132.546 111.775 239.969 244.321 239.969 56.485 0 108.383-26.3 149.379-58.954.167-1.023 5.459-22.095 5.459-51.047.001-132.546-107.449-239.995-239.995-239.995z" fill="#afe6ff"/></g><g><path d="m474.532 306.547c-40.996 32.654-92.915 52.178-149.4 52.178-132.546 0-239.995-107.45-239.995-239.995 0-17.52 1.895-34.594 5.459-51.047-.006.004-.011.009-.016.013-55.195 43.971-90.58 111.751-90.58 187.804 0 132.546 107.45 239.995 239.995 239.995 112.037 0 206.116-76.782 232.554-180.589.219-.859.438-1.719.648-2.582.1-.41 1.005-4.255 1.335-5.777z" fill="#9dc6fb"/></g></g><g><g><g><path d="m511 255.5c0 54.831-20.346 104.91-53.9 143.099-39.751 45.242-93.2 64.323-158.157 64.323-119.789 0-208.415-83.64-208.415-203.428 0-91.122 42.871-173.114 122.492-205.227 25.049-10.103 52.417-15.664 81.084-15.664 119.788.001 216.896 97.108 216.896 216.897z" fill="#f1d333"/></g><g><path d="m404.326 127.911c-2.708 0-5.434-.875-7.726-2.681-1.605-1.265-3.253-2.514-4.898-3.714-5.577-4.069-6.798-11.889-2.729-17.466 4.069-5.576 11.888-6.798 17.466-2.729 1.891 1.379 3.785 2.816 5.629 4.269 5.423 4.271 6.357 12.131 2.085 17.554-2.466 3.132-6.129 4.767-9.827 4.767z" fill="#f9ef63"/></g><g><path d="m349.403 98.497c-1.284 0-2.59-.199-3.877-.619-16.543-5.393-33.844-8.127-51.423-8.127-12.889 0-25.721 1.482-38.141 4.407-6.725 1.578-13.45-2.583-15.032-9.303s2.583-13.45 9.303-15.032c14.295-3.365 29.055-5.072 43.87-5.072 20.214 0 40.123 3.149 59.172 9.359 6.563 2.14 10.15 9.195 8.01 15.759-1.72 5.275-6.618 8.627-11.882 8.628z" fill="#f9ef63"/></g><g><path d="m376.012 414.268c-119.789 0-216.896-97.108-216.896-216.896 0-54.831 20.356-104.902 53.91-143.091-79.622 32.113-135.819 110.098-135.819 201.219 0 119.789 97.108 216.896 216.896 216.896 64.957 0 123.236-28.563 162.987-73.806-25.049 10.104-52.411 15.678-81.078 15.678z" fill="#eab14d"/></g></g><g><g><g><ellipse cx="292.269" cy="205.602" fill="#eab14d" rx="44.617" ry="50.161"/></g><g><circle cx="292.138" cy="197.551" fill="#fff" r="42.11"/></g><g><circle cx="292.1" cy="190.06" fill="#783c28" r="13.996"/></g><g><circle cx="299.267" cy="178.29" fill="#fff" r="7.167"/></g></g><g><g><ellipse cx="421.297" cy="205.602" fill="#eab14d" rx="44.617" ry="50.161"/></g><g><circle cx="421.165" cy="197.551" fill="#fff" r="42.11"/></g><g><circle cx="421.127" cy="190.06" fill="#783c28" r="13.996"/></g><g><circle cx="428.294" cy="178.29" fill="#fff" r="7.167"/></g></g></g><path d="m356.783 283.575c-21.594 0-39.099 23.182-39.099 51.779 0 4.068.354 8.027 1.024 11.825l59.445 31.543c10.676-9.244 17.729-25.215 17.729-43.368 0-28.597-17.505-51.779-39.099-51.779z" fill="#783c28"/><g><path d="m344.732 335.354c-10.377 0-19.678 4.581-26.011 11.823 4.04 22.897 19.542 39.956 38.063 39.956 7.886 0 15.22-3.102 21.362-8.42.739-2.812 1.137-5.764 1.137-8.808-.001-19.082-15.47-34.551-34.551-34.551z" fill="#dd6938"/></g><g><g><path d="m239.12 190.388c-2.073 0-4.136-.854-5.618-2.528-2.746-3.101-2.458-7.841.644-10.587l43.271-38.312c3.102-2.746 7.842-2.458 10.587.644 2.746 3.101 2.458 7.841-.644 10.587l-43.271 38.312c-1.427 1.263-3.201 1.884-4.969 1.884z" fill="#eab14d"/></g><g><path d="m474.446 190.388c-1.768 0-3.542-.621-4.969-1.885l-43.271-38.312c-3.101-2.746-3.39-7.486-.644-10.587 2.745-3.102 7.485-3.39 10.587-.644l43.271 38.312c3.101 2.746 3.39 7.486.644 10.587-1.482 1.674-3.546 2.529-5.618 2.529z" fill="#eab14d"/></g></g></g></g></svg>