<svg id="Layer_1" enable-background="new 0 0 511 511" height="512" viewBox="0 0 511 511" width="512" xmlns="http://www.w3.org/2000/svg"><g><g><g><path d="m475.866 315.324c.223-.862.439-1.731.652-2.6-.211.869-.432 1.734-.652 2.6z" fill="#afe6ff"/></g><g><path d="m241.68 13.82c-93.005 0-150.291 52.456-150.449 52.545-3.589 16.568-9.832 40.612-9.832 58.255 0 133.476 112.559 241.653 246.035 241.653 56.882 0 109.144-26.484 150.428-59.367.168-1.03 5.497-22.25 5.497-51.405 0-133.477-108.203-241.681-241.679-241.681z" fill="#6ec186"/></g><g><path d="m477.862 306.905c-41.284 32.883-93.567 52.545-150.449 52.545-133.476 0-241.68-108.204-241.68-241.68 0-17.643 1.908-34.837 5.497-51.405-.006.004-.011.009-.016.013-55.581 44.28-91.214 112.535-91.214 189.122 0 133.476 108.204 241.68 241.68 241.68 112.824 0 207.562-77.321 234.186-181.856.22-.866.441-1.731.652-2.6.1-.414 1.012-4.287 1.344-5.819z" fill="#61aab7"/></g></g><g><g><g><path d="m511 255.5c0 54.831-20.346 104.91-53.9 143.099-39.751 45.242-98.039 62.43-162.996 62.43-119.789 0-206.122-89.585-206.122-209.373 0-91.122 45.416-165.275 125.038-197.388 25.049-10.103 52.417-15.664 81.084-15.664 119.788 0 216.896 97.107 216.896 216.896z" fill="#f1d333"/></g><g><path d="m399.01 122.204c-2.319 0-4.665-.645-6.76-1.994-3.325-2.143-6.77-4.193-10.239-6.093-6.055-3.316-8.274-10.913-4.959-16.968 3.316-6.055 10.913-8.275 16.969-4.959 3.988 2.185 7.949 4.542 11.772 7.005 5.803 3.74 7.476 11.476 3.735 17.278-2.39 3.709-6.412 5.731-10.518 5.731z" fill="#f9ef63"/></g><g><path d="m349.403 98.497c-1.285 0-2.59-.199-3.877-.619-16.544-5.393-33.846-8.127-51.423-8.127-12.889 0-25.721 1.482-38.141 4.407-6.723 1.578-13.45-2.583-15.032-9.303s2.583-13.45 9.303-15.032c14.295-3.365 29.055-5.072 43.87-5.072 20.213 0 40.121 3.149 59.171 9.359 6.563 2.14 10.15 9.195 8.011 15.758-1.721 5.276-6.618 8.628-11.882 8.629z" fill="#f9ef63"/></g><g><path d="m376.012 414.268c-119.789 0-216.896-97.108-216.896-216.896 0-54.831 20.356-104.902 53.91-143.091-79.622 32.113-135.819 110.098-135.819 201.219 0 119.789 97.108 216.896 216.896 216.896 64.957 0 123.236-28.563 162.987-73.806-25.049 10.104-52.411 15.678-81.078 15.678z" fill="#eab14d"/></g></g><g><path d="m278.774 363.059c-1.133 0-2.283-.257-3.364-.801-3.7-1.861-5.191-6.37-3.33-10.07 14.228-28.286 42.589-46.112 74.015-46.522 32.449-.44 61.679 17.338 76.259 46.354 1.86 3.701.367 8.209-3.334 10.069-3.701 1.857-8.21.366-10.068-3.334-11.841-23.563-35.435-38.096-61.728-38.096-.312 0-.621.002-.934.006-25.807.337-49.107 14.999-60.81 38.264-1.317 2.617-3.962 4.13-6.706 4.13z" fill="#783c28"/></g><g><g><g><ellipse cx="283.489" cy="218.038" fill="#eab14d" rx="26.422" ry="31.778"/></g><g><circle cx="283.36" cy="210.038" fill="#783c28" r="23.778"/></g></g><g><path d="m196.87 225.539c-2.504 0-4.951-1.253-6.373-3.534-2.19-3.516-1.117-8.141 2.398-10.332 46.062-28.705 86.361-25.906 88.051-25.776 4.129.325 7.214 3.936 6.889 8.065-.324 4.124-3.92 7.211-8.048 6.89-.218-.015-9.503-.63-23.755 1.942-13.185 2.38-33.464 8.062-55.203 21.609-1.233.769-2.605 1.136-3.959 1.136z" fill="#783c28"/></g></g><g><g><g><ellipse cx="437.118" cy="218.038" fill="#eab14d" rx="26.422" ry="31.778"/></g><g><circle cx="436.988" cy="210.038" fill="#783c28" r="23.778"/></g></g><g><path d="m350.499 225.539c-2.504 0-4.95-1.253-6.372-3.534-2.19-3.516-1.117-8.141 2.398-10.332 46.062-28.705 86.36-25.906 88.051-25.776 4.129.325 7.214 3.936 6.889 8.065-.323 4.124-3.912 7.211-8.048 6.89-.217-.015-9.503-.63-23.755 1.942-13.185 2.38-33.465 8.062-55.203 21.609-1.235.769-2.606 1.136-3.96 1.136z" fill="#783c28"/></g></g><g><path d="m167.688 212.546c-.651 0-1.313-.106-1.962-.332-3.132-1.083-4.792-4.5-3.708-7.632 15.865-45.847 56.82-50.602 58.556-50.781 3.292-.347 6.245 2.053 6.586 5.349.341 3.29-2.044 6.234-5.331 6.585-1.488.166-35.183 4.371-48.471 42.771-.859 2.482-3.183 4.04-5.67 4.04z" fill="#eab14d"/></g><g><path d="m311.698 366.988c-2.032 0-4.015-1.033-5.142-2.899-1.713-2.836-.803-6.525 2.034-8.238 41.525-25.083 76.044-2.53 77.492-1.558 2.752 1.846 3.486 5.574 1.64 8.326-1.844 2.746-5.562 3.483-8.311 1.649-1.249-.825-29.836-19.153-64.618 1.854-.969.587-2.039.866-3.095.866z" fill="#eab14d"/></g><g><path d="m494.21 212.546c-2.487 0-4.812-1.557-5.67-4.04-13.301-38.435-47.046-42.613-48.476-42.771-3.285-.365-5.667-3.319-5.313-6.605.353-3.287 3.273-5.672 6.573-5.328 1.735.18 42.69 4.934 58.556 50.781 1.084 3.131-.576 6.548-3.708 7.632-.65.224-1.312.331-1.962.331z" fill="#eab14d"/></g></g></g></svg>