<svg id="Layer_1" enable-background="new 0 0 511 511" height="512" viewBox="0 0 511 511" width="512" xmlns="http://www.w3.org/2000/svg"><g><g><g><path d="m489.268 310.828c.23-.887.451-1.78.671-2.673-.217.893-.444 1.783-.671 2.673z" fill="#afe6ff"/></g><g><path d="m248.486.833c-95.624 0-154.524 53.934-154.686 54.025-3.69 17.035-10.109 41.756-10.109 59.895 0 137.235 115.73 248.459 252.965 248.459 58.484 0 112.218-27.23 154.664-61.039.173-1.059 5.652-22.877 5.652-52.853.001-137.236-111.25-248.487-248.486-248.487z" fill="#dd6938"/></g><g><path d="m491.32 302.173c-42.447 33.809-96.202 54.025-154.686 54.025-137.235 0-248.486-111.251-248.486-248.486 0-18.14 1.962-35.818 5.652-52.853-.006.005-.011.009-.017.014-57.146 45.525-93.783 115.703-93.783 194.446 0 137.235 111.251 248.486 248.486 248.486 116.001 0 213.408-79.499 240.782-186.978.227-.89.454-1.78.671-2.673.103-.424 1.04-4.406 1.381-5.981z" fill="#d80a61"/></g></g><g><g><g><path d="m511 252.398c0 54.831-20.346 104.91-53.9 143.099-39.751 45.242-98.039 62.43-162.996 62.43-119.789 0-206.122-89.585-206.122-209.373 0-91.122 45.416-165.275 125.038-197.388 25.049-10.103 52.417-15.664 81.084-15.664 119.788-.001 216.896 97.107 216.896 216.896z" fill="#f1d333"/></g><g><path d="m399.009 119.101c-2.319 0-4.665-.645-6.76-1.994-3.325-2.143-6.77-4.193-10.239-6.093-6.055-3.316-8.274-10.913-4.959-16.968 3.317-6.056 10.914-8.276 16.969-4.959 3.988 2.185 7.949 4.542 11.772 7.005 5.803 3.74 7.476 11.476 3.735 17.278-2.389 3.709-6.411 5.731-10.518 5.731z" fill="#f9ef63"/></g><g><path d="m349.404 95.394c-1.285 0-2.59-.199-3.877-.619-16.544-5.393-33.846-8.127-51.423-8.127-12.89 0-25.722 1.482-38.142 4.407-6.721 1.581-13.449-2.583-15.031-9.303s2.582-13.45 9.303-15.032c14.294-3.365 29.054-5.072 43.87-5.072 20.213 0 40.121 3.149 59.171 9.359 6.563 2.14 10.15 9.195 8.011 15.758-1.721 5.276-6.619 8.629-11.882 8.629z" fill="#f9ef63"/></g><g><path d="m376.012 411.166c-119.789 0-216.896-97.108-216.896-216.896 0-54.831 20.356-104.902 53.91-143.091-79.622 32.113-135.819 110.098-135.819 201.219 0 119.789 97.108 216.896 216.896 216.896 64.957 0 123.236-28.563 162.987-73.806-25.049 10.104-52.411 15.678-81.078 15.678z" fill="#eab14d"/></g></g><g><path d="m247.745 178.972c-4.078 0-8.13-.334-12.109-1.012-3.268-.556-5.465-3.655-4.909-6.921s3.655-5.467 6.921-4.909c29.164 4.96 58.993-12.839 64.247-30.886.926-3.182 4.262-5.008 7.438-4.083 3.182.926 5.011 4.256 4.084 7.438-3.526 12.113-14.099 23.505-29.006 31.256-11.546 6.002-24.224 9.117-36.666 9.117z" fill="#eab14d"/></g><g><path d="m271.829 256.001c-9.184 0-18.433-2.215-26.892-6.779-7.224-3.897-13.391-9.188-18.329-15.728-2.663-3.525-1.964-8.542 1.562-11.205 3.522-2.662 8.541-1.965 11.205 1.562 3.544 4.692 7.971 8.49 13.159 11.289 11.367 6.133 24.72 6.361 36.032 1.315-1.429-.627-2.839-1.314-4.226-2.063-11.699-6.312-20.85-16.579-25.766-28.91-1.636-4.104.365-8.757 4.469-10.394 4.104-1.634 8.759.364 10.395 4.469 3.528 8.851 10.098 16.221 18.5 20.754 4.944 2.667 10.274 4.263 15.843 4.742 3.068.264 5.714 2.267 6.8 5.15s.421 6.133-1.711 8.357c-10.953 11.428-25.908 17.441-41.041 17.441z" fill="#783c28"/></g><g><path d="m435.912 178.972c-12.442 0-25.118-3.115-36.665-9.117-14.908-7.75-25.48-19.143-29.007-31.256-.927-3.182.902-6.512 4.084-7.438 3.176-.927 6.512.901 7.438 4.083 5.254 18.046 35.071 35.85 64.248 30.886 3.264-.557 6.365 1.642 6.921 4.909s-1.642 6.366-4.909 6.921c-3.979.677-8.032 1.012-12.11 1.012z" fill="#eab14d"/></g><g><path d="m411.828 256.001c-15.134.001-30.087-6.012-41.042-17.439-2.132-2.224-2.797-5.474-1.711-8.357s3.731-4.886 6.8-5.15c5.568-.479 10.898-2.075 15.843-4.742 8.402-4.533 14.973-11.904 18.5-20.754 1.637-4.104 6.291-6.106 10.395-4.469 4.104 1.636 6.104 6.29 4.469 10.394-4.916 12.331-14.066 22.598-25.766 28.91-1.387.749-2.797 1.436-4.226 2.063 11.315 5.046 24.667 4.816 36.032-1.315 5.188-2.799 9.615-6.597 13.159-11.289 2.662-3.526 7.679-4.226 11.205-1.562 3.526 2.663 4.226 7.68 1.562 11.205-4.938 6.539-11.105 11.831-18.329 15.728-8.457 4.562-17.709 6.776-26.891 6.777z" fill="#783c28"/></g><g><path d="m385.077 319.898h-70.117v115.612h31.848c3.91 0 14.39 8.31 14.39 13.069v40.215h8.681c.042-.569.071-1.142.071-1.722 0-12.755 10.34-23.095 23.095-23.095h.321c12.755 0 23.095-10.34 23.095-23.095v-95.943z" fill="#9bd069"/></g><g><path d="m365.072 473.071v-18.806c0-12.755-10.34-23.095-23.095-23.095h-2.67c-12.755 0-23.095-10.34-23.095-23.095v-81.942l9.235-6.235h-23.266l-29.973 20.236v81.942c0 12.755 10.34 23.095 23.095 23.095h2.67c12.755 0 23.095 10.34 23.095 23.095v18.806c0 12.755 10.34 23.095 23.095 23.095h2.691c12.695 0 22.993-10.243 23.09-22.915-3.049-3.914-4.872-8.833-4.872-14.181z" fill="#6ec186"/></g><g><path d="m431.722 385.476c-3.687 0-7.082-2.417-8.16-6.136-9.873-34.053-41.558-57.836-77.051-57.836s-67.178 23.783-77.051 57.836c-1.308 4.509-6.022 7.104-10.531 5.797s-7.104-6.022-5.797-10.531c5.746-19.818 17.992-37.658 34.482-50.234 17.044-12.998 37.41-19.868 58.896-19.868s41.853 6.87 58.896 19.868c16.49 12.576 28.736 30.416 34.482 50.234 1.307 4.509-1.288 9.224-5.797 10.531-.789.23-1.586.339-2.369.339z" fill="#a55a3c"/></g></g></g></svg>