<svg id="Layer_1" enable-background="new 0 0 509.071 509.071" height="512" viewBox="0 0 509.071 509.071" width="512" xmlns="http://www.w3.org/2000/svg"><g><g><g><path d="m470.719 313.712c.221-.853.434-1.712.645-2.572-.209.86-.427 1.716-.645 2.572z" fill="#afe6ff"/></g><g><path d="m239.066 15.47c-91.999 0-148.666 51.889-148.821 51.976-3.551 16.389-9.726 40.173-9.726 57.625 0 132.032 111.342 239.039 243.374 239.039 56.267 0 107.963-26.198 148.801-58.725.167-1.019 5.438-22.01 5.438-50.849-.001-132.033-107.034-239.066-239.066-239.066z" fill="#9bd069"/></g><g><path d="m472.693 305.385c-40.837 32.528-92.555 51.976-148.822 51.976-132.032 0-239.066-107.033-239.066-239.066 0-17.452 1.887-34.46 5.438-50.849-.005.004-.011.009-.016.013-54.979 43.801-90.227 111.318-90.227 187.077 0 132.032 107.033 239.066 239.066 239.066 111.603 0 205.317-76.485 231.653-179.889.218-.856.437-1.712.645-2.572.1-.409 1.001-4.241 1.329-5.756z" fill="#6ec186"/></g></g><g><g><g><path d="m439.919 254.536c0 51.405-19.075 98.355-50.532 134.158-37.267 42.415-91.913 58.529-152.811 58.529-112.303 0-193.242-83.987-193.242-196.29 0-85.428 42.578-154.948 117.224-185.054 23.484-9.471 49.142-14.685 76.017-14.685 112.304-.002 203.344 91.038 203.344 203.342z" fill="#f1d333"/></g><g><path d="m334.926 129.569c-2.175 0-4.374-.604-6.338-1.87-3.116-2.008-6.345-3.929-9.597-5.711-5.677-3.108-7.759-10.23-4.651-15.907 3.108-5.678 10.232-7.758 15.907-4.65 3.742 2.048 7.455 4.258 11.04 6.569 5.44 3.507 7.008 10.759 3.501 16.199-2.242 3.474-6.013 5.37-9.862 5.37z" fill="#f9ef63"/></g><g><path d="m288.419 107.343c-1.204 0-2.427-.187-3.634-.58-15.509-5.056-31.729-7.62-48.21-7.62-12.083 0-24.113 1.39-35.758 4.131-6.298 1.481-12.61-2.422-14.092-8.721-1.483-6.3 2.422-12.61 8.721-14.093 13.402-3.155 27.239-4.755 41.129-4.755 18.952 0 37.616 2.952 55.473 8.774 6.154 2.006 9.516 8.621 7.51 14.774-1.611 4.947-6.203 8.089-11.139 8.09z" fill="#f9ef63"/></g><g><path d="m313.366 403.383c-112.303 0-203.343-91.04-203.343-203.343 0-51.405 19.084-98.347 50.541-134.15-74.646 30.107-127.331 103.218-127.331 188.646 0 112.303 91.04 203.343 203.343 203.343 60.898 0 115.535-26.779 152.802-69.194-23.484 9.472-49.136 14.698-76.012 14.698z" fill="#eab14d"/></g></g><g><g><ellipse cx="221.324" cy="226.661" fill="#eab14d" rx="24.771" ry="29.792"/></g><g><circle cx="221.203" cy="219.161" fill="#783c28" r="22.292"/></g></g><g><path d="m408.683 249.497c12.895 2.004 23.225 10.025 28.726 20.672 1.441 2.789 5.126 3.492 7.527 1.47 8.758-7.378 20.667-10.852 32.772-8.443 31.51 6.27 46.135 48.829 10.877 72.385l-62.798 38.009c-3.252 1.968-7.469 1.118-9.704-1.957l-45.781-62.98c-18.821-28.334 5.816-64.217 38.381-59.156z" fill="#dd6938"/></g><g><path d="m444.292 354.522-45.781-62.98c-9.47-14.256-7.934-30.42.074-42.321-27.224 2.784-45.098 34.117-28.283 59.431l45.781 62.98c2.235 3.074 6.452 3.925 9.704 1.957l26.867-16.261c-.121-.029-.24-.067-.359-.102-2.908.867-6.142-.144-8.003-2.704z" fill="#d80a61"/></g><g><path d="m402.922 202.362c-2.087 0-4.093-1.167-5.065-3.172-5.074-10.463-13.812-19.687-24.603-25.973-5.98-3.483-12.335-5.889-18.377-6.958-3.06-.541-5.1-3.46-4.559-6.519.54-3.058 3.454-5.101 6.519-4.559 7.333 1.297 14.967 4.173 22.079 8.315 12.703 7.399 23.025 18.332 29.064 30.786 1.356 2.795.189 6.16-2.607 7.516-.791.382-1.627.564-2.451.564z" fill="#eab14d"/></g><g><path d="m163.651 202.362c-.824 0-1.66-.182-2.451-.565-2.795-1.355-3.962-4.721-2.607-7.516 6.039-12.454 16.361-23.387 29.064-30.786 7.112-4.142 14.748-7.018 22.08-8.315 3.065-.538 5.978 1.501 6.519 4.559.541 3.059-1.5 5.978-4.559 6.519-6.043 1.069-12.397 3.475-18.378 6.958-10.791 6.286-19.529 15.51-24.603 25.973-.972 2.005-2.978 3.173-5.065 3.173z" fill="#eab14d"/></g><g><path d="m389.865 235.859c-1.799 0-3.599-.687-4.972-2.06-13.893-13.893-36.499-13.891-50.39 0-2.747 2.746-7.198 2.746-9.945 0-2.746-2.746-2.746-7.198 0-9.944 19.376-19.378 50.903-19.376 70.28 0 2.746 2.746 2.746 7.198 0 9.944-1.374 1.373-3.174 2.06-4.973 2.06z" fill="#783c28"/></g><g><path d="m300.848 407.085c-3.884 0-7.031-3.148-7.031-7.031s3.148-7.031 7.031-7.031c14.314 0 25.959-11.645 25.959-25.959 0-8.952-4.53-17.16-12.118-21.956-2.039-1.289-3.275-3.532-3.275-5.944s1.236-4.655 3.274-5.944c7.589-4.797 12.119-13.005 12.119-21.956 0-14.314-11.646-25.96-25.959-25.96-14.314 0-25.96 11.646-25.96 25.96 0 3.883-3.148 7.031-7.031 7.031-3.884 0-7.031-3.148-7.031-7.031 0-22.068 17.954-40.022 40.023-40.022 22.068 0 40.022 17.954 40.022 40.022 0 10.6-4.114 20.52-11.319 27.9 7.203 7.379 11.319 17.3 11.319 27.9-.001 22.067-17.955 40.021-40.023 40.021z" fill="#a55a3c"/></g></g></g></svg>