<svg id="Layer_1" enable-background="new 0 0 511 511" height="512" viewBox="0 0 511 511" width="512" xmlns="http://www.w3.org/2000/svg"><g><g><g><path d="m502.593 319.121c.236-.91.463-1.826.688-2.743-.222.917-.455 1.83-.688 2.743z" fill="#afe6ff"/></g><g><path d="m255.5 1c-98.131 0-158.574 55.347-158.741 55.441-3.787 17.481-10.374 42.85-10.374 61.465 0 140.833 118.763 254.972 259.596 254.972 60.017 0 115.159-27.944 158.719-62.639.178-1.087 5.8-23.477 5.8-54.239 0-140.833-114.167-255-255-255z" fill="#c14098"/></g><g><path d="m504.7 310.239c-43.559 34.696-98.724 55.441-158.741 55.441-140.833 0-255-114.167-255-255 0-18.615 2.013-36.757 5.8-54.239-.006.005-.011.01-.017.014-58.645 46.72-96.242 118.737-96.242 199.545 0 140.833 114.167 255 255 255 119.042 0 219.002-81.583 247.093-191.879.233-.913.466-1.826.688-2.743.107-.436 1.068-4.523 1.419-6.139z" fill="#8659b9"/></g></g><g><g><g><path d="m497.569 256c0 54.831-20.346 104.91-53.9 143.099-39.751 45.242-98.039 62.43-162.997 62.43-119.789 0-206.122-89.585-206.122-209.373 0-91.122 45.416-165.275 125.038-197.388 25.049-10.103 52.417-15.664 81.084-15.664 119.789 0 216.897 97.107 216.897 216.896z" fill="#dd6938"/></g><g><path d="m385.579 122.704c-2.319 0-4.666-.645-6.76-1.995-3.327-2.145-6.771-4.194-10.237-6.091-6.055-3.315-8.277-10.912-4.961-16.967 3.315-6.055 10.911-8.277 16.967-4.961 3.987 2.183 7.949 4.54 11.775 7.006 5.803 3.74 7.475 11.476 3.735 17.279-2.391 3.707-6.413 5.729-10.519 5.729z" fill="#fa968c"/></g><g><path d="m335.972 98.997c-1.284 0-2.59-.199-3.877-.619-16.543-5.393-33.844-8.128-51.422-8.128-12.887 0-25.72 1.482-38.141 4.407-6.719 1.579-13.45-2.583-15.032-9.303s2.583-13.45 9.303-15.032c14.296-3.365 29.056-5.072 43.87-5.072 20.214 0 40.122 3.149 59.171 9.359 6.563 2.14 10.149 9.195 8.01 15.759-1.72 5.276-6.618 8.628-11.882 8.629z" fill="#fa968c"/></g><g><path d="m362.581 414.768c-119.789 0-216.896-97.108-216.896-216.896 0-54.831 20.356-104.902 53.91-143.091-79.622 32.113-135.819 110.098-135.819 201.219 0 119.789 97.108 216.896 216.896 216.896 64.957 0 123.236-28.563 162.987-73.806-25.049 10.104-52.411 15.678-81.078 15.678z" fill="#d80a61"/></g></g><g><g><ellipse cx="278.688" cy="229.019" fill="#d80a61" rx="26.422" ry="31.778"/></g><g><circle cx="278.558" cy="221.018" fill="#961e0f" r="23.778"/></g></g><g><g><ellipse cx="415.947" cy="229.019" fill="#d80a61" rx="26.357" ry="31.778"/></g><g><circle cx="415.704" cy="221.018" fill="#961e0f" r="23.778"/></g></g><g><path d="m312.794 204.202c-1.349 0-2.717-.322-3.991-1l-66.687-35.542c-4.143-2.208-5.711-7.356-3.503-11.499s7.355-5.711 11.499-3.503l66.688 35.542c4.143 2.208 5.711 7.356 3.503 11.499-1.53 2.869-4.47 4.503-7.509 4.503z" fill="#d80a61"/></g><g><path d="m379.13 204.202c-3.04 0-5.979-1.634-7.508-4.503-2.208-4.143-.64-9.291 3.503-11.499l66.688-35.542c4.143-2.208 9.291-.64 11.499 3.503s.64 9.291-3.503 11.499l-66.688 35.542c-1.274.679-2.643 1-3.991 1z" fill="#d80a61"/></g><g><path d="m345.7 195.701c-4.694 0-8.5-3.806-8.5-8.5v-27.043c0-4.694 3.806-8.5 8.5-8.5s8.5 3.806 8.5 8.5v27.043c0 4.695-3.805 8.5-8.5 8.5z" fill="#d80a61"/></g><g><path d="m277.257 354.913c-1.284 0-2.587-.292-3.813-.909-4.193-2.109-5.883-7.219-3.773-11.413 14.396-28.62 43.094-46.658 74.895-47.073 32.838-.446 62.41 17.543 77.165 46.903 2.108 4.195.417 9.304-3.778 11.412-4.195 2.109-9.304.416-11.412-3.778-11.671-23.223-34.921-37.545-60.833-37.545-.307 0-.613.002-.92.006-25.433.332-48.396 14.783-59.931 37.713-1.492 2.97-4.489 4.684-7.6 4.684z" fill="#961e0f"/></g><g><path d="m310.185 360.343c-2.879 0-5.687-1.463-7.284-4.107-2.427-4.019-1.137-9.244 2.881-11.67 42.875-25.896 78.675-2.502 80.178-1.494 3.898 2.616 4.938 7.896 2.322 11.794-2.609 3.886-7.868 4.933-11.763 2.343-1.229-.805-28.626-18.219-61.948 1.908-1.375.831-2.89 1.226-4.386 1.226z" fill="#d80a61"/></g></g><g><path d="m188.662 0h-106.11l34.757 25.036c7.511 5.41 13.318 12.527 17.123 20.553 1.899 4.005 6.112 6.147 10.525 5.733.244-.023.491-.035.739-.035 6.08 0 11.009 6.948 11.009 15.518s-4.929 15.518-11.009 15.518c-.223 0-.445-.009-.665-.028-3.876-.326-7.384 2.387-7.561 6.273-.9 19.765 7.601 35.445 20.912 45.563l19.901 15.128.329-7.544c4.515-53.093 37.288-103.909 37.288-103.909 6.206-18.596-7.634-37.806-27.238-37.806zm.541 45.067c-7.199 3.816-17.352-1.237-22.678-11.285s-3.808-21.287 3.391-25.103 17.352 1.237 22.678 11.285 3.808 21.287-3.391 25.103z" fill="#eab14d"/></g></g></svg>