<svg id="Layer_1" enable-background="new 0 0 511 511" height="512" viewBox="0 0 511 511" width="512" xmlns="http://www.w3.org/2000/svg"><g><g><path d="m475.866 315.324c.223-.862.439-1.731.652-2.6-.211.869-.432 1.734-.652 2.6z" fill="#afe6ff"/><path d="m241.68 13.82c-93.005 0-150.291 52.456-150.449 52.545-3.589 16.568-9.832 40.612-9.832 58.255 0 133.476 112.559 241.653 246.035 241.653 56.882 0 109.144-26.484 150.428-59.367.168-1.03 5.497-22.25 5.497-51.405 0-133.477-108.203-241.681-241.679-241.681z" fill="#dd6938"/><path d="m477.862 306.905c-41.284 32.883-93.567 52.545-150.449 52.545-133.476 0-241.68-108.204-241.68-241.68 0-17.643 1.908-34.837 5.497-51.405-.006.004-.011.009-.016.013-55.581 44.28-91.214 112.535-91.214 189.122 0 133.476 108.204 241.68 241.68 241.68 112.824 0 207.562-77.321 234.186-181.856.22-.866.441-1.731.652-2.6.1-.414 1.012-4.287 1.344-5.819z" fill="#d80a61"/></g><g><g><path d="m511 255.5c0 54.831-20.346 104.91-53.9 143.099-39.751 45.242-98.039 62.43-162.996 62.43-119.789 0-206.122-89.585-206.122-209.373 0-91.122 45.416-165.275 125.038-197.388 25.049-10.103 52.417-15.664 81.084-15.664 119.788 0 216.896 97.107 216.896 216.896z" fill="#9bd069"/><g><path d="m399.009 122.204c-2.32 0-4.666-.645-6.761-1.995-3.323-2.142-6.768-4.191-10.236-6.091-6.056-3.315-8.276-10.912-4.961-16.967 3.315-6.056 10.914-8.275 16.967-4.96 3.991 2.185 7.952 4.542 11.775 7.006 5.803 3.74 7.475 11.477 3.734 17.279-2.39 3.706-6.413 5.728-10.518 5.728z" fill="#92cc5a"/></g><g><path d="m349.403 98.497c-1.284 0-2.589-.199-3.876-.619-16.543-5.393-33.844-8.127-51.423-8.127-12.889 0-25.721 1.482-38.141 4.407-6.724 1.578-13.45-2.583-15.032-9.303s2.583-13.45 9.303-15.032c14.295-3.365 29.055-5.072 43.87-5.072 20.215 0 40.123 3.149 59.171 9.359 6.564 2.14 10.15 9.195 8.011 15.759-1.721 5.275-6.619 8.627-11.883 8.628z" fill="#92cc5a"/></g><path d="m376.012 414.268c-119.789 0-216.896-97.108-216.896-216.896 0-54.831 20.356-104.902 53.91-143.091-79.622 32.113-135.819 110.098-135.819 201.219 0 119.789 97.108 216.896 216.896 216.896 64.957 0 123.236-28.563 162.987-73.806-25.049 10.104-52.411 15.678-81.078 15.678z" fill="#6ec186"/></g><g><ellipse cx="280.956" cy="221.644" fill="#6ec186" rx="26.422" ry="31.778"/><circle cx="280.826" cy="213.643" fill="#783c28" r="23.778"/></g><g><ellipse cx="389.213" cy="221.644" fill="#6ec186" rx="26.357" ry="31.778"/><circle cx="388.97" cy="213.643" fill="#783c28" r="23.778"/></g><path d="m333.654 342.791c21.893-.286 42.263 6.159 59.177 17.394 6.348 4.217 14.078-2.844 10.656-9.654-12.728-25.328-39.089-42.618-69.459-42.221-29.452.385-54.957 17.63-67.413 42.393-3.431 6.82 4.388 13.801 10.74 9.566 16.191-10.794 35.528-17.206 56.299-17.478z" fill="#783c28"/><g><path d="m217.342 190.58c-4.76 0-9.264-.706-13.355-2.138-3.127-1.095-4.775-4.518-3.681-7.646 1.095-3.127 4.519-4.775 7.646-3.681 17.739 6.208 49.561-7.725 62.468-34.342 1.445-2.983 5.036-4.225 8.017-2.781 2.981 1.446 4.227 5.035 2.78 8.017-7.135 14.715-19.543 27.141-34.937 34.986-9.827 5.008-19.846 7.585-28.938 7.585z" fill="#6ec186"/></g><g><path d="m447.456 190.58c-9.093 0-19.11-2.576-28.938-7.584-15.394-7.846-27.802-20.271-34.937-34.986-1.446-2.981-.201-6.571 2.78-8.017 2.981-1.443 6.572-.202 8.017 2.781 12.907 26.618 44.729 40.553 62.468 34.342 3.132-1.093 6.551.554 7.646 3.681 1.095 3.128-.553 6.551-3.681 7.646-4.09 1.431-8.596 2.137-13.355 2.137z" fill="#6ec186"/></g></g></g></svg>