<svg id="Layer_1" enable-background="new 0 0 511 511" height="512" viewBox="0 0 511 511" width="512" xmlns="http://www.w3.org/2000/svg"><g><g><g><path d="m481.683 316.055c.226-.873.444-1.752.66-2.632-.213.88-.437 1.756-.66 2.632z" fill="#afe6ff"/></g><g><path d="m244.634 10.866c-94.142 0-152.128 53.097-152.288 53.187-3.633 16.771-9.952 41.108-9.952 58.967 0 135.108 113.935 244.607 249.043 244.607 57.577 0 110.478-26.808 152.267-60.093.17-1.042 5.565-22.522 5.565-52.034-.001-135.108-109.527-244.634-244.635-244.634z" fill="#6ec186"/></g><g><path d="m483.703 307.534c-41.789 33.285-94.711 53.187-152.288 53.187-135.108 0-244.634-109.527-244.634-244.634 0-17.858 1.931-35.263 5.565-52.034-.006.004-.011.009-.017.014-56.26 44.82-92.329 113.91-92.329 191.433 0 135.108 109.526 244.634 244.634 244.634 114.203 0 210.099-78.266 237.049-184.079.223-.876.447-1.752.66-2.632.102-.418 1.024-4.338 1.36-5.889z" fill="#61aab7"/></g></g><g><g><g><path d="m511 255.5c0 54.831-20.346 104.91-53.9 143.099-39.751 45.242-98.039 62.43-162.996 62.43-119.789 0-206.122-89.585-206.122-209.373 0-91.122 45.416-165.275 125.038-197.388 25.049-10.103 52.417-15.664 81.084-15.664 119.788 0 216.896 97.107 216.896 216.896z" fill="#f1d333"/></g><g><path d="m399.009 122.204c-2.319 0-4.665-.645-6.76-1.994-3.329-2.146-6.774-4.196-10.237-6.092-6.056-3.315-8.276-10.912-4.961-16.967 3.317-6.056 10.915-8.275 16.967-4.96 3.984 2.181 7.945 4.539 11.774 7.005 5.803 3.74 7.476 11.476 3.735 17.278-2.389 3.708-6.411 5.73-10.518 5.73z" fill="#f9ef63"/></g><g><path d="m349.403 98.497c-1.284 0-2.589-.199-3.876-.619-16.544-5.393-33.845-8.128-51.423-8.128-12.888 0-25.721 1.482-38.142 4.407-6.721 1.582-13.45-2.583-15.031-9.303-1.582-6.72 2.583-13.45 9.303-15.032 14.296-3.365 29.057-5.072 43.87-5.072 20.214 0 40.122 3.149 59.171 9.359 6.564 2.14 10.15 9.195 8.011 15.759-1.721 5.276-6.619 8.628-11.883 8.629z" fill="#f9ef63"/></g><g><path d="m376.012 414.268c-119.789 0-216.896-97.108-216.896-216.896 0-54.831 20.356-104.902 53.91-143.091-79.622 32.113-135.819 110.098-135.819 201.219 0 119.789 97.108 216.896 216.896 216.896 64.957 0 123.236-28.563 162.987-73.806-25.049 10.104-52.411 15.678-81.078 15.678z" fill="#eab14d"/></g></g><g><path d="m400.203 248.277c-13.574 0-27.148-5.167-37.482-15.5-2.929-2.929-2.929-7.678 0-10.606 2.93-2.929 7.678-2.929 10.607 0 14.819 14.819 38.932 14.817 53.749 0 2.93-2.929 7.678-2.929 10.607 0s2.929 7.678 0 10.606c-10.334 10.334-23.908 15.5-37.481 15.5z" fill="#783c28"/></g><g><path d="m261.296 248.277c-13.576 0-27.147-5.166-37.482-15.5-2.929-2.929-2.929-7.678 0-10.606 2.93-2.929 7.678-2.929 10.607 0 14.817 14.817 38.93 14.819 53.751 0 2.929-2.93 7.678-2.929 10.606 0 2.929 2.929 2.929 7.678-.001 10.606-10.331 10.332-23.908 15.5-37.481 15.5z" fill="#783c28"/></g><g><path d="m198.039 213.496c-1.06 0-2.133-.281-3.104-.87-2.834-1.718-3.738-5.408-2.021-8.242 25.152-41.486 66.188-37.521 67.926-37.332 3.294.359 5.673 3.321 5.314 6.615-.358 3.288-3.323 5.656-6.594 5.317-1.451-.146-35.304-3.148-56.385 31.621-1.128 1.862-3.107 2.891-5.136 2.891z" fill="#eab14d"/></g><g><path d="m460.458 213.496c-2.029 0-4.008-1.029-5.137-2.891-21.083-34.775-54.951-31.763-56.386-31.621-3.288.332-6.238-2.053-6.584-5.34s2.021-6.233 5.306-6.592c1.739-.188 42.773-4.156 67.926 37.332 1.718 2.834.813 6.523-2.021 8.242-.971.59-2.044.87-3.104.87z" fill="#eab14d"/></g><g><path d="m382.255 325.029h-88.78c-5.247 0-9.5-4.253-9.5-9.5s4.253-9.5 9.5-9.5h88.78c5.247 0 9.5 4.253 9.5 9.5s-4.253 9.5-9.5 9.5z" fill="#783c28"/></g></g></g></svg>