<svg id="Layer_1" enable-background="new 0 0 510 510" height="512" viewBox="0 0 510 510" width="512" xmlns="http://www.w3.org/2000/svg"><g><g><g><path d="m502.093 318.121c.236-.91.463-1.826.688-2.743-.222.917-.455 1.83-.688 2.743z" fill="#afe6ff"/></g><path d="m255 0c-83.682 0-139.958 40.249-154.819 52.159l-14.296 64.747c0 140.833 118.763 254.972 259.596 254.972 60.017 0 115.159-27.944 158.719-62.639.177-1.087 5.8-23.477 5.8-54.239 0-140.833-114.167-255-255-255z" fill="#9bd069"/><path d="m345.459 364.679c-140.833 0-255-114.167-255-255l-55.314 16.073c-22.333 37.898-35.145 82.075-35.145 129.248 0 140.833 114.167 255 255 255 119.042 0 219.002-81.583 247.094-191.879.233-.913.466-1.826.688-2.743.106-.436 1.068-4.522 1.418-6.139-43.56 34.695-98.724 55.44-158.741 55.44z" fill="#6ec186"/></g><g><path d="m96.242 55.455c-24.41 19.446-45.155 43.287-61.079 70.308.746 5.452 1.998 11.053 3.823 16.799 14.512 45.686 65.367 94.547 112.667 90.574v-132.488c-21.68-10.589-39.631-27.431-51.473-48.489-2.56 2.052-3.898 3.267-3.922 3.281-.005.005-.01.01-.016.015z" fill="#8659b9"/><g><path d="m384.656 100.648c29.253-14.289 51.73-39.952 61.547-72.01 1.057-3.453 5.255-4.773 8.049-2.487 28.73 23.506 59.723 63.99 43.071 116.41-14.512 45.686-65.367 94.547-112.668 90.574v-132.487z" fill="#c14098"/></g><g><path d="m466.337 144.214c-12.976-18.738-17.648-42.158-12.174-64.283 4.258-17.21 4.653-35.342.853-53.148-.255-.211-.51-.423-.764-.632-2.795-2.287-6.992-.966-8.049 2.487-9.817 32.058-32.294 57.722-61.547 72.01v132.487c37.72 3.168 77.701-27.263 99.708-62.89z" fill="#8659b9"/></g><path d="m93.916 151.648c-11.198-13.707-19.898-29.051-24.666-44.06-2.46-7.745-3.878-15.229-4.419-22.437-11.165 12.49-21.109 26.088-29.664 40.606.746 5.454 1.993 11.057 3.819 16.806 11.261 35.453 44.41 72.811 80.798 85.914-12.478-23.656-21.343-49.508-25.868-76.829z" fill="#634086"/><g><g><path d="m487.593 268.092c0 54.831-20.346 104.91-53.9 143.099-39.751 45.242-98.039 62.43-162.997 62.43-119.789 0-206.122-89.585-206.122-209.373 0-91.122 45.416-165.275 125.038-197.388 25.049-10.103 52.417-15.664 81.084-15.664 119.789-.001 216.897 97.107 216.897 216.896z" fill="#c14098"/></g><g><path d="m375.602 134.795c-2.319 0-4.665-.645-6.76-1.994-3.325-2.143-6.77-4.193-10.239-6.093-6.055-3.316-8.274-10.913-4.959-16.968 3.317-6.056 10.914-8.275 16.969-4.959 3.988 2.185 7.949 4.542 11.772 7.005 5.803 3.74 7.476 11.476 3.735 17.278-2.389 3.709-6.412 5.731-10.518 5.731z" fill="#9898f4"/></g><g><path d="m325.996 111.088c-1.284 0-2.589-.199-3.876-.619-16.545-5.393-33.846-8.128-51.424-8.128-12.889 0-25.721 1.482-38.141 4.407-6.72 1.58-13.449-2.583-15.031-9.303s2.582-13.45 9.303-15.032c14.294-3.365 29.054-5.072 43.869-5.072 20.213 0 40.122 3.149 59.172 9.359 6.563 2.14 10.15 9.195 8.011 15.759-1.721 5.277-6.619 8.629-11.883 8.629z" fill="#9898f4"/></g><g><path d="m352.604 426.86c-119.789 0-216.896-97.108-216.896-216.896 0-54.831 20.356-104.902 53.91-143.091-79.621 32.113-135.818 110.097-135.818 201.218 0 119.789 97.108 216.896 216.896 216.896 64.957 0 123.236-28.563 162.987-73.806-25.049 10.105-52.411 15.679-81.079 15.679z" fill="#8659b9"/></g></g><g><g><ellipse cx="264.313" cy="218.625" fill="#8659b9" rx="26.422" ry="31.778"/></g><g><circle cx="264.183" cy="210.624" fill="#41378c" r="23.778"/></g></g><g><g><ellipse cx="401.572" cy="218.625" fill="#8659b9" rx="26.357" ry="31.778"/></g><g><circle cx="401.329" cy="210.624" fill="#41378c" r="23.778"/></g></g><g><path d="m298.418 193.808c-1.349 0-2.717-.322-3.99-1l-66.687-35.542c-4.143-2.208-5.711-7.356-3.503-11.499 2.208-4.142 7.354-5.712 11.499-3.503l66.687 35.542c4.143 2.208 5.711 7.356 3.503 11.499-1.529 2.869-4.47 4.503-7.509 4.503z" fill="#8659b9"/></g><g><path d="m364.755 193.808c-3.04 0-5.979-1.634-7.509-4.503-2.208-4.143-.64-9.291 3.503-11.499l66.688-35.542c4.146-2.209 9.292-.639 11.499 3.503 2.208 4.143.64 9.291-3.503 11.499l-66.688 35.542c-1.273.678-2.641 1-3.99 1z" fill="#8659b9"/></g><g><path d="m331.325 185.307c-4.694 0-8.5-3.806-8.5-8.5v-27.043c0-4.694 3.806-8.5 8.5-8.5s8.5 3.806 8.5 8.5v27.043c0 4.695-3.806 8.5-8.5 8.5z" fill="#8659b9"/></g><g><path d="m262.882 344.519c-1.284 0-2.587-.292-3.812-.909-4.194-2.109-5.884-7.219-3.774-11.413 14.396-28.62 43.095-46.658 74.895-47.073.383-.005.769-.008 1.15-.008 32.384 0 61.434 17.893 76.016 46.912 2.108 4.194.416 9.303-3.778 11.411-4.194 2.11-9.303.417-11.411-3.778-11.808-23.498-35.434-37.908-61.754-37.539-25.433.332-48.396 14.783-59.93 37.713-1.494 2.97-4.491 4.684-7.602 4.684z" fill="#41378c"/></g><g><path d="m295.809 349.949c-2.879 0-5.687-1.463-7.284-4.107-2.427-4.019-1.137-9.244 2.882-11.67 42.873-25.896 78.676-2.502 80.179-1.494 3.897 2.615 4.938 7.896 2.322 11.794-2.61 3.889-7.868 4.934-11.766 2.342-1.264-.826-28.646-18.201-61.946 1.91-1.374.829-2.891 1.224-4.387 1.225z" fill="#8659b9"/></g></g></g></svg>