<svg id="Layer_1" enable-background="new 0 0 511 511" height="512" viewBox="0 0 511 511" width="512" xmlns="http://www.w3.org/2000/svg"><g><g><g><path d="m478.324 315.633c.225-.867.441-1.74.656-2.614-.212.874-.434 1.744-.656 2.614z" fill="#afe6ff"/></g><g><path d="m242.928 12.572c-93.485 0-151.068 52.727-151.226 52.816-3.608 16.654-9.883 40.822-9.883 58.556 0 134.166 113.141 242.902 247.307 242.902 57.176 0 109.708-26.621 151.205-59.674.169-1.035 5.526-22.365 5.526-51.671 0-134.167-108.763-242.929-242.929-242.929z" fill="#afe6ff"/></g><g><path d="m480.331 307.171c-41.497 33.053-94.05 52.816-151.226 52.816-134.166 0-242.928-108.763-242.928-242.928 0-17.734 1.918-35.017 5.526-51.671-.006.004-.011.009-.017.013-55.869 44.509-91.686 113.117-91.686 190.099 0 134.166 108.763 242.928 242.928 242.928 113.407 0 208.634-77.72 235.396-182.796.222-.87.444-1.74.656-2.614.101-.414 1.017-4.307 1.351-5.847z" fill="#9dc6fb"/></g></g><g><g><g><path d="m511 255.5c0 54.831-20.346 104.91-53.9 143.099-39.751 45.242-98.039 62.43-162.996 62.43-119.789 0-206.122-89.585-206.122-209.373 0-91.122 45.416-165.275 125.038-197.388 25.049-10.103 52.417-15.664 81.084-15.664 119.788 0 216.896 97.107 216.896 216.896z" fill="#f1d333"/></g><g><path d="m399.009 122.204c-2.319 0-4.666-.646-6.76-1.995-3.324-2.143-6.769-4.192-10.238-6.092-6.055-3.316-8.276-10.913-4.96-16.968 3.315-6.055 10.912-8.274 16.968-4.96 3.99 2.185 7.951 4.542 11.774 7.006 5.803 3.74 7.475 11.476 3.735 17.278-2.391 3.709-6.413 5.731-10.519 5.731z" fill="#f9ef63"/></g><g><path d="m349.403 98.496c-1.284.001-2.589-.199-3.876-.618-16.544-5.394-33.846-8.128-51.423-8.128-12.889 0-25.721 1.482-38.141 4.406-6.725 1.588-13.45-2.583-15.032-9.303s2.583-13.449 9.303-15.031c14.295-3.366 29.055-5.072 43.87-5.072 20.213 0 40.121 3.148 59.171 9.358 6.563 2.14 10.15 9.195 8.01 15.759-1.72 5.276-6.618 8.629-11.882 8.629z" fill="#f9ef63"/></g><g><path d="m376.012 414.268c-119.789 0-216.896-97.108-216.896-216.896 0-54.831 20.356-104.902 53.91-143.091-79.622 32.113-135.819 110.098-135.819 201.219 0 119.789 97.108 216.896 216.896 216.896 64.957 0 123.236-28.563 162.987-73.806-25.049 10.104-52.411 15.678-81.078 15.678z" fill="#eab14d"/></g></g><g><path d="m340.627 375.232c-5.611 0-11.226-.795-16.695-2.421-18.642-5.542-34.58-20.194-43.727-40.199-2.182-4.771-.082-10.408 4.689-12.59s10.408-.083 12.59 4.689c6.865 15.015 18.479 25.908 31.861 29.887 13.28 3.948 27.974.626 39.306-8.887 6.416-5.386 11.825-12.647 15.643-20.999 2.182-4.773 7.819-6.875 12.59-4.69 4.771 2.181 6.872 7.817 4.69 12.589-4.983 10.902-12.144 20.464-20.708 27.653-11.66 9.79-25.93 14.968-40.239 14.968z" fill="#783c28"/></g><g><path d="m409.843 248.03c-13.576 0-27.146-5.166-37.481-15.5-2.929-2.93-2.929-7.678 0-10.607 2.929-2.928 7.678-2.928 10.606 0 14.819 14.82 38.931 14.82 53.75 0 2.929-2.929 7.678-2.927 10.606 0 2.929 2.93 2.929 7.678 0 10.607-10.332 10.332-23.909 15.5-37.481 15.5z" fill="#783c28"/></g><g><path d="m270.937 248.03c-13.574 0-27.148-5.167-37.482-15.5-2.929-2.93-2.929-7.678 0-10.607 2.929-2.928 7.678-2.928 10.606 0 14.82 14.821 38.932 14.821 53.75 0 2.929-2.928 7.678-2.928 10.606 0 2.929 2.93 2.929 7.678 0 10.607-10.332 10.333-23.906 15.5-37.48 15.5z" fill="#783c28"/></g><g><path d="m207.68 213.249c-1.06 0-2.132-.281-3.104-.87-2.834-1.718-3.738-5.408-2.021-8.241 25.152-41.485 66.193-37.521 67.926-37.332 3.294.359 5.673 3.321 5.314 6.615-.358 3.289-3.314 5.661-6.599 5.316-1.507-.155-35.32-3.115-56.38 31.621-1.127 1.861-3.107 2.891-5.136 2.891z" fill="#eab14d"/></g><g><path d="m470.099 213.249c-2.029 0-4.008-1.029-5.137-2.891-21.086-34.78-54.957-31.765-56.385-31.621-3.292.344-6.238-2.053-6.584-5.34s2.02-6.233 5.305-6.592c1.734-.188 42.774-4.154 67.926 37.332 1.718 2.833.813 6.523-2.021 8.241-.971.59-2.044.871-3.104.871z" fill="#eab14d"/></g></g></g></svg>