<svg id="Layer_1" enable-background="new 0 0 511 511" height="512" viewBox="0 0 511 511" width="512" xmlns="http://www.w3.org/2000/svg"><g><g><g><path d="m483.273 316.255c.227-.876.445-1.758.663-2.641-.215.883-.439 1.762-.663 2.641z" fill="#afe6ff"/></g><g><path d="m245.442 10.058c-94.452 0-152.63 53.273-152.791 53.363-3.645 16.826-9.985 41.244-9.985 59.161 0 135.554 114.312 245.415 249.865 245.415 57.767 0 110.843-26.896 152.769-60.292.171-1.046 5.583-22.597 5.583-52.205 0-135.554-109.888-245.442-245.441-245.442z" fill="#c14098"/></g><g><path d="m485.3 307.705c-41.926 33.395-95.023 53.363-152.791 53.363-135.554 0-245.442-109.888-245.442-245.442 0-17.917 1.938-35.38 5.583-52.205-.006.004-.011.009-.017.014-56.445 44.968-92.633 114.286-92.633 192.065 0 135.554 109.888 245.442 245.442 245.442 114.58 0 210.793-78.524 237.831-184.687.224-.879.448-1.758.663-2.641.101-.419 1.027-4.353 1.364-5.909z" fill="#8659b9"/></g></g><g><g><g><path d="m511 255.5c0 54.831-20.346 104.91-53.9 143.099-39.751 45.242-98.039 62.43-162.996 62.43-119.789 0-206.122-89.585-206.122-209.373 0-91.122 45.416-165.275 125.038-197.388 25.049-10.103 52.417-15.664 81.084-15.664 119.788 0 216.896 97.107 216.896 216.896z" fill="#f1d333"/></g><g><path d="m399.009 122.204c-2.319 0-4.666-.646-6.76-1.995-3.322-2.142-6.767-4.191-10.238-6.092-6.055-3.316-8.276-10.913-4.96-16.968 3.315-6.055 10.911-8.275 16.968-4.96 3.992 2.187 7.953 4.543 11.774 7.006 5.803 3.74 7.475 11.476 3.735 17.278-2.39 3.71-6.412 5.731-10.519 5.731z" fill="#f9ef63"/></g><g><path d="m349.403 98.496c-1.284 0-2.59-.199-3.877-.619-16.541-5.393-33.841-8.127-51.422-8.127-12.889 0-25.722 1.482-38.141 4.406-6.72 1.586-13.45-2.583-15.032-9.303s2.583-13.449 9.303-15.031c14.294-3.366 29.054-5.072 43.87-5.072 20.216 0 40.125 3.148 59.172 9.359 6.563 2.14 10.149 9.195 8.009 15.759-1.72 5.277-6.618 8.628-11.882 8.628z" fill="#f9ef63"/></g><g><path d="m376.012 414.268c-119.789 0-216.896-97.108-216.896-216.896 0-54.831 20.356-104.902 53.91-143.091-79.622 32.113-135.819 110.098-135.819 201.219 0 119.789 97.108 216.896 216.896 216.896 64.957 0 123.236-28.563 162.987-73.806-25.049 10.104-52.411 15.678-81.078 15.678z" fill="#eab14d"/></g></g><g><path d="m316.057 245.326c-5.247 0-9.5-4.253-9.5-9.5 0-29.883-13.65-56.097-29.211-56.097s-29.211 26.214-29.211 56.097c0 5.247-4.253 9.5-9.5 9.5s-9.5-4.253-9.5-9.5c0-42.11 21.177-75.097 48.211-75.097s48.211 32.986 48.211 75.097c0 5.247-4.254 9.5-9.5 9.5z" fill="#783c28"/></g><g><path d="m388.989 392.017c-31.06-12.677-65.998-12.677-97.058 0-20.825 8.5-44.746 2.481-58.81-15.073-.213-.265-.425-.531-.638-.796-21.06-26.287-11.013-65.47 20.126-78.309 56.184-23.165 119.518-23.165 175.701 0 31.139 12.839 41.186 52.022 20.126 78.309-.213.265-.425.531-.638.796-14.063 17.553-37.983 23.572-58.809 15.073z" fill="#eab14d"/></g><g><path d="m438.492 247.139c-5.247 0-9.5-4.253-9.5-9.5 0-29.883-13.65-56.097-29.211-56.097s-29.211 26.214-29.211 56.097c0 5.247-4.253 9.5-9.5 9.5s-9.5-4.253-9.5-9.5c0-42.11 21.177-75.097 48.211-75.097s48.211 32.986 48.211 75.097c0 5.247-4.253 9.5-9.5 9.5z" fill="#783c28"/></g><g><path d="m428.744 286.127c-29.587-12.27-61.169-18.1-92.654-17.5-.165.003-.331.006-.496.01-27.142.576-48.742 22.982-48.742 50.13v52.922h36.252c.215 0 .418.018.625.031 22.095-2.895 44.787-.039 65.7 8.587 20.627 8.508 44.415 2.157 58.37-15.253.221-.276.443-.553.664-.829 20.943-26.141 11.221-65.267-19.719-78.098z" fill="#fff"/></g><g><g><path d="m300.825 353.568c-.213-.266-.425-.531-.638-.796-21.06-26.287-11.013-65.47 20.126-78.309 5.201-2.144 10.464-4.088 15.776-5.835-28.418.537-56.758 6.303-83.48 17.321-31.139 12.839-41.185 52.022-20.126 78.309.213.265.425.531.638.796 14.064 17.554 37.984 23.573 58.81 15.073 11.888-4.852 24.345-7.84 36.934-8.978-10.793-2.481-20.744-8.474-28.04-17.581z" fill="#ffebb4"/></g></g><g><path d="m225.495 352.639c1.497 3.458 3.411 6.809 5.763 9.992 3.353-6.687 8.276-12.389 14.398-16.674v30.261c3.16 1.981 6.515 3.592 10 4.821v-40.391c10.324-4.191 20.867-7.592 31.588-10.196v51.32c1.575-.472 3.14-1.013 4.686-1.645 1.759-.718 3.532-1.389 5.314-2.026v-49.842c12.337-2.403 24.886-3.772 37.585-4.083v46.572c3.332-.146 6.667-.158 10-.045v-46.544c12.697.241 25.246 1.537 37.585 3.867v49.634c2.208.763 4.401 1.581 6.573 2.467 1.133.463 2.277.874 3.427 1.251v-51.224c10.719 2.537 21.263 5.871 31.589 9.992v41.316c3.472-1.123 6.828-2.616 10-4.476v-31.878c6.708 4.368 12.074 10.388 15.653 17.527 2.355-3.187 4.272-6.542 5.77-10.004-5.276-8.051-12.598-14.608-21.423-19.027v-44.887c-1.811-1.023-3.709-1.951-5.694-2.77-1.43-.59-2.867-1.154-4.306-1.713v45.173c-10.341-3.928-20.882-7.109-31.589-9.529v-45.372c-3.321-.767-6.655-1.457-10-2.075v45.424c-12.35-2.229-24.897-3.467-37.585-3.697v-45.531c-3.333-.063-6.667-.065-10 .016v45.531c-12.691.297-25.237 1.616-37.585 3.915v-45.425c-3.346.637-6.679 1.353-10 2.14v45.373c-10.707 2.483-21.251 5.715-31.588 9.71v-45.15c-1.016.402-2.035.795-3.047 1.212-2.456 1.012-4.764 2.206-6.953 3.527v44.781c-8.264 4.4-15.137 10.715-20.161 18.382z" fill="#afe6ff"/></g></g></g></svg>