<svg id="Layer_1" enable-background="new 0 0 511 511" height="512" viewBox="0 0 511 511" width="512" xmlns="http://www.w3.org/2000/svg"><g><g><g><path d="m483.344 316.264c.227-.876.445-1.758.663-2.641-.215.883-.439 1.762-.663 2.641z" fill="#afe6ff"/></g><g><path d="m245.478 10.022c-94.466 0-152.653 53.28-152.813 53.37-3.646 16.828-9.987 41.25-9.987 59.17 0 135.574 114.328 245.451 249.902 245.451 57.776 0 110.859-26.9 152.792-60.3.171-1.046 5.584-22.6 5.584-52.213 0-135.574-109.905-245.478-245.478-245.478z" fill="#6ec186"/></g><g><path d="m485.372 307.713c-41.933 33.4-95.037 53.37-152.813 53.37-135.574 0-245.478-109.904-245.478-245.478 0-17.92 1.938-35.385 5.584-52.213-.006.004-.011.009-.017.014-56.455 44.976-92.648 114.304-92.648 192.094 0 135.574 109.904 245.478 245.478 245.478 114.597 0 210.824-78.536 237.866-184.714.224-.879.448-1.758.663-2.641.102-.42 1.027-4.354 1.365-5.91z" fill="#61aab7"/></g></g><g><g><g><path d="m511 255.5c0 54.831-20.346 104.91-53.9 143.099-39.751 45.242-98.039 62.43-162.996 62.43-119.789 0-206.122-89.585-206.122-209.373 0-91.122 45.416-165.275 125.038-197.388 25.049-10.103 52.417-15.664 81.084-15.664 119.788 0 216.896 97.107 216.896 216.896z" fill="#f1d333"/></g><g><path d="m399.009 122.205c-2.319 0-4.665-.645-6.76-1.995-3.334-2.148-6.778-4.198-10.236-6.091-6.056-3.315-8.277-10.911-4.963-16.967 3.316-6.056 10.912-8.276 16.967-4.963 3.979 2.179 7.941 4.536 11.775 7.007 5.803 3.739 7.476 11.475 3.735 17.278-2.389 3.708-6.411 5.731-10.518 5.731z" fill="#f9ef63"/></g><g><path d="m349.402 98.497c-1.284 0-2.59-.199-3.877-.618-16.543-5.395-33.844-8.129-51.422-8.129-12.885 0-25.718 1.482-38.142 4.407-6.723 1.579-13.45-2.584-15.031-9.305-1.582-6.72 2.584-13.449 9.304-15.031 14.299-3.365 29.059-5.071 43.869-5.071 20.215 0 40.123 3.149 59.172 9.359 6.563 2.141 10.149 9.196 8.009 15.76-1.72 5.276-6.617 8.628-11.882 8.628z" fill="#f9ef63"/></g><g><path d="m376.012 414.268c-119.789 0-216.896-97.108-216.896-216.896 0-54.831 20.356-104.902 53.91-143.091-79.622 32.113-135.819 110.098-135.819 201.219 0 119.789 97.108 216.896 216.896 216.896 64.957 0 123.236-28.563 162.987-73.806-25.049 10.104-52.411 15.678-81.078 15.678z" fill="#eab14d"/></g></g><g><g><ellipse cx="264.922" cy="208.499" fill="#eab14d" rx="48.404" ry="54.419"/></g><g><circle cx="264.779" cy="199.765" fill="#fff" r="45.684"/></g><g><circle cx="265.399" cy="200.276" fill="#783c28" r="15.183"/></g><g><circle cx="273.174" cy="187.506" fill="#fff" r="7.775"/></g></g><g><g><ellipse cx="404.665" cy="208.499" fill="#eab14d" rx="48.404" ry="54.419"/></g><g><circle cx="404.522" cy="199.765" fill="#fff" r="45.684"/></g><g><circle cx="404.481" cy="200.317" fill="#783c28" r="15.183"/></g><g><circle cx="412.256" cy="187.548" fill="#fff" r="7.775"/></g></g><g><path d="m457.019 331.009h-236.809c-5.523 0-10-4.478-10-10s4.477-10 10-10h236.81c5.522 0 10 4.478 10 10s-4.478 10-10.001 10z" fill="#783c28"/></g><g><path d="m361.566 368.392h-53.809c-4.694 0-8.5-3.806-8.5-8.5s3.806-8.5 8.5-8.5h53.809c4.694 0 8.5 3.806 8.5 8.5s-3.806 8.5-8.5 8.5z" fill="#eab14d"/></g></g></g></svg>