<svg id="Layer_1" enable-background="new 0 0 511 511" height="512" viewBox="0 0 511 511" width="512" xmlns="http://www.w3.org/2000/svg"><g><g><g><path d="m481.683 316.055c.226-.873.444-1.752.66-2.632-.213.88-.437 1.756-.66 2.632z" fill="#afe6ff"/></g><g><path d="m489.268 255.5c0-135.108-109.526-244.634-244.634-244.634-94.142 0-152.128 53.097-152.288 53.187-3.633 16.771-9.952 41.108-9.952 58.967 0 135.108 113.935 244.607 249.043 244.607 57.577 0 110.478-26.808 152.267-60.093.17-1.043 5.564-22.523 5.564-52.034z" fill="#dd6938"/></g><g><path d="m483.703 307.534c-41.789 33.285-94.711 53.187-152.288 53.187-135.108 0-244.634-109.527-244.634-244.634 0-17.858 1.931-35.263 5.565-52.034-.006.004-.011.009-.017.014-56.26 44.82-92.329 113.91-92.329 191.433 0 135.108 109.526 244.634 244.634 244.634 114.203 0 210.099-78.266 237.049-184.079.223-.876.447-1.752.66-2.632.102-.418 1.024-4.338 1.36-5.889z" fill="#d80a61"/></g></g><g><g><g><path d="m498.499 252.43c0 54.831-20.346 104.91-53.9 143.099-39.751 45.242-98.039 62.43-162.996 62.43-119.789 0-206.122-89.585-206.122-209.373 0-91.122 45.416-165.275 125.038-197.388 25.049-10.103 52.417-15.664 81.084-15.664 119.789 0 216.896 97.108 216.896 216.896z" fill="#f1d333"/></g><g><path d="m386.509 119.135c-2.32 0-4.666-.646-6.761-1.995-3.327-2.146-6.771-4.194-10.235-6.091-6.056-3.315-8.277-10.911-4.963-16.967 3.316-6.057 10.913-8.276 16.967-4.963 3.986 2.183 7.948 4.54 11.776 7.008 5.803 3.74 7.475 11.476 3.734 17.278-2.391 3.708-6.413 5.73-10.518 5.73z" fill="#f9ef63"/></g><g><path d="m336.902 95.427c-1.284 0-2.59-.199-3.877-.618-16.543-5.395-33.844-8.129-51.422-8.129-12.886 0-25.719 1.482-38.142 4.407-6.725 1.581-13.45-2.584-15.032-9.304-1.581-6.721 2.584-13.45 9.304-15.032 14.299-3.365 29.059-5.071 43.87-5.071 20.215 0 40.123 3.149 59.172 9.359 6.563 2.141 10.149 9.196 8.009 15.76-1.72 5.276-6.617 8.628-11.882 8.628z" fill="#f9ef63"/></g><g><path d="m363.511 411.198c-119.789 0-216.896-97.108-216.896-216.896 0-54.831 20.356-104.902 53.91-143.091-79.622 32.113-135.819 110.098-135.819 201.219 0 119.789 97.108 216.896 216.896 216.896 64.957 0 123.236-28.563 162.987-73.806-25.049 10.104-52.411 15.678-81.078 15.678z" fill="#eab14d"/></g></g><g><path d="m391.227 235.267c-14.159 0-27.471-5.514-37.482-15.526-2.929-2.929-2.929-7.678.001-10.606 2.928-2.929 7.677-2.928 10.606.001 7.179 7.179 16.723 11.132 26.875 11.132 10.151 0 19.696-3.953 26.875-11.133 2.93-2.928 7.678-2.928 10.607 0 2.929 2.93 2.929 7.678 0 10.607-10.012 10.011-23.324 15.525-37.482 15.525z" fill="#783c28"/></g><g><path d="m252.321 235.267c-14.159 0-27.471-5.514-37.482-15.526-2.929-2.929-2.929-7.678.001-10.606 2.929-2.929 7.678-2.928 10.606.001 7.179 7.179 16.723 11.132 26.875 11.132s19.696-3.953 26.875-11.132c2.93-2.93 7.679-2.929 10.606-.001 2.93 2.929 2.93 7.678.001 10.606-10.011 10.012-23.323 15.526-37.482 15.526z" fill="#783c28"/></g><g><path d="m189.064 200.461c-1.06 0-2.133-.281-3.104-.87-2.834-1.718-3.738-5.408-2.021-8.241 25.153-41.485 66.19-37.521 67.926-37.332 3.294.359 5.674 3.321 5.314 6.615-.358 3.289-3.3 5.665-6.599 5.316-1.507-.155-35.318-3.115-56.38 31.621-1.128 1.862-3.107 2.891-5.136 2.891z" fill="#eab14d"/></g><g><path d="m451.484 200.461c-2.029 0-4.008-1.029-5.137-2.891-21.087-34.78-54.956-31.765-56.387-31.621-3.291.346-6.237-2.053-6.584-5.34-.346-3.287 2.021-6.233 5.306-6.592 1.737-.19 42.775-4.152 67.927 37.332 1.718 2.833.813 6.523-2.021 8.241-.971.59-2.044.871-3.104.871z" fill="#eab14d"/></g><g><path d="m199.784 308.307c-1.936 0-3.898-.451-5.736-1.402l-133.568-69.152c-6.131-3.174-8.527-10.717-5.354-16.848 3.175-6.13 10.716-8.527 16.848-5.354l133.567 69.151c6.131 3.174 8.527 10.717 5.354 16.848-2.222 4.294-6.589 6.757-11.111 6.757z" fill="#fff"/></g><g><path d="m199.795 414.599h-85.211c-6.903 0-12.5-5.597-12.5-12.5s5.597-12.5 12.5-12.5h85.211c6.903 0 12.5 5.597 12.5 12.5s-5.597 12.5-12.5 12.5z" fill="#fff"/></g><g><path d="m457.571 405.047v-120.257c0-10.484-9.208-18.581-19.606-17.242-57.676 7.431-115.352 9.223-173.028 5.387l-5.061 77.94c-2.362 36.365 27.935 66.44 64.281 63.814z" fill="#fff"/></g><g><path d="m319.622 398.618c-29.153-3.901-50.91-28.801-50.91-58.214v-67.226c-19.661-1.224-39.322-3.096-58.982-5.629-10.401-1.34-19.614 6.754-19.614 17.241v125.046c0 8.359 5.953 15.507 14.16 17.093 79.711 15.405 159.422 15.405 239.133 0 8.207-1.586 14.16-8.734 14.16-17.093v-8.141c-45.981 4.097-91.964 3.075-137.947-3.077z" fill="#d2f0ff"/></g><g><path d="m191.379 311.226c-.424-.072-.845-.098-1.262-.098v15.094c48.624 8.234 95.45 12.355 140.167 12.355 44.63 0 87.157-4.108 127.287-12.309v-15.15c-.502.001-1.011.052-1.522.158-79.226 16.418-168.276 16.402-264.67-.05z" fill="#afe6ff"/></g><g><path d="m191.379 367.229c-.424-.072-.845-.098-1.262-.098v15.093c48.624 8.234 95.45 12.355 140.167 12.355 44.63 0 87.157-4.108 127.287-12.309v-15.15c-.502.001-1.011.052-1.522.158-79.226 16.419-168.276 16.405-264.67-.049z" fill="#afe6ff"/></g><g><path d="m445.358 308.304c-3.626 0-7.222-1.569-9.692-4.597-4.364-5.349-3.567-13.223 1.781-17.588l53.149-43.374c5.35-4.365 13.224-3.566 17.588 1.781 4.364 5.349 3.567 13.223-1.781 17.588l-53.149 43.374c-2.321 1.894-5.118 2.816-7.896 2.816z" fill="#fff"/></g></g></g></svg>