<svg id="Layer_1" enable-background="new 0 0 511 511" height="512" viewBox="0 0 511 511" width="512" xmlns="http://www.w3.org/2000/svg"><g><g><g><path d="m488.364 316.895c.229-.885.45-1.776.67-2.668-.217.892-.444 1.78-.67 2.668z" fill="#afe6ff"/></g><g><path d="m496.054 255.5c0-136.982-111.046-248.027-248.027-248.027-95.447 0-154.238 53.834-154.4 53.925-3.684 17.003-10.09 41.679-10.09 59.785 0 136.982 115.516 248 252.497 248 58.376 0 112.01-27.18 154.379-60.927.172-1.058 5.641-22.835 5.641-52.756z" fill="#9bd069"/></g><g><path d="m490.412 308.255c-42.368 33.747-96.024 53.925-154.4 53.925-136.982 0-248.027-111.046-248.027-248.027 0-18.106 1.958-35.752 5.642-52.755-.006.005-.011.009-.017.014-57.041 45.442-93.61 115.49-93.61 194.088 0 136.982 111.046 248.027 248.027 248.027 115.787 0 213.013-79.352 240.337-186.632.226-.888.453-1.776.67-2.668.102-.425 1.038-4.399 1.378-5.972z" fill="#6ec186"/></g></g><g><g><g><path d="m511 254.356c0 54.831-20.346 104.91-53.9 143.099-39.751 45.242-98.039 62.43-162.996 62.43-119.789 0-206.122-89.585-206.122-209.373 0-91.122 45.416-165.275 125.038-197.388 25.049-10.103 52.417-15.664 81.084-15.664 119.788 0 216.896 97.108 216.896 216.896z" fill="#f1d333"/></g><g><path d="m399.009 121.06c-2.32 0-4.666-.646-6.761-1.995-3.323-2.143-6.768-4.192-10.236-6.092-6.056-3.315-8.276-10.912-4.961-16.967 3.315-6.057 10.915-8.277 16.967-4.961 3.991 2.185 7.952 4.542 11.775 7.007 5.803 3.74 7.475 11.476 3.734 17.278-2.39 3.709-6.413 5.73-10.518 5.73z" fill="#f9ef63"/></g><g><path d="m349.402 97.352c-1.284.001-2.589-.199-3.876-.618-16.544-5.394-33.846-8.128-51.423-8.128-12.889 0-25.721 1.482-38.142 4.406-6.719 1.588-13.45-2.583-15.031-9.303-1.582-6.72 2.583-13.449 9.303-15.031 14.295-3.366 29.055-5.072 43.87-5.072 20.213 0 40.121 3.148 59.171 9.358 6.563 2.14 10.15 9.195 8.011 15.759-1.721 5.277-6.618 8.629-11.883 8.629z" fill="#f9ef63"/></g><g><path d="m376.012 413.124c-119.789 0-216.896-97.108-216.896-216.896 0-54.831 20.356-104.902 53.91-143.091-79.622 32.113-135.819 110.098-135.819 201.219 0 119.789 97.108 216.896 216.896 216.896 64.957 0 123.236-28.563 162.987-73.806-25.049 10.104-52.411 15.678-81.078 15.678z" fill="#eab14d"/></g></g><g><path d="m272.317 368.433c-5.404 0-9.078-5.537-6.929-10.495 13.634-31.463 44.963-53.475 81.437-53.475s67.803 22.012 81.437 53.475c2.149 4.958-1.526 10.495-6.929 10.495z" fill="#783c28"/></g><g><path d="m212.449 181.957c-1.2.001-2.412-.358-3.466-1.105-2.703-1.917-3.341-5.662-1.424-8.365 9.461-13.34 23.745-23.553 40.221-28.758 16.023-5.062 31.554-4.48 42.612 1.59 2.904 1.595 3.967 5.242 2.372 8.147-1.595 2.903-5.241 3.967-8.147 2.372-16.472-9.047-50.154-.541-67.269 23.59-1.169 1.649-3.02 2.529-4.899 2.529z" fill="#eab14d"/></g><g><path d="m466.52 181.957c-1.879.001-3.729-.88-4.899-2.529-17.113-24.13-50.794-32.634-67.269-23.59-2.906 1.595-6.554.531-8.147-2.372-1.595-2.905-.532-6.553 2.372-8.147 11.059-6.07 26.59-6.65 42.612-1.59 16.476 5.205 30.76 15.418 40.221 28.758 1.917 2.703 1.279 6.448-1.424 8.365-1.053.746-2.265 1.105-3.466 1.105z" fill="#eab14d"/></g><g><path d="m253.425 240.384c-2.287 0-4.558-.976-6.14-2.866-2.835-3.389-2.387-8.435 1.002-11.27 10.183-8.519 23.11-13.21 36.402-13.21 1.576 0 3.143.063 4.698.191-7.562-9.813-19.421-15.952-32.336-15.952-5.893 0-11.593 1.241-16.941 3.688-4.016 1.841-8.765.072-10.603-3.946-1.839-4.018-.071-8.765 3.946-10.603 7.452-3.41 15.392-5.139 23.598-5.139 25.449 0 47.952 17.123 54.725 41.64.82 2.969-.137 6.146-2.462 8.167-2.325 2.022-5.605 2.525-8.43 1.304-5.129-2.223-10.577-3.35-16.195-3.35-9.545 0-18.827 3.367-26.135 9.481-1.497 1.253-3.318 1.865-5.129 1.865z" fill="#783c28"/></g><g><path d="m428.432 240.384c-1.812 0-3.632-.611-5.13-1.864-7.308-6.114-16.59-9.481-26.136-9.481-5.617 0-11.065 1.127-16.194 3.35-2.824 1.222-6.104.719-8.43-1.304-2.325-2.021-3.282-5.198-2.462-8.167 6.772-24.517 29.275-41.64 54.724-41.64 8.207 0 16.146 1.729 23.599 5.139 4.018 1.838 5.785 6.585 3.946 10.603-1.838 4.019-6.583 5.787-10.603 3.946-5.349-2.446-11.049-3.688-16.942-3.688-12.915 0-24.772 6.139-32.335 15.952 1.555-.128 3.121-.191 4.697-.191 13.293 0 26.221 4.691 36.403 13.21 3.389 2.835 3.837 7.881 1.002 11.27-1.582 1.889-3.853 2.865-6.139 2.865z" fill="#783c28"/></g><g><g><path d="m385.109 470.084c5.732-7.838 9.123-17.495 9.123-27.949v-91.122c0-5.06-3.684-9.368-8.682-10.153h-.002c-11.213-1.762-21.454-.455-30.361 5.069-5.342 3.313-11.982 3.515-17.568.632-3.332-1.72-6.782-2.974-10.333-3.829v127.353h57.823z" fill="#dd6938"/></g><g><path d="m387.143 467.068c-3.77.965-7.72 1.479-11.791 1.479-26.182 0-47.407-21.225-47.407-47.407v-78.243c-6.078-1.554-12.456-1.916-19.054-1.405-5.357.415-9.473 4.874-9.473 10.247v90.395c0 26.182 21.225 47.407 47.407 47.407 17.033 0 31.96-8.987 40.318-22.473z" fill="#d80a61"/></g></g></g></g></svg>