<svg id="Layer_1" enable-background="new 0 0 511 511" height="512" viewBox="0 0 511 511" width="512" xmlns="http://www.w3.org/2000/svg"><g><g><g><path d="m484.177 316.368c.227-.877.446-1.761.664-2.646-.215.886-.439 1.766-.664 2.646z" fill="#afe6ff"/></g><g><path d="m245.901 9.599c-94.629 0-152.916 53.372-153.076 53.462-3.652 16.857-10.004 41.321-10.004 59.272 0 135.807 114.525 245.874 250.333 245.874 57.875 0 111.05-26.947 153.055-60.404.171-1.048 5.593-22.639 5.593-52.303 0-135.807-110.094-245.901-245.901-245.901z" fill="#afe6ff"/></g><g><path d="m486.208 307.803c-42.005 33.458-95.201 53.462-153.077 53.462-135.807 0-245.901-110.094-245.901-245.901 0-17.951 1.941-35.446 5.593-52.303-.006.004-.011.009-.017.014-56.551 45.053-92.806 114.501-92.806 192.425 0 135.807 110.094 245.901 245.901 245.901 114.794 0 211.187-78.671 238.276-185.032.224-.881.449-1.761.664-2.646.102-.42 1.029-4.361 1.367-5.92z" fill="#9dc6fb"/></g></g><g><g><g><path d="m511 255.5c0 54.831-20.346 104.91-53.9 143.099-39.751 45.242-98.039 62.43-162.996 62.43-119.789 0-206.122-89.585-206.122-209.373 0-91.122 45.416-165.275 125.038-197.388 25.049-10.103 52.417-15.664 81.084-15.664 119.788 0 216.896 97.107 216.896 216.896z" fill="#f1d333"/></g><g><path d="m399.009 122.204c-2.319 0-4.666-.646-6.76-1.995-3.324-2.143-6.769-4.192-10.238-6.092-6.055-3.316-8.276-10.913-4.96-16.968 3.315-6.055 10.912-8.274 16.968-4.96 3.99 2.185 7.951 4.542 11.774 7.006 5.803 3.74 7.475 11.476 3.735 17.278-2.39 3.709-6.412 5.731-10.519 5.731z" fill="#f9ef63"/></g><g><path d="m349.403 98.496c-1.284.001-2.589-.199-3.876-.618-16.544-5.394-33.845-8.128-51.423-8.128-12.889 0-25.721 1.482-38.141 4.406-6.723 1.586-13.45-2.583-15.032-9.303s2.583-13.449 9.303-15.031c14.295-3.366 29.055-5.072 43.87-5.072 20.213 0 40.121 3.148 59.171 9.358 6.564 2.14 10.15 9.195 8.01 15.759-1.72 5.276-6.618 8.629-11.882 8.629z" fill="#f9ef63"/></g><g><path d="m376.012 414.268c-119.789 0-216.896-97.108-216.896-216.896 0-54.831 20.356-104.902 53.91-143.091-79.622 32.113-135.819 110.098-135.819 201.219 0 119.789 97.108 216.896 216.896 216.896 64.957 0 123.236-28.563 162.987-73.806-25.049 10.104-52.411 15.678-81.078 15.678z" fill="#eab14d"/></g></g><g><path d="m373.112 367.189h-53.808c-4.694 0-8.5-3.806-8.5-8.5s3.806-8.5 8.5-8.5h53.808c4.694 0 8.5 3.806 8.5 8.5s-3.806 8.5-8.5 8.5z" fill="#eab14d"/></g><g><g><path d="m412.52 312.441c-4.503.01-8.767.776-12.749 2.435-7.359 3.065-15.618 3.275-23.152.671-1.302-.45-2.63-.801-3.969-1.105v103.558h42.857c.917 0 1.752.127 2.518.341 5.443-6.571 8.716-15.005 8.716-24.203v-67.57c.001-7.838-6.384-14.144-14.221-14.127z" fill="#dd6938"/></g><g><path d="m421.065 414.106c-3.019.773-6.183 1.185-9.443 1.185-20.968 0-37.967-16.998-37.967-37.967v-62.663c-2.634-.673-5.338-1.067-8.102-1.222-3.833-.215-7.585 1.158-10.375 3.796-2.789 2.638-4.37 6.307-4.37 10.146v66.756c0 20.968 16.998 37.967 37.967 37.967 13.641 0 25.596-7.197 32.29-17.998z" fill="#d80a61"/></g></g><g><g><path d="m309.386 243.782c-2.56 0-5.118-.977-7.071-2.929l-47.89-47.891c-3.905-3.905-3.905-10.237 0-14.143 3.905-3.903 10.237-3.903 14.142 0l47.89 47.891c3.905 3.905 3.905 10.237 0 14.143-1.953 1.952-4.512 2.929-7.071 2.929z" fill="#783c28"/></g><g><path d="m261.496 243.782c-2.559 0-5.118-.977-7.071-2.929-3.905-3.905-3.906-10.237 0-14.143l47.89-47.891c3.905-3.904 10.237-3.904 14.142 0 3.905 3.905 3.906 10.237 0 14.143l-47.89 47.891c-1.952 1.952-4.512 2.929-7.071 2.929z" fill="#783c28"/></g></g><g><g><path d="m422.412 243.782c-2.56 0-5.118-.977-7.071-2.929l-47.89-47.891c-3.905-3.905-3.905-10.237 0-14.143 3.905-3.903 10.237-3.903 14.142 0l47.89 47.891c3.905 3.905 3.905 10.237 0 14.143-1.952 1.952-4.512 2.929-7.071 2.929z" fill="#783c28"/></g><g><path d="m374.522 243.782c-2.559 0-5.118-.977-7.071-2.929-3.905-3.905-3.906-10.237 0-14.143l47.89-47.891c3.905-3.904 10.237-3.904 14.142 0 3.905 3.905 3.905 10.237 0 14.143l-47.89 47.891c-1.952 1.952-4.512 2.929-7.071 2.929z" fill="#783c28"/></g></g><g><path d="m438.564 329.806h-183.807c-5.523 0-10-4.478-10-10s4.477-10 10-10h183.807c5.523 0 10 4.478 10 10s-4.477 10-10 10z" fill="#783c28"/></g><g><path d="m225.147 180.712c-1.79 0-3.56-.797-4.743-2.319-2.033-2.617-1.56-6.386 1.058-8.419l55.91-43.432c2.618-2.031 6.387-1.559 8.419 1.058 2.033 2.617 1.56 6.386-1.058 8.419l-55.91 43.432c-1.094.849-2.39 1.261-3.676 1.261z" fill="#eab14d"/></g><g><path d="m453.06 180.712c-1.286 0-2.582-.411-3.676-1.262l-55.91-43.432c-2.617-2.033-3.09-5.802-1.058-8.419 2.033-2.616 5.802-3.092 8.419-1.058l55.91 43.432c2.617 2.033 3.09 5.802 1.058 8.419-1.183 1.523-2.954 2.32-4.743 2.32z" fill="#eab14d"/></g></g></g></svg>