<svg id="Layer_1" enable-background="new 0 0 511 511" height="512" viewBox="0 0 511 511" width="512" xmlns="http://www.w3.org/2000/svg"><g><g><g><path d="m483.273 318.621c.227-.91.445-1.826.663-2.743-.215.917-.439 1.83-.663 2.743z" fill="#afe6ff"/></g><g><path d="m245.442.5c-94.452 0-152.63 55.347-152.791 55.441-3.645 17.481-9.985 42.85-9.985 61.465 0 140.833 114.312 254.972 249.865 254.972 57.767 0 110.843-27.944 152.769-62.639.171-1.087 5.583-23.477 5.583-54.239 0-140.833-109.888-255-245.441-255z" fill="#c14098"/></g><g><path d="m485.3 309.739c-41.926 34.696-95.023 55.441-152.791 55.441-135.554 0-245.442-114.167-245.442-255 0-18.615 1.938-36.757 5.583-54.239-.006.005-.011.01-.017.014-56.445 46.72-92.633 118.737-92.633 199.545 0 140.833 109.888 255 245.442 255 114.58 0 210.793-81.583 237.831-191.879.224-.913.448-1.826.663-2.743.101-.436 1.027-4.523 1.364-6.139z" fill="#8659b9"/></g></g><g><g><g><path d="m511 255.5c0 54.831-20.346 104.91-53.9 143.099-39.751 45.242-98.039 62.43-162.996 62.43-119.789 0-206.122-89.585-206.122-209.373 0-91.122 45.416-165.275 125.038-197.388 25.049-10.103 52.417-15.664 81.084-15.664 119.788 0 216.896 97.107 216.896 216.896z" fill="#f1d333"/></g><g><path d="m399.009 122.204c-2.319 0-4.666-.646-6.76-1.995-3.322-2.142-6.767-4.191-10.238-6.092-6.055-3.316-8.276-10.913-4.96-16.968 3.315-6.056 10.911-8.274 16.968-4.96 3.992 2.187 7.953 4.543 11.774 7.006 5.803 3.74 7.475 11.476 3.735 17.278-2.39 3.709-6.412 5.731-10.519 5.731z" fill="#f9ef63"/></g><g><path d="m349.403 98.496c-1.284.001-2.589-.199-3.876-.618-16.544-5.394-33.845-8.128-51.423-8.128-12.889 0-25.722 1.482-38.141 4.406-6.721 1.586-13.45-2.583-15.032-9.303s2.583-13.449 9.303-15.031c14.294-3.366 29.054-5.072 43.87-5.072 20.213 0 40.121 3.148 59.171 9.358 6.564 2.14 10.15 9.195 8.01 15.759-1.72 5.276-6.618 8.629-11.882 8.629z" fill="#f9ef63"/></g><g><path d="m376.012 414.268c-119.789 0-216.896-97.108-216.896-216.896 0-54.831 20.356-104.902 53.91-143.091-79.622 32.113-135.819 110.098-135.819 201.219 0 119.789 97.108 216.896 216.896 216.896 64.957 0 123.236-28.563 162.987-73.806-25.049 10.104-52.411 15.678-81.078 15.678z" fill="#eab14d"/></g></g><g><g><ellipse cx="293.784" cy="196.867" fill="#eab14d" rx="26.422" ry="31.778"/></g><g><circle cx="293.654" cy="188.866" fill="#783c28" r="23.778"/></g></g><g><g><ellipse cx="402.041" cy="196.867" fill="#eab14d" rx="26.357" ry="31.778"/></g><g><circle cx="401.798" cy="188.866" fill="#783c28" r="23.778"/></g></g><g><path d="m434.043 334.299h-176.806c-5.523 0-10-4.478-10-10s4.477-10 10-10h176.806c5.523 0 10 4.478 10 10s-4.477 10-10 10z" fill="#783c28"/></g><g><path d="m371.591 371.681h-53.808c-4.694 0-8.5-3.806-8.5-8.5s3.806-8.5 8.5-8.5h53.808c4.694 0 8.5 3.806 8.5 8.5s-3.805 8.5-8.5 8.5z" fill="#eab14d"/></g><g><path d="m451.392 173.589h-79.8c-4.694 0-8.5-3.806-8.5-8.5s3.806-8.5 8.5-8.5h79.8c4.694 0 8.5 3.806 8.5 8.5s-3.806 8.5-8.5 8.5z" fill="#eab14d"/></g><g><path d="m318.227 173.589h-79.8c-4.694 0-8.5-3.806-8.5-8.5s3.806-8.5 8.5-8.5h79.8c4.694 0 8.5 3.806 8.5 8.5s-3.806 8.5-8.5 8.5z" fill="#eab14d"/></g></g></g></svg>