<svg id="Layer_1" enable-background="new 0 0 511 511" height="512" viewBox="0 0 511 511" width="512" xmlns="http://www.w3.org/2000/svg"><g><g><g><path d="m483.344 316.264c.227-.876.445-1.758.663-2.641-.215.883-.439 1.762-.663 2.641z" fill="#afe6ff"/></g><g><path d="m245.478 10.022c-94.466 0-152.653 53.28-152.813 53.37-3.646 16.828-9.987 41.25-9.987 59.17 0 135.574 114.328 245.451 249.902 245.451 57.776 0 110.859-26.9 152.792-60.3.171-1.046 5.584-22.6 5.584-52.213 0-135.574-109.905-245.478-245.478-245.478z" fill="#6ec186"/></g><g><path d="m485.372 307.713c-41.933 33.4-95.037 53.37-152.813 53.37-135.574 0-245.478-109.904-245.478-245.478 0-17.92 1.938-35.385 5.584-52.213-.006.004-.011.009-.017.014-56.455 44.976-92.648 114.304-92.648 192.094 0 135.574 109.904 245.478 245.478 245.478 114.597 0 210.824-78.536 237.866-184.714.224-.879.448-1.758.663-2.641.102-.42 1.027-4.354 1.365-5.91z" fill="#61aab7"/></g></g><g><g><g><path d="m511 255.5c0 54.831-20.346 104.91-53.9 143.099-39.751 45.242-98.039 62.43-162.996 62.43-119.789 0-206.122-89.585-206.122-209.373 0-91.122 45.416-165.275 125.038-197.388 25.049-10.103 52.417-15.664 81.084-15.664 119.788 0 216.896 97.107 216.896 216.896z" fill="#f1d333"/></g><g><path d="m399.009 122.204c-2.32 0-4.666-.646-6.761-1.995-3.323-2.143-6.768-4.192-10.236-6.092-6.056-3.315-8.276-10.912-4.961-16.967 3.315-6.057 10.914-8.277 16.967-4.961 3.991 2.185 7.952 4.542 11.775 7.007 5.803 3.74 7.475 11.476 3.734 17.278-2.39 3.709-6.413 5.73-10.518 5.73z" fill="#f9ef63"/></g><g><path d="m349.403 98.496c-1.284.001-2.589-.199-3.876-.618-16.544-5.394-33.846-8.128-51.423-8.128-12.889 0-25.721 1.482-38.142 4.406-6.721 1.585-13.45-2.583-15.032-9.303s2.583-13.449 9.303-15.031c14.295-3.366 29.055-5.072 43.87-5.072 20.213 0 40.121 3.148 59.171 9.358 6.563 2.14 10.15 9.195 8.011 15.759-1.72 5.277-6.618 8.629-11.882 8.629z" fill="#f9ef63"/></g><g><path d="m376.012 414.268c-119.789 0-216.896-97.108-216.896-216.896 0-54.831 20.356-104.902 53.91-143.091-79.622 32.113-135.819 110.098-135.819 201.219 0 119.789 97.108 216.896 216.896 216.896 64.957 0 123.236-28.563 162.987-73.806-25.049 10.104-52.411 15.678-81.078 15.678z" fill="#eab14d"/></g></g><g><path d="m336.455 340.289c21.893.286 42.263-6.159 59.177-17.394 6.348-4.217 14.078 2.844 10.656 9.654-12.728 25.327-39.089 42.618-69.459 42.221-29.452-.385-54.957-17.63-67.413-42.393-3.431-6.82 4.388-13.801 10.74-9.566 16.191 10.795 35.528 17.207 56.299 17.478z" fill="#783c28"/></g><g><path d="m404.486 236.683c-13.573 0-27.147-5.167-37.481-15.5-2.929-2.93-2.929-7.678 0-10.607 2.93-2.928 7.678-2.928 10.607 0 14.817 14.819 38.93 14.821 53.749 0 2.93-2.928 7.678-2.928 10.607 0 2.929 2.93 2.929 7.678 0 10.607-10.334 10.333-23.908 15.5-37.482 15.5z" fill="#783c28"/></g><g><path d="m265.579 236.683c-13.573 0-27.147-5.167-37.481-15.5-2.929-2.93-2.929-7.678 0-10.607 2.929-2.928 7.678-2.928 10.606 0 14.818 14.819 38.93 14.821 53.75 0 2.93-2.928 7.678-2.928 10.607 0 2.929 2.93 2.929 7.678 0 10.607-10.333 10.333-23.907 15.5-37.482 15.5z" fill="#783c28"/></g><g><path d="m202.323 201.901c-1.06 0-2.132-.281-3.105-.87-2.833-1.718-3.738-5.408-2.02-8.241 25.151-41.484 66.187-37.522 67.926-37.332 3.294.359 5.673 3.32 5.314 6.615-.358 3.287-3.317 5.656-6.594 5.316-1.443-.142-35.304-3.148-56.385 31.621-1.127 1.862-3.107 2.891-5.136 2.891z" fill="#eab14d"/></g><g><path d="m464.742 201.901c-2.029 0-4.008-1.029-5.137-2.891-21.085-34.779-54.954-31.765-56.386-31.621-3.268.34-6.238-2.053-6.584-5.34s2.021-6.233 5.306-6.592c1.741-.188 42.774-4.153 67.926 37.332 1.718 2.833.813 6.523-2.021 8.241-.971.59-2.044.871-3.104.871z" fill="#eab14d"/></g><g><path d="m383.14 399.815c1.769 1.391 2.976 3.548 2.976 6.483v14.013h8.115c.029-.359.046-.722.046-1.089v-69.752h-38.547v46.621h20.399c3.339 0 5.67 1.554 7.011 3.724z" fill="#9dc6fb"/></g><g><path d="m387.892 408.654c0-7.353-5.961-13.314-13.314-13.314h-5.079c-7.353 0-13.314-5.961-13.314-13.314v-28.981c0-1.237.175-2.431.474-3.575h-13.417c-7.811 0-14.143 6.332-14.143 14.143v28.981c0 7.353 5.961 13.314 13.314 13.314h5.079c7.353 0 13.314 5.961 13.314 13.314 0 7.353 5.961 13.314 13.314 13.314h6.845c7.096 0 12.878-5.556 13.275-12.552-3.804-2.344-6.348-6.535-6.348-11.33z" fill="#4faddb"/></g></g></g></svg>