<svg id="Layer_1" enable-background="new 0 0 511 511" height="512" viewBox="0 0 511 511" width="512" xmlns="http://www.w3.org/2000/svg"><g><g><g><path d="m480.793 315.943c.226-.871.443-1.749.659-2.627-.213.878-.436 1.753-.659 2.627z" fill="#afe6ff"/></g><g><path d="m244.182 11.318c-93.968 0-151.847 52.999-152.006 53.089-3.627 16.74-9.934 41.032-9.934 58.858 0 134.858 113.725 244.155 248.583 244.155 57.471 0 110.274-26.758 151.985-59.982.17-1.041 5.554-22.481 5.554-51.938 0-134.858-109.324-244.182-244.182-244.182z" fill="#9bd069"/></g><g><path d="m482.81 307.438c-41.711 33.224-94.536 53.089-152.006 53.089-134.858 0-244.182-109.324-244.182-244.182 0-17.825 1.928-35.198 5.554-51.938-.006.004-.011.009-.017.014-56.157 44.737-92.159 113.699-92.159 191.079 0 134.858 109.324 244.182 244.182 244.182 113.992 0 209.711-78.121 236.611-183.739.223-.874.446-1.749.659-2.627.101-.417 1.022-4.33 1.358-5.878z" fill="#6ec186"/></g></g><g><g><g><path d="m511 255.5c0 54.831-20.346 104.91-53.9 143.099-39.751 45.242-98.039 62.43-162.996 62.43-119.789 0-206.122-89.585-206.122-209.373 0-91.122 45.416-165.275 125.038-197.388 25.049-10.103 52.417-15.664 81.084-15.664 119.788 0 216.896 97.107 216.896 216.896z" fill="#f1d333"/></g><g><path d="m399.009 122.205c-2.32 0-4.666-.646-6.762-1.996-3.323-2.143-6.767-4.191-10.234-6.09-6.056-3.315-8.277-10.911-4.963-16.967 3.315-6.057 10.913-8.277 16.967-4.963 3.99 2.185 7.953 4.542 11.777 7.008 5.802 3.74 7.474 11.477 3.732 17.279-2.389 3.707-6.411 5.729-10.517 5.729z" fill="#f9ef63"/></g><g><path d="m349.403 98.497c-1.284 0-2.59-.199-3.877-.618-16.543-5.395-33.844-8.129-51.422-8.129-12.89 0-25.722 1.482-38.142 4.406-6.72 1.587-13.449-2.583-15.031-9.303s2.582-13.449 9.303-15.031c14.294-3.366 29.054-5.072 43.87-5.072 20.215 0 40.123 3.149 59.172 9.359 6.563 2.141 10.149 9.196 8.009 15.76-1.72 5.276-6.618 8.628-11.882 8.628z" fill="#f9ef63"/></g><g><path d="m376.012 414.268c-119.789 0-216.896-97.108-216.896-216.896 0-54.831 20.356-104.902 53.91-143.091-79.622 32.113-135.819 110.098-135.819 201.219 0 119.789 97.108 216.896 216.896 216.896 64.957 0 123.236-28.563 162.987-73.806-25.049 10.104-52.411 15.678-81.078 15.678z" fill="#eab14d"/></g></g><g><g><g><ellipse cx="381.852" cy="219.948" fill="#eab14d" rx="21.905" ry="42.474"/></g></g><g><ellipse cx="381.557" cy="211.948" fill="#783c28" rx="20.066" ry="34.473"/></g></g><g><g><ellipse cx="279.079" cy="230.644" fill="#eab14d" rx="26.422" ry="31.778"/></g><g><circle cx="278.949" cy="222.643" fill="#783c28" r="23.778"/></g></g><g><path d="m421.795 334.161h-176.805c-5.522 0-10-4.478-10-10s4.478-10 10-10h176.806c5.522 0 10 4.478 10 10s-4.478 10-10.001 10z" fill="#783c28"/></g><g><path d="m359.344 371.545h-53.809c-4.694 0-8.5-3.806-8.5-8.5s3.806-8.5 8.5-8.5h53.809c4.694 0 8.5 3.806 8.5 8.5s-3.805 8.5-8.5 8.5z" fill="#eab14d"/></g><g><path d="m312.393 186.05c-1.919 0-3.839-.732-5.303-2.196-15.215-15.215-39.971-15.215-55.186 0-2.928 2.929-7.677 2.928-10.606-.001s-2.929-7.678.001-10.606c21.062-21.061 55.334-21.061 76.396 0 2.93 2.929 2.93 7.678.001 10.606-1.464 1.465-3.384 2.197-5.303 2.197z" fill="#eab14d"/></g><g><path d="m353.183 172.427c-2.977 0-5.793-1.784-6.966-4.717-1.538-3.847.333-8.211 4.179-9.749l51.329-20.526c3.845-1.539 8.211.333 9.749 4.179 1.538 3.847-.333 8.211-4.179 9.749l-51.329 20.526c-.913.366-1.856.538-2.783.538z" fill="#eab14d"/></g></g></g></svg>