<svg id="Layer_1" enable-background="new 0 0 511.206 511.206" height="512" viewBox="0 0 511.206 511.206" width="512" xmlns="http://www.w3.org/2000/svg"><g><g><g><path d="m498.065 322.923c.231-.893.454-1.792.675-2.692-.218.9-.447 1.796-.675 2.692z" fill="#afe6ff"/></g><g><path d="m255.603 10.764c-96.292 0-155.602 54.31-155.766 54.402-3.716 17.154-10.18 42.047-10.18 60.313 0 138.193 116.537 250.193 254.73 250.193 58.892 0 113.001-27.42 155.744-61.465.174-1.066 5.692-23.037 5.692-53.222.001-138.193-112.027-250.221-250.22-250.221z" fill="#afe6ff"/></g><g><path d="m500.132 314.207c-42.743 34.045-96.874 54.402-155.766 54.402-138.193 0-250.221-112.028-250.221-250.221 0-18.266 1.976-36.068 5.692-53.222-.006.005-.011.009-.017.014-57.546 45.844-94.438 116.511-94.438 195.805 0 138.193 112.028 250.221 250.221 250.221 116.811 0 214.897-80.053 242.462-188.283.228-.896.457-1.792.675-2.692.105-.428 1.048-4.438 1.392-6.024z" fill="#9dc6fb"/></g></g><g><g><g><path d="m462.06 287.371c0 52.192-19.367 99.861-51.306 136.212-37.838 43.065-93.32 59.425-155.152 59.425-114.023 0-196.201-85.273-196.201-199.296 0-86.736 43.23-157.321 119.02-187.888 23.843-9.617 49.894-14.91 77.181-14.91 114.024-.001 206.458 92.434 206.458 206.457z" fill="#f1d333"/></g><g><path d="m355.459 160.491c-2.208 0-4.441-.614-6.435-1.899-3.164-2.039-6.443-3.991-9.745-5.799-5.764-3.157-7.878-10.388-4.721-16.151 3.156-5.764 10.386-7.877 16.151-4.721 3.798 2.079 7.568 4.323 11.207 6.669 5.523 3.56 7.115 10.923 3.555 16.447-2.274 3.529-6.103 5.454-10.012 5.454z" fill="#f9ef63"/></g><g><path d="m308.241 137.924c-1.222 0-2.465-.19-3.69-.588-15.745-5.134-32.213-7.737-48.947-7.737-12.268 0-24.483 1.411-36.305 4.194-6.4 1.51-12.803-2.459-14.309-8.855s2.459-12.802 8.855-14.308c13.607-3.204 27.656-4.828 41.759-4.828 19.243 0 38.193 2.997 56.324 8.908 6.248 2.038 9.661 8.754 7.624 15.001-1.639 5.022-6.301 8.213-11.311 8.213z" fill="#f9ef63"/></g><g><path d="m333.569 438.498c-114.023 0-206.457-92.434-206.457-206.457 0-52.192 19.376-99.853 51.315-136.204-75.789 30.567-129.282 104.798-129.282 191.534 0 114.023 92.434 206.457 206.457 206.457 61.831 0 117.305-27.189 155.142-70.253-23.843 9.617-49.888 14.923-77.175 14.923z" fill="#eab14d"/></g></g><g><path d="m368.291 282.802c-12.921 0-25.842-4.918-35.678-14.754-2.788-2.789-2.788-7.308 0-10.097 2.788-2.787 7.308-2.787 10.096 0 14.106 14.107 37.057 14.108 51.164 0 2.788-2.787 7.308-2.787 10.096 0 2.788 2.789 2.788 7.308 0 10.097-9.837 9.836-22.758 14.754-35.678 14.754z" fill="#783c28"/></g><g><path d="m236.07 282.802c-12.921 0-25.841-4.918-35.678-14.754-2.788-2.789-2.788-7.308 0-10.097 2.788-2.787 7.308-2.787 10.096 0 14.106 14.107 37.057 14.107 51.164 0 2.788-2.787 7.308-2.787 10.096 0 2.788 2.789 2.788 7.308 0 10.097-9.837 9.836-22.758 14.754-35.678 14.754z" fill="#783c28"/></g><g><path d="m175.858 249.696c-1.009 0-2.03-.268-2.956-.828-2.697-1.635-3.558-5.148-1.923-7.845 23.941-39.488 63.005-35.717 64.656-35.536 3.136.342 5.401 3.161 5.059 6.297-.341 3.129-3.145 5.391-6.277 5.061-1.378-.138-33.605-2.998-53.671 30.1-1.073 1.771-2.957 2.751-4.888 2.751z" fill="#eab14d"/></g><g><path d="m425.647 249.696c-1.931 0-3.815-.98-4.889-2.752-20.07-33.104-52.308-30.236-53.672-30.1-3.131.32-5.938-1.955-6.267-5.083-.33-3.129 1.923-5.933 5.05-6.275 1.648-.181 40.715-3.952 64.656 35.536 1.635 2.697.774 6.209-1.923 7.845-.925.561-1.946.829-2.955.829z" fill="#eab14d"/></g><g><ellipse cx="302.591" cy="376.284" fill="#783c28" rx="33.166" ry="42.388"/></g><g><path d="m173.909 176.054c6.996 0 12.66 7.663 12.66 17.658 0 9.328-4.997 17.324-12.66 17.324h-105.279c-10.661 0-14.659-7.996-14.659-15.326 0-6.663 3.665-12.993 7.33-17.324l65.633-90.619h-57.638c-6.996 0-12.66-7.663-12.66-17.658 0-9.328 4.997-17.324 12.66-17.324h97.949c7.33 0 13.993 4.665 13.993 14.659 0 5.997-2.332 12.327-6.663 17.991l-65.966 90.619z" fill="#c14098"/></g><g><path d="m279.903 115.077c4.997 0 9.043 5.473 9.043 12.612 0 6.663-3.57 12.374-9.043 12.374h-75.198c-7.615 0-10.471-5.711-10.471-10.947 0-4.759 2.618-9.281 5.235-12.374l46.88-64.727h-41.168c-4.997 0-9.043-5.473-9.043-12.612 0-6.663 3.57-12.374 9.043-12.374h69.963c5.235 0 9.995 3.332 9.995 10.471 0 4.283-1.666 8.805-4.759 12.85l-47.118 64.727z" fill="#c14098"/></g><g><path d="m373.284 70.438c3.998 0 7.234 4.379 7.234 10.09 0 5.33-2.856 9.899-7.234 9.899h-60.157c-6.092 0-8.377-4.569-8.377-8.757 0-3.807 2.094-7.424 4.189-9.899l37.503-51.781h-32.934c-3.998 0-7.234-4.378-7.234-10.089 0-5.33 2.856-9.9 7.234-9.9h55.969c4.188 0 7.996 2.666 7.996 8.377 0 3.426-1.333 7.043-3.807 10.28l-37.693 51.78z" fill="#c14098"/></g></g></g></svg>