<svg id="Layer_1" enable-background="new 0 0 511 511" height="512" viewBox="0 0 511 511" width="512" xmlns="http://www.w3.org/2000/svg"><g><g><g><path d="m483.273 316.255c.227-.876.445-1.758.663-2.641-.215.883-.439 1.762-.663 2.641z" fill="#afe6ff"/></g><g><path d="m245.442 10.058c-94.452 0-152.63 53.273-152.791 53.363-3.645 16.826-9.985 41.244-9.985 59.161 0 135.554 114.312 245.415 249.865 245.415 57.767 0 110.843-26.896 152.769-60.292.171-1.046 5.583-22.597 5.583-52.205 0-135.554-109.888-245.442-245.441-245.442z" fill="#c14098"/></g><g><path d="m485.3 307.705c-41.926 33.395-95.023 53.363-152.791 53.363-135.554 0-245.442-109.888-245.442-245.442 0-17.917 1.938-35.38 5.583-52.205-.006.004-.011.009-.017.014-56.445 44.968-92.633 114.286-92.633 192.065 0 135.554 109.888 245.442 245.442 245.442 114.58 0 210.793-78.524 237.831-184.687.224-.879.448-1.758.663-2.641.101-.419 1.027-4.353 1.364-5.909z" fill="#8659b9"/></g></g><g><g><g><path d="m511 255.5c0 54.831-20.346 104.91-53.9 143.099-39.751 45.242-98.039 62.43-162.996 62.43-119.789 0-206.122-89.585-206.122-209.373 0-91.122 45.416-165.275 125.038-197.388 25.049-10.103 52.417-15.664 81.084-15.664 119.788 0 216.896 97.107 216.896 216.896z" fill="#f1d333"/></g><g><path d="m399.009 122.204c-2.319 0-4.666-.646-6.76-1.995-3.322-2.142-6.767-4.191-10.238-6.092-6.055-3.316-8.276-10.913-4.96-16.968 3.315-6.055 10.912-8.275 16.968-4.96 3.992 2.187 7.953 4.543 11.774 7.006 5.803 3.74 7.475 11.476 3.735 17.278-2.39 3.71-6.412 5.731-10.519 5.731z" fill="#f9ef63"/></g><g><path d="m349.403 98.496c-1.284 0-2.59-.199-3.877-.618-16.541-5.394-33.841-8.128-51.422-8.128-12.889 0-25.722 1.482-38.141 4.406-6.721 1.579-13.451-2.583-15.032-9.303-1.582-6.72 2.583-13.449 9.303-15.031 14.294-3.366 29.054-5.072 43.87-5.072 20.216 0 40.125 3.148 59.172 9.358 6.563 2.141 10.149 9.196 8.009 15.76-1.72 5.277-6.618 8.628-11.882 8.628z" fill="#f9ef63"/></g><g><path d="m376.012 414.268c-119.789 0-216.896-97.108-216.896-216.896 0-54.831 20.356-104.902 53.91-143.091-79.622 32.113-135.819 110.098-135.819 201.219 0 119.789 97.108 216.896 216.896 216.896 64.957 0 123.236-28.563 162.987-73.806-25.049 10.104-52.411 15.678-81.078 15.678z" fill="#eab14d"/></g></g><g><g><ellipse cx="267.783" cy="202.882" fill="#eab14d" rx="22.121" ry="44.974"/></g><g><ellipse cx="380.267" cy="202.905" fill="#eab14d" rx="21.975" ry="44.951"/></g><g><ellipse cx="267.493" cy="192.382" fill="#783c28" rx="20.066" ry="34.473"/></g><g><ellipse cx="380.143" cy="192.382" fill="#783c28" rx="20.066" ry="34.473"/></g></g></g></g></svg>