<svg id="Layer_1" enable-background="new 0 0 511 511" height="512" viewBox="0 0 511 511" width="512" xmlns="http://www.w3.org/2000/svg"><g><g><g><path d="m483.344 316.264c.227-.876.445-1.758.663-2.641-.215.883-.439 1.762-.663 2.641z" fill="#afe6ff"/></g><g><path d="m245.478 10.022c-94.466 0-152.653 53.28-152.813 53.37-3.646 16.828-9.987 41.25-9.987 59.17 0 135.574 114.328 245.451 249.902 245.451 57.776 0 110.859-26.9 152.792-60.3.171-1.046 5.584-22.6 5.584-52.213 0-135.574-109.905-245.478-245.478-245.478z" fill="#6ec186"/></g><g><path d="m485.372 307.713c-41.933 33.4-95.037 53.37-152.813 53.37-135.574 0-245.478-109.904-245.478-245.478 0-17.92 1.938-35.385 5.584-52.213-.006.004-.011.009-.017.014-56.455 44.976-92.648 114.304-92.648 192.094 0 135.574 109.904 245.478 245.478 245.478 114.597 0 210.824-78.536 237.866-184.714.224-.879.448-1.758.663-2.641.102-.42 1.027-4.354 1.365-5.91z" fill="#61aab7"/></g></g><g><g><path d="m294.104 38.604c-28.667 0-56.035 5.561-81.084 15.664-79.622 32.113-125.038 106.266-125.038 197.388 0 119.789 86.333 209.373 206.122 209.373 64.958 0 123.246-17.188 162.997-62.43 6.649-7.568 12.78-15.602 18.336-24.048l22.322-44.254c8.565-23.315 13.241-48.51 13.241-74.797 0-119.789-97.108-216.896-216.896-216.896z" fill="#f1d333"/><g><path d="m399.01 122.205c-2.319 0-4.665-.645-6.76-1.995-3.334-2.148-6.778-4.198-10.236-6.091-6.056-3.315-8.277-10.911-4.963-16.967 3.316-6.056 10.912-8.276 16.967-4.963 3.979 2.179 7.941 4.536 11.775 7.007 5.803 3.739 7.476 11.475 3.735 17.278-2.39 3.708-6.412 5.731-10.518 5.731z" fill="#f9ef63"/></g><g><path d="m349.402 98.497c-1.284 0-2.59-.199-3.877-.618-16.543-5.395-33.844-8.129-51.422-8.129-12.889 0-25.721 1.482-38.141 4.406-6.714 1.585-13.45-2.582-15.032-9.303-1.582-6.72 2.583-13.449 9.303-15.031 14.295-3.366 29.055-5.072 43.87-5.072 20.215 0 40.123 3.149 59.172 9.359 6.563 2.141 10.149 9.196 8.009 15.76-1.72 5.276-6.617 8.628-11.882 8.628z" fill="#f9ef63"/></g><g><path d="m376.012 414.268c-119.789 0-216.896-97.108-216.896-216.896 0-54.831 20.356-104.902 53.91-143.091-79.622 32.113-135.819 110.098-135.819 201.219 0 119.789 97.108 216.896 216.896 216.896 64.957 0 123.236-28.563 162.987-73.806-25.049 10.104-52.411 15.678-81.078 15.678z" fill="#eab14d"/></g></g><g><path d="m216.337 158.861c-1.2.001-2.412-.358-3.466-1.105-2.703-1.917-3.34-5.663-1.423-8.365 9.461-13.34 23.745-23.553 40.22-28.757 16.019-5.062 31.552-4.481 42.612 1.59 2.904 1.595 3.967 5.242 2.372 8.147-1.595 2.903-5.241 3.968-8.147 2.372-16.476-9.049-50.156-.54-67.269 23.589-1.169 1.649-3.02 2.529-4.899 2.529z" fill="#eab14d"/></g><g><path d="m440.341 158.861c-1.879.001-3.729-.88-4.899-2.529-17.112-24.13-50.795-32.633-67.269-23.589-2.905 1.596-6.553.531-8.147-2.372-1.595-2.905-.532-6.553 2.372-8.147 11.061-6.071 26.592-6.649 42.612-1.59 16.476 5.204 30.76 15.417 40.221 28.757 1.917 2.703 1.279 6.448-1.424 8.365-1.054.747-2.266 1.105-3.466 1.105z" fill="#eab14d"/></g><g><g><ellipse cx="258.468" cy="230.565" fill="#eab14d" rx="48.404" ry="54.419"/></g><g><circle cx="258.325" cy="221.831" fill="#fff" r="45.684"/></g><g><circle cx="258.945" cy="222.341" fill="#783c28" r="15.183"/></g><g><circle cx="266.72" cy="209.572" fill="#fff" r="7.775"/></g></g><g><g><ellipse cx="398.21" cy="230.565" fill="#eab14d" rx="48.404" ry="54.419"/></g><g><circle cx="398.068" cy="221.831" fill="#fff" r="45.684"/></g><g><circle cx="398.027" cy="222.383" fill="#783c28" r="15.183"/></g><g><circle cx="405.802" cy="209.614" fill="#fff" r="7.775"/></g></g><g><path d="m363.32 384.384c-1.919 0-3.839-.732-5.303-2.196-14.82-14.821-38.933-14.819-53.751 0-2.93 2.928-7.678 2.928-10.607 0-2.929-2.93-2.929-7.678 0-10.607 20.667-20.666 54.295-20.666 74.964 0 2.93 2.929 2.93 7.678.001 10.606-1.465 1.465-3.385 2.197-5.304 2.197z" fill="#783c28"/></g><g><circle cx="210.063" cy="332.244" fill="#fa870a" r="51.181"/></g><path d="m497.746 330.293c-1.027-27.361-23.52-49.23-51.132-49.23-28.267 0-51.181 22.915-51.181 51.181s22.915 51.181 51.181 51.181c10.686 0 20.604-3.279 28.812-8.88 9.04-13.742 16.559-28.571 22.32-44.252z" fill="#fa870a"/></g></g></svg>