<svg id="Layer_1" enable-background="new 0 0 511 511" height="512" viewBox="0 0 511 511" width="512" xmlns="http://www.w3.org/2000/svg"><g><g><g><path d="m481.683 310.372c.226-.873.444-1.752.66-2.632-.213.88-.437 1.756-.66 2.632z" fill="#afe6ff"/></g><g><path d="m489.268 249.817c0-135.108-109.526-244.634-244.634-244.634-94.142 0-152.128 53.097-152.288 53.187-3.633 16.771-9.952 41.108-9.952 58.967 0 135.108 113.935 244.607 249.043 244.607 57.577 0 110.478-26.808 152.267-60.093.17-1.043 5.564-22.522 5.564-52.034z" fill="#dd6938"/></g><g><path d="m483.703 301.851c-41.789 33.285-94.711 53.187-152.288 53.187-135.108 0-244.634-109.527-244.634-244.634 0-17.858 1.931-35.263 5.565-52.034-.006.004-.011.009-.017.014-56.26 44.82-92.329 113.91-92.329 191.433 0 135.108 109.526 244.634 244.634 244.634 114.203 0 210.099-78.266 237.049-184.079.223-.876.447-1.752.66-2.632.102-.418 1.024-4.338 1.36-5.889z" fill="#d80a61"/></g></g><g><g><g><path d="m511 247.674c0 54.831-20.346 104.91-53.9 143.099-39.751 45.242-98.039 62.43-162.996 62.43-119.789 0-206.122-89.585-206.122-209.373 0-91.122 45.416-165.275 125.038-197.388 25.049-10.103 52.417-15.664 81.084-15.664 119.788-.001 216.896 97.107 216.896 216.896z" fill="#f1d333"/></g><g><path d="m399.009 114.378c-2.32 0-4.666-.646-6.761-1.995-3.318-2.14-6.763-4.189-10.238-6.092-6.055-3.316-8.274-10.913-4.959-16.969 3.316-6.055 10.913-8.271 16.969-4.959 3.995 2.188 7.956 4.546 11.773 7.007 5.803 3.74 7.475 11.476 3.734 17.278-2.39 3.708-6.412 5.73-10.518 5.73z" fill="#f9ef63"/></g><g><path d="m349.403 90.671c-1.284 0-2.59-.199-3.877-.618-16.543-5.395-33.844-8.129-51.422-8.129-12.89 0-25.722 1.482-38.142 4.406-6.719 1.589-13.449-2.583-15.031-9.303s2.582-13.449 9.303-15.031c14.294-3.366 29.054-5.072 43.87-5.072 20.215 0 40.123 3.149 59.172 9.359 6.563 2.141 10.149 9.196 8.009 15.76-1.72 5.276-6.618 8.628-11.882 8.628z" fill="#f9ef63"/></g><g><path d="m376.012 406.442c-119.789 0-216.896-97.108-216.896-216.896 0-54.831 20.356-104.902 53.91-143.091-79.622 32.113-135.819 110.098-135.819 201.219 0 119.789 97.108 216.896 216.896 216.896 64.957 0 123.236-28.563 162.987-73.806-25.049 10.104-52.411 15.678-81.078 15.678z" fill="#eab14d"/></g></g><g><path d="m227.569 171.14c-1.2.001-2.412-.358-3.466-1.105-2.703-1.917-3.341-5.662-1.424-8.365 9.461-13.34 23.745-23.553 40.221-28.758 16.021-5.062 31.553-4.481 42.612 1.59 2.904 1.595 3.967 5.242 2.372 8.147-1.595 2.904-5.242 3.968-8.147 2.372-16.477-9.051-50.157-.54-67.269 23.59-1.17 1.649-3.02 2.529-4.899 2.529z" fill="#eab14d"/></g><g><path d="m451.573 171.14c-1.879.001-3.729-.88-4.899-2.529-17.113-24.13-50.795-32.633-67.269-23.59-2.906 1.596-6.553.532-8.147-2.372-1.595-2.905-.532-6.553 2.372-8.147 11.059-6.071 26.589-6.65 42.612-1.59 16.476 5.204 30.76 15.418 40.221 28.758 1.917 2.703 1.279 6.448-1.424 8.365-1.054.747-2.266 1.105-3.466 1.105z" fill="#eab14d"/></g><g><path d="m393.188 301.734h-151.608c-2.624 0-5.239.642-7.458 2.041-4.646 2.928-6.955 8.193-6.215 13.37l.003.024c7.489 52.34 52.503 92.574 106.914 92.574.215 0 .43-.001.645-.002 31.993-.187 57.72-26.44 57.72-58.434v-49.573z" fill="#a55a3c"/></g><g><path d="m389.832 301.734c0 50.508-34.67 92.913-81.508 104.728 8.48 2.139 17.356 3.28 26.5 3.28 54.414 0 99.43-40.238 106.915-92.582.554-3.874-.602-7.796-3.164-10.754s-6.284-4.672-10.198-4.672z" fill="#783c28"/></g><g><path d="m382.23 458.41c0 26.182-21.225 47.407-47.407 47.407-26.182 0-47.407-21.225-47.407-47.407v-90.507c0-5.312 4.099-9.712 9.395-10.129 11.06-.87 21.503.704 30.947 6.24 4.204 2.465 9.497 2.293 13.477-.519 9.376-6.624 20.331-8.262 32.41-6.345 4.939.784 8.585 5.035 8.585 10.035z" fill="#9bd069"/></g><g><path d="m372.943 486.591c5.834-7.878 9.287-17.625 9.287-28.18v-91.215c0-5.001-3.636-9.26-8.575-10.043l-.009-.001c-12.079-1.917-23.034-.279-32.41 6.345-3.98 2.812-9.273 2.983-13.477.519-4.224-2.476-8.65-4.155-13.239-5.181v127.758h58.423z" fill="#9bd069"/></g><g><path d="m375.142 483.344c-3.77.965-7.72 1.479-11.791 1.479-26.182 0-47.407-21.225-47.407-47.407v-78.243c-6.113-1.563-12.53-1.92-19.17-1.396-5.294.418-9.357 4.827-9.357 10.137v90.495c0 26.182 21.225 47.407 47.407 47.407 17.032.001 31.96-8.986 40.318-22.472z" fill="#6ec186"/></g><g><path d="m277.108 264.855c-13.801-.46-25.071-7.591-25.071-14.951 0-3.91 3.45-9.66 7.82-9.66 4.831 0 8.741 6.785 17.251 8.28v-18.631c-10.58-4.025-23.001-8.97-23.001-23.69 0-14.606 10.811-21.621 23.001-23.347v-3.22c0-1.61 1.841-3.105 4.37-3.105 2.186 0 4.37 1.495 4.37 3.105v2.875c7.131.229 20.587 2.07 20.587 10.005 0 3.105-2.07 9.431-7.131 9.431-3.795 0-5.98-3.68-13.456-4.255v16.791c10.466 3.91 22.656 9.315 22.656 24.841 0 14.261-9.2 22.886-22.656 25.071v3.335c0 1.61-2.185 3.105-4.37 3.105-2.529 0-4.37-1.495-4.37-3.105zm1.15-53.133v-13.686c-5.176 1.035-7.36 3.681-7.36 6.44 0 3.336 2.99 5.407 7.36 7.246zm6.441 21.277v15.411c3.91-.921 7.016-3.105 7.016-7.246-.001-3.795-2.877-6.21-7.016-8.165z" fill="#6ec186"/></g><g><path d="m393.055 264.854c-13.801-.46-25.071-7.591-25.071-14.951 0-3.91 3.45-9.66 7.82-9.66 4.831 0 8.741 6.785 17.251 8.28v-18.631c-10.58-4.025-23.001-8.97-23.001-23.69 0-14.606 10.811-21.621 23.001-23.347v-3.22c0-1.61 1.841-3.105 4.37-3.105 2.186 0 4.37 1.495 4.37 3.105v2.875c7.131.229 20.587 2.07 20.587 10.005 0 3.105-2.07 9.431-7.131 9.431-3.795 0-5.98-3.68-13.456-4.255v16.791c10.466 3.91 22.656 9.315 22.656 24.841 0 14.261-9.2 22.886-22.656 25.071v3.335c0 1.61-2.185 3.105-4.37 3.105-2.529 0-4.37-1.495-4.37-3.105zm1.15-53.133v-13.686c-5.176 1.035-7.36 3.681-7.36 6.44 0 3.336 2.99 5.407 7.36 7.246zm6.441 21.277v15.411c3.91-.921 7.016-3.105 7.016-7.246-.001-3.795-2.877-6.21-7.016-8.165z" fill="#6ec186"/></g><g><path d="m333.51 468.254c-11.4-.38-20.71-6.271-20.71-12.351 0-3.229 2.85-7.979 6.46-7.979 3.99 0 7.22 5.604 14.25 6.84v-15.391c-8.74-3.324-19-7.409-19-19.569 0-12.065 8.93-17.86 19-19.286v-2.659c0-1.33 1.521-2.565 3.61-2.565 1.805 0 3.609 1.235 3.609 2.565v2.375c5.891.189 17.006 1.71 17.006 8.265 0 2.565-1.71 7.79-5.891 7.79-3.135 0-4.939-3.04-11.115-3.515v13.87c8.646 3.229 18.716 7.695 18.716 20.521 0 11.779-7.601 18.905-18.716 20.71v2.755c0 1.33-1.805 2.565-3.609 2.565-2.09 0-3.61-1.235-3.61-2.565zm.95-43.891v-11.305c-4.275.854-6.08 3.04-6.08 5.319 0 2.756 2.47 4.467 6.08 5.986zm5.321 17.575v12.73c3.229-.76 5.795-2.565 5.795-5.985 0-3.134-2.375-5.13-5.795-6.745z" fill="#fff"/></g></g></g></svg>