<svg id="Layer_1" enable-background="new 0 0 511.993 511.993" height="512" viewBox="0 0 511.993 511.993" width="512" xmlns="http://www.w3.org/2000/svg"><g><g><g><path d="m482.31 316.63c.227-.874.444-1.754.661-2.635-.214.881-.438 1.758-.661 2.635z" fill="#afe6ff"/></g><g><path d="m244.952 11.044c-94.264 0-152.326 53.166-152.486 53.256-3.638 16.792-9.965 41.162-9.965 59.043 0 135.283 114.084 244.925 249.367 244.925 57.652 0 110.622-26.843 152.465-60.171.171-1.044 5.572-22.552 5.572-52.101 0-135.283-109.669-244.952-244.953-244.952z" fill="#9bd069"/></g><g><path d="m484.333 308.098c-41.843 33.328-94.834 53.256-152.486 53.256-135.283 0-244.952-109.669-244.952-244.952 0-17.882 1.934-35.309 5.572-52.101-.006.004-.011.009-.017.014-56.334 44.878-92.45 114.058-92.45 191.681 0 135.284 109.669 244.953 244.952 244.953 114.351 0 210.373-78.368 237.357-184.319.223-.877.447-1.754.661-2.635.103-.419 1.026-4.344 1.363-5.897z" fill="#6ec186"/></g></g><g><g><g><path d="m456.416 255.997c0 52.671-19.544 100.776-51.776 137.461-38.185 43.459-94.176 59.97-156.574 59.97-115.069 0-198-86.055-198-201.123 0-87.531 43.627-158.763 120.111-189.611 24.062-9.705 50.352-15.047 77.889-15.047 115.068-.001 208.35 93.281 208.35 208.35z" fill="#f1d333"/></g><g><path d="m348.837 127.953c-2.229 0-4.482-.62-6.494-1.917-3.192-2.058-6.501-4.027-9.833-5.852-5.817-3.185-7.95-10.482-4.765-16.298 3.185-5.818 10.484-7.951 16.298-4.765 3.834 2.098 7.639 4.363 11.311 6.731 5.574 3.593 7.18 11.023 3.587 16.598-2.296 3.561-6.16 5.503-10.104 5.503z" fill="#f9ef63"/></g><g><path d="m301.187 105.179c-1.234.001-2.488-.191-3.724-.594-15.892-5.181-32.512-7.808-49.397-7.808-12.381 0-24.707 1.424-36.639 4.233-6.455 1.525-12.92-2.481-14.439-8.936-1.52-6.455 2.481-12.919 8.936-14.439 13.732-3.234 27.91-4.872 42.142-4.872 19.416 0 38.54 3.024 56.839 8.99 6.305 2.055 9.75 8.833 7.695 15.138-1.653 5.068-6.357 8.288-11.413 8.288z" fill="#f9ef63"/></g><g><path d="m326.746 408.509c-115.069 0-208.35-93.281-208.35-208.35 0-52.671 19.554-100.768 51.786-137.453-76.484 30.848-130.466 105.76-130.466 193.29 0 115.069 93.282 208.35 208.35 208.35 62.398 0 118.38-27.438 156.565-70.897-24.063 9.705-50.347 15.06-77.885 15.06z" fill="#eab14d"/></g></g><g><g><g><ellipse cx="338.277" cy="241.698" fill="#eab14d" rx="21.041" ry="40.8"/></g></g><g><ellipse cx="337.993" cy="234.013" fill="#783c28" rx="19.276" ry="33.115"/></g></g><g><g><g><ellipse cx="222.173" cy="241.698" fill="#eab14d" rx="21.041" ry="40.8"/></g></g><g><ellipse cx="221.889" cy="234.013" fill="#783c28" rx="19.276" ry="33.115"/></g></g><g><path d="m158.121 201.002c-1.018 0-2.049-.27-2.982-.836-2.722-1.65-3.591-5.195-1.941-7.916 24.161-39.849 63.581-36.041 65.249-35.861 3.164.345 5.449 3.189 5.105 6.355-.344 3.159-3.193 5.427-6.334 5.107-1.387-.137-33.912-3.024-54.163 30.375-1.084 1.788-2.985 2.776-4.934 2.776z" fill="#eab14d"/></g><g><path d="m410.201 201.002c-1.949 0-3.85-.989-4.934-2.777-20.255-33.409-52.79-30.514-54.164-30.375-3.137.326-5.992-1.972-6.325-5.129-.332-3.158 1.941-5.988 5.097-6.332 1.672-.179 41.088-3.991 65.249 35.861 1.65 2.721.781 6.266-1.941 7.916-.933.566-1.964.836-2.982.836z" fill="#eab14d"/></g><path d="m489.905 194.235-120.36 93.637 32.645 19.629 99.985-82.45c6.231-5.138 9.568-12.484 9.81-19.968z" fill="#9dc6fb"/><g><g><path d="m505.829 187.036c-9.489-11.507-26.509-13.143-38.015-3.654l-98.269 81.035v38.99l114.477-94.4c8.104-6.682 18.941-7.84 27.957-3.924.206-6.337-1.8-12.771-6.15-18.047z" fill="#4faddb"/></g><g><path d="m335.849 358.163c-.637-.584-1.283-1.154-1.936-1.713.59 2.017 1.086 4.064 1.488 6.127l2.673-2.204c-.716-.757-1.451-1.499-2.225-2.21z" fill="#4faddb"/></g></g><path d="m407.715 271.932-88.075 60.606c8.621 7.914 13.557 18.737 15.76 30.039l66.789-55.076c6.221-5.13 9.824-12.772 9.824-20.834.001-5.619-1.608-10.614-4.298-14.735z" fill="#dd6938"/><g><path d="m321.291 334.137c.084.086.163.175.246.262.459.475.909.956 1.345 1.448.042.047.081.095.122.142.476.542.939 1.095 1.388 1.656.004.004.007.009.01.013.478.599.94 1.209 1.387 1.829l81.92-67.553c-8.238-12.623-26.6-17.053-39.879-6.105l-20.129 16.599-46.139 38.048c6.561 2.94 12.622 7.051 18.079 12.06.566.522 1.115 1.057 1.65 1.601z" fill="#d80a61"/></g><g><path d="m330.822 388.801c-.668 0-1.347-.094-2.022-.291-3.82-1.114-6.012-5.114-4.897-8.934 4.39-15.04.243-31.257-10.824-42.323-8.087-8.088-18.84-12.542-30.278-12.542s-22.191 4.454-30.279 12.542c-2.814 2.812-7.375 2.812-10.189 0-2.813-2.814-2.813-7.375 0-10.189 10.81-10.81 25.182-16.762 40.468-16.762s29.658 5.953 40.467 16.763c14.788 14.787 20.33 36.456 14.465 56.549-.915 3.145-3.79 5.187-6.911 5.187z" fill="#783c28"/></g></g></g></svg>