<svg id="Layer_1" enable-background="new 0 0 511 511" height="512" viewBox="0 0 511 511" width="512" xmlns="http://www.w3.org/2000/svg"><g><g><path d="m481.251 316.001c.226-.872.444-1.75.66-2.63-.214.879-.437 1.754-.66 2.63z" fill="#afe6ff"/><path d="m244.415 11.085c-94.057 0-151.992 53.05-152.151 53.139-3.63 16.756-9.944 41.072-9.944 58.914 0 134.986 113.833 244.388 248.82 244.388 57.525 0 110.379-26.784 152.13-60.039.17-1.042 5.56-22.502 5.56-51.987-.001-134.986-109.429-244.415-244.415-244.415z" fill="#afe6ff"/><path d="m483.27 307.487c-41.751 33.255-94.626 53.139-152.151 53.139-134.986 0-244.415-109.428-244.415-244.415 0-17.842 1.93-35.231 5.56-51.987-.006.004-.011.009-.017.014-56.211 44.781-92.247 113.809-92.247 191.262 0 134.986 109.428 244.415 244.415 244.415 114.1 0 209.911-78.196 236.836-183.914.223-.875.446-1.75.66-2.63.101-.418 1.023-4.335 1.359-5.884z" fill="#9dc6fb"/></g><g><g><path d="m511 255.5c0 54.831-20.346 104.91-53.9 143.099-39.751 45.242-98.039 62.43-162.996 62.43-119.789 0-206.122-89.585-206.122-209.373 0-91.122 45.416-165.275 125.038-197.388 25.049-10.103 52.417-15.664 81.084-15.664 119.788 0 216.896 97.107 216.896 216.896z" fill="#dd6938"/><g><path d="m392.249 120.209c-3.324-2.143-6.769-4.192-10.238-6.092-6.055-3.316-8.276-10.913-4.96-16.968 3.315-6.055 10.912-8.276 16.968-4.96 3.99 2.185 7.951 4.542 11.774 7.006 5.803 3.74 7.475 11.476 3.735 17.278-3.716 5.766-11.438 7.499-17.279 3.736z" fill="#fa968c"/></g><g><path d="m345.527 97.878c-16.544-5.394-33.846-8.128-51.423-8.128-12.889 0-25.722 1.482-38.141 4.406-6.724 1.583-13.45-2.584-15.032-9.303-1.582-6.72 2.583-13.449 9.303-15.031 14.295-3.366 29.055-5.072 43.871-5.072 20.212 0 40.121 3.148 59.171 9.358 6.563 2.14 10.15 9.195 8.01 15.759-2.138 6.558-9.188 10.15-15.759 8.011z" fill="#fa968c"/></g><path d="m376.012 414.268c-119.789 0-216.896-97.108-216.896-216.896 0-54.831 20.356-104.902 53.91-143.091-79.622 32.113-135.819 110.098-135.819 201.219 0 119.789 97.108 216.896 216.896 216.896 64.957 0 123.236-28.563 162.987-73.806-25.049 10.104-52.411 15.678-81.078 15.678z" fill="#d80a61"/></g><g><ellipse cx="280.812" cy="206.946" fill="#d80a61" rx="26.422" ry="31.778"/><circle cx="280.683" cy="198.945" fill="#783c28" r="23.778"/></g><g><ellipse cx="389.07" cy="206.946" fill="#d80a61" rx="26.357" ry="31.778"/><circle cx="388.827" cy="198.945" fill="#783c28" r="23.778"/></g><path d="m479.832 386.243h-287.419c-13.398 0-24.26-10.861-24.26-24.26v-70.96c0-13.398 10.861-24.26 24.26-24.26h287.419c13.398 0 24.26 10.861 24.26 24.26v70.96c0 13.398-10.861 24.26-24.26 24.26z" fill="#41378c"/><g fill="#dd6938"><path d="m193.333 347.272 11.301-15.001-10.201-13.601c-.4-.5-1-1.5-1-2.5 0-3.5 6.5-7.801 10.5-7.801.6 0 2.4.101 3.3 1.601l8 13.101 8.101-13.001c.8-1.3 2.4-1.7 3.5-1.7 3.6 0 10.301 4.301 10.301 7.801 0 .8-.3 1.5-1 2.5l-10.301 13.701 11.401 14.9c.4.5.9 1.601.9 2.601 0 3.3-6.101 7.7-10.201 7.7-1.2 0-2.7-.4-3.5-1.6l-9.201-13.801-9.101 13.801c-.8 1.1-2.6 1.6-3.7 1.6-3.2 0-10-4.101-10-7.7.001-.9.401-1.9.901-2.601z"/><path d="m240.532 317.671c-.3-.6-.5-1.2-.5-2 0-4 6.5-7.4 10.5-7.4 1.9 0 3.6.7 4.3 2.5l11.301 27.102 8.3-27.102c.7-1.8 2.4-2.5 4-2.5 3.6 0 10.701 3.4 10.701 7.7 0 .5-.1 1.2-.4 1.7l-14.201 35.402c-5 12.601-7.101 25.201-27.402 25.201-4 0-7.1-.7-7.1-6.601 0-3.399 1-6.4 3.8-6.4 3.6 0 14.201-.199 14.201-12.801z"/><path d="m308.732 349.473c0 4.101-3.5 7.7-7.601 7.7-4.4 0-7.7-3.6-7.7-7.7 0-4.2 3.3-7.7 7.7-7.7 4.101-.001 7.601 3.499 7.601 7.7zm-1.9-19.001c0 3.101-3.4 4.4-5.801 4.4-3.2 0-5.9-1.3-5.9-4.4 0-11.9-1.4-29.002-1.4-40.902 0-3.9 3.2-6.101 7.3-6.101 3.9 0 7.201 2.2 7.201 6.101 0 11.9-1.4 29.001-1.4 40.902z"/><path d="m351.432 344.072c2.4 0 4.4 2.801 4.4 6.301 0 3.3-1.7 6.2-4.4 6.2h-32.102c-3.8 0-5.1-2.9-5.1-5.4s1.4-4.7 2.7-6.4l17.701-23.302h-15.301c-2.4 0-4.4-2.8-4.4-6.3 0-3.301 1.7-6.2 4.4-6.2h29.902c2.5 0 4.8 1.6 4.8 5.1 0 2.2-.9 4.601-2.5 6.701l-17.801 23.301h17.701z"/><path d="m395.532 313.37c8.5 0 16.901 4.501 16.901 13.602v17.101c.6 3.7 1.3 4.7 2.8 4.7 5 0 5.4-9.3 5.4-13.7 0-17.901-7.5-27.602-24.501-27.602-20.001 0-25.702 13.2-25.702 28.401 0 14.201 5 26.602 22.702 26.602 7.8 0 10.601-2.4 12.901-2.4 2.5 0 3.7 2.9 3.7 4.4 0 4.9-12.601 6.4-18.501 6.4-15.801 0-30.502-11.4-30.502-34.902 0-20.801 11.501-36.902 35.302-36.902 21.501 0 34.202 13.102 34.202 33.502 0 13.001-5.1 23.602-15.901 23.602-6 0-10-3.2-10.801-7.6-3.2 4.3-7.2 7.3-12.601 7.3-5.9 0-12.501-3.7-12.501-11.801 0-9.5 8.901-12.7 20.301-12.7h2.7v-1.301c0-4.3-2.3-6.4-7.4-6.4-5.9 0-8.101 2.801-9.9 2.801-2 0-3.5-3.801-3.5-5.7 0-4.102 7.701-7.403 14.901-7.403zm6.5 24.202h-1.8c-6.3 0-9.601 2.2-9.601 6.3 0 2.601 1.3 4.101 3.4 4.101 3.7 0 8-4 8-8.2v-2.201z"/><path d="m472.732 317.871c.5.6.8 1.8.8 2.9 0 3.2-3.2 5.399-6.1 5.399-1.1 0-2.7-.199-3.8-1.899l-6.5-10.001-6.601 10.101c-.9 1.5-2.1 1.8-3.5 1.8-2.4 0-6.3-1.899-6.3-5.2 0-1.3.5-2.399 1.2-3.2l6.601-9.4-10.4-3c-2.3-.5-3.4-2.5-3.4-5.101 0-2.6 2.3-5.5 5.5-5.5.3 0 .8 0 1.5.3l10.5 3.4-.5-10.2c.1-3.301 2.6-4.801 5.4-4.801s5.2 1.5 5.3 4.801l-.4 10.4 10.601-3.601c.5-.2 1-.3 1.5-.3 3.1 0 5.2 3.3 5.2 6.2 0 2-1 3.9-3.4 4.4l-10.201 2.4z"/></g><g><path d="m349.813 178.306c-2.307 0-4.583-1.062-6.053-3.063-2.45-3.34-1.729-8.034 1.61-10.484l43.208-31.706c3.34-2.449 8.033-1.729 10.484 1.609 2.45 3.34 1.729 8.034-1.61 10.484l-43.208 31.706c-1.337.98-2.891 1.454-4.431 1.454z" fill="#d80a61"/></g><g><path d="m320.005 178.306c-1.541 0-3.094-.474-4.431-1.454l-43.208-31.706c-3.339-2.45-4.06-7.145-1.61-10.484 2.451-3.34 7.145-4.059 10.484-1.609l43.208 31.706c3.339 2.45 4.06 7.145 1.61 10.484-1.47 2.001-3.747 3.063-6.053 3.063z" fill="#d80a61"/></g></g></g></svg>