<svg id="Layer_1" enable-background="new 0 0 511.78 511.78" height="512" viewBox="0 0 511.78 511.78" width="512" xmlns="http://www.w3.org/2000/svg"><g><g><g><path d="m478.214 316.009c.225-.867.441-1.739.656-2.613-.213.874-.435 1.743-.656 2.613z" fill="#afe6ff"/></g><g><path d="m242.872 13.018c-93.464 0-151.033 52.715-151.191 52.804-3.607 16.65-9.881 40.812-9.881 58.542 0 134.135 113.115 242.846 247.249 242.846 57.162 0 109.682-26.615 151.17-59.66.169-1.035 5.525-22.36 5.525-51.659 0-134.136-108.737-242.873-242.872-242.873z" fill="#c14098"/></g><g><path d="m480.22 307.549c-41.488 33.045-94.029 52.804-151.191 52.804-134.135 0-242.872-108.738-242.872-242.872 0-17.73 1.917-35.009 5.525-51.659-.006.004-.011.009-.017.013-55.856 44.498-91.665 113.09-91.665 190.055 0 134.135 108.738 242.872 242.872 242.872 113.38 0 208.586-77.702 235.342-182.753.222-.87.443-1.739.656-2.613.1-.415 1.016-4.307 1.35-5.847z" fill="#8659b9"/></g></g><g><g><g><path d="m465.179 255.89c0 52.747-19.573 100.923-51.851 137.661-38.24 43.523-94.313 60.057-156.801 60.057-115.236 0-198.288-86.18-198.288-201.416 0-87.658 43.69-158.994 120.285-189.886 24.097-9.719 50.425-15.069 78.002-15.069 115.236 0 208.653 93.417 208.653 208.653z" fill="#f1d333"/></g><g><path d="m357.445 127.66c-2.231 0-4.488-.621-6.503-1.919-3.198-2.061-6.511-4.033-9.849-5.86-5.825-3.19-7.961-10.498-4.771-16.323 3.189-5.826 10.495-7.96 16.323-4.771 3.838 2.102 7.648 4.369 11.326 6.74 5.582 3.598 7.191 11.039 3.593 16.622-2.3 3.567-6.169 5.511-10.119 5.511z" fill="#f9ef63"/></g><g><path d="m309.724 104.853c-1.235.001-2.491-.192-3.729-.595-15.916-5.189-32.559-7.819-49.468-7.819-12.399 0-24.744 1.426-36.691 4.239-6.467 1.528-12.939-2.486-14.461-8.949-1.522-6.464 2.485-12.938 8.949-14.46 13.751-3.238 27.95-4.879 42.203-4.879 19.445 0 38.596 3.029 56.922 9.003 6.314 2.058 9.764 8.846 7.706 15.16-1.655 5.075-6.367 8.3-11.431 8.3z" fill="#f9ef63"/></g><g><path d="m335.322 408.624c-115.236 0-208.653-93.417-208.653-208.653 0-52.747 19.582-100.915 51.861-137.652-76.595 30.892-130.656 105.913-130.656 193.571 0 115.236 93.417 208.653 208.653 208.653 62.489 0 118.552-27.478 156.792-71-24.098 9.719-50.42 15.081-77.997 15.081z" fill="#eab14d"/></g></g><g><g><ellipse cx="256.95" cy="214.067" fill="#eab14d" rx="25.418" ry="30.57"/></g><g><circle cx="256.826" cy="206.371" fill="#783c28" r="22.874"/></g></g><g><g><ellipse cx="361.093" cy="214.067" fill="#eab14d" rx="25.356" ry="30.57"/></g><g><circle cx="360.859" cy="206.371" fill="#783c28" r="22.874"/></g></g><g><path d="m235.572 352.777c-3.118 0-6.176-1.513-8.028-4.305-2.934-4.426-1.729-10.391 2.696-13.328 3.906-2.592 96.361-63.011 157.616-21.06 4.383 3.002 5.503 8.99 2.501 13.373-3.003 4.383-8.99 5.5-13.373 2.502-50.553-34.621-135.26 20.657-136.109 21.218-1.634 1.082-3.479 1.6-5.303 1.6z" fill="#783c28"/></g><g><path d="m192.394 168.442c-2.845 0-5.541-1.693-6.682-4.49-1.506-3.689.263-7.901 3.952-9.407l50.84-20.758c3.688-1.508 7.901.263 9.407 3.952s-.263 7.901-3.952 9.407l-50.84 20.758c-.893.365-1.817.538-2.725.538z" fill="#eab14d"/></g><g><path d="m423.132 168.442c-.908 0-1.831-.173-2.724-.537l-50.84-20.758c-3.689-1.506-5.459-5.717-3.952-9.407 1.505-3.689 5.717-5.46 9.407-3.952l50.84 20.758c3.689 1.506 5.459 5.717 3.952 9.407-1.142 2.795-3.839 4.489-6.683 4.489z" fill="#eab14d"/></g><path d="m509.57 257.678-43.917-17.181h-148.79c-5.255 0-10.029 3.003-12.381 7.703-7.031 14.047-7.33 27.847-.081 41.37 2.385 4.449 7.067 7.19 12.115 7.19h167.133c15.536 0 28.131-12.595 28.131-28.131 0-3.885-.787-7.585-2.21-10.951z" fill="#eab14d"/><g><path d="m510.076 258.965c-3.942-10.776-14.286-18.468-26.427-18.468h-17.996c-.228 1.347-.352 2.729-.352 4.14 0 13.632 11.051 24.683 24.683 24.683 8.288.001 15.616-4.089 20.092-10.355z" fill="#f1d333"/></g></g></g></svg>