<svg id="Layer_1" enable-background="new 0 0 506.913 506.913" height="512" viewBox="0 0 506.913 506.913" width="512" xmlns="http://www.w3.org/2000/svg"><g><g><g><path d="m494.674 310.556c.23-.888.452-1.783.672-2.678-.217.895-.445 1.786-.672 2.678z" fill="#afe6ff"/></g><g><path d="m253.457 0c-95.798 0-154.804 54.031-154.966 54.122-3.697 17.066-10.127 41.831-10.127 60.004 0 137.484 115.939 248.909 253.423 248.909 58.59 0 112.421-27.279 154.944-61.15.173-1.061 5.663-22.918 5.663-52.949-.001-137.484-111.454-248.936-248.937-248.936z" fill="#6ec186"/></g><g><path d="m496.73 301.885c-42.523 33.87-96.376 54.122-154.966 54.122-137.484 0-248.936-111.453-248.936-248.936 0-18.172 1.965-35.883 5.663-52.949-.006.005-.011.009-.017.014-57.251 45.609-93.954 115.914-93.954 194.8 0 137.484 111.453 248.936 248.936 248.936 116.211 0 213.794-79.642 241.218-187.316.227-.891.455-1.783.672-2.678.103-.426 1.042-4.415 1.384-5.993z" fill="#61aab7"/></g></g><g><g><g><path d="m478.796 243.812c0 54.831-20.346 104.91-53.9 143.099-39.751 45.242-98.039 62.43-162.996 62.43-119.789 0-206.122-89.585-206.122-209.373 0-91.122 45.416-165.275 125.038-197.388 25.049-10.103 52.417-15.664 81.084-15.664 119.788-.001 216.896 97.107 216.896 216.896z" fill="#f1d333"/></g><g><path d="m366.805 110.516c-2.32 0-4.666-.646-6.761-1.995-3.323-2.143-6.768-4.192-10.236-6.092-6.056-3.315-8.276-10.912-4.961-16.967 3.314-6.058 10.914-8.276 16.967-4.961 3.991 2.185 7.952 4.542 11.775 7.007 5.803 3.74 7.475 11.476 3.734 17.278-2.39 3.708-6.412 5.73-10.518 5.73z" fill="#f9ef63"/></g><g><path d="m317.199 86.808c-1.284.001-2.589-.199-3.876-.618-16.544-5.394-33.846-8.128-51.423-8.128-12.889 0-25.722 1.482-38.141 4.406-6.725 1.583-13.45-2.584-15.032-9.303-1.582-6.72 2.583-13.449 9.303-15.031 14.295-3.366 29.055-5.072 43.871-5.072 20.213 0 40.121 3.148 59.171 9.358 6.563 2.14 10.15 9.195 8.011 15.759-1.722 5.276-6.62 8.629-11.884 8.629z" fill="#f9ef63"/></g><g><path d="m343.808 402.58c-119.789 0-216.896-97.108-216.896-216.896 0-54.831 20.356-104.902 53.91-143.091-79.622 32.113-135.819 110.097-135.819 201.219 0 119.789 97.108 216.896 216.896 216.896 64.957 0 123.236-28.563 162.987-73.806-25.049 10.104-52.411 15.678-81.078 15.678z" fill="#eab14d"/></g></g><g><g><ellipse cx="260.671" cy="195.975" fill="#eab14d" rx="26.422" ry="31.778"/></g><g><circle cx="260.541" cy="187.974" fill="#783c28" r="23.778"/></g></g><g><g><ellipse cx="360.437" cy="194.736" fill="#eab14d" rx="26.422" ry="31.778"/></g><g><circle cx="360.308" cy="186.736" fill="#783c28" r="23.778"/></g></g><g><path d="m265.377 300.926c-3.75-4.055-3.502-10.382.553-14.132 36.316-33.577 77.741-41.193 123.124-22.637 5.111 2.09 7.562 7.929 5.471 13.041-2.09 5.111-7.928 7.561-13.041 5.471-38.086-15.573-71.443-9.42-101.976 18.81-4.044 3.74-10.372 3.513-14.131-.553z" fill="#783c28"/></g><g><path d="m293.985 151.382c-1.919 0-3.839-.732-5.304-2.196-7.37-7.371-17.169-11.43-27.592-11.43s-20.222 4.059-27.592 11.43c-2.929 2.928-7.678 2.928-10.606 0-2.929-2.93-2.929-7.678 0-10.606 10.203-10.204 23.769-15.823 38.199-15.823s27.995 5.619 38.199 15.822c2.929 2.93 2.929 7.678 0 10.607-1.465 1.463-3.385 2.196-5.304 2.196z" fill="#eab14d"/></g><g><path d="m334.775 148.759c-2.977 0-5.793-1.784-6.966-4.717-1.538-3.847.333-8.211 4.179-9.749l51.329-20.526c3.847-1.538 8.211.333 9.749 4.179 1.538 3.847-.333 8.211-4.179 9.749l-51.329 20.526c-.913.365-1.856.538-2.783.538z" fill="#eab14d"/></g><g><g><path d="m376.04 317.715-157.069 18.208 4.839 41.746 157.069-18.208c11.528-1.336 19.79-11.765 18.453-23.293-1.335-11.527-11.764-19.789-23.292-18.453z" fill="#e7a52e"/></g><g><path d="m221.447 358.504 31.709-62.175c6.673-13.085 1.476-29.103-11.61-35.776-13.085-6.673-29.103-1.476-35.776 11.61l-47.786 93.699z" fill="#da8059"/></g><g><path d="m301.993 368.314-78.216 9.067 4.839 41.746 76.449-8.862c11.528-1.336 19.79-11.765 18.453-23.293-1.336-11.528-9.997-19.994-21.525-18.658z" fill="#e7a52e"/></g><g><path d="m300.23 410.534-71.646 8.306 4.839 41.746 71.646-8.306c11.528-1.336 19.79-11.765 18.453-23.293-1.336-11.528-11.765-19.79-23.292-18.453z" fill="#e7a52e"/></g><path d="m317.706 471.676c-1.336-11.528-11.765-19.79-23.293-18.453l1.218-.141-14.418-124.374-90.003 10.434-40.109 29.034 14.092 102.499 71.766 19.816 80.81-14.558c.121-1.392.104-2.816-.063-4.257z" fill="#e7a52e"/><g><path d="m322.405 438.509.6-1.869-72 8.252c-7.442.863-12.775 7.595-11.912 15.036l65.975-7.648c8.195-.95 14.718-6.503 17.337-13.771z" fill="#da8059"/></g><g><path d="m323.002 394.53-76.802 8.903c-7.442.863-12.775 7.595-11.912 15.036l70.778-8.205c8.918-1.033 15.859-7.517 17.936-15.734z" fill="#da8059"/></g><g><path d="m229.423 376.505 151.576-17.072c8.342-.94 15.479-6.741 17.672-14.844.078-.288.15-.579.216-.871l-157.552 17.751c-7.441.863-12.775 7.594-11.912 15.036z" fill="#da8059"/></g><g><path d="m258.762 482.503c-45.873 5.318-87.371-27.558-92.688-73.431-3.128-26.982 6.962-52.447 25.135-69.93l-9.38 1.087c-45.873 5.318-78.749 46.816-73.431 92.689 5.318 45.873 46.816 78.749 92.688 73.431l37.142-4.306 61.024-7.074c10.18-1.18 17.808-9.452 18.533-19.308z" fill="#da8059"/></g></g></g></g></svg>