<svg id="Layer_1" enable-background="new 0 0 511 511" height="512" viewBox="0 0 511 511" width="512" xmlns="http://www.w3.org/2000/svg"><g><g><g><path d="m475.84 315.32c.223-.862.439-1.731.652-2.6-.211.87-.432 1.735-.652 2.6z" fill="#afe6ff"/></g><g><path d="m241.666 13.834c-93 0-150.283 52.453-150.44 52.542-3.589 16.567-9.832 40.61-9.832 58.251 0 133.469 112.553 241.64 246.022 241.64 56.879 0 109.138-26.483 150.419-59.364.168-1.03 5.497-22.249 5.497-51.402.001-133.47-108.197-241.667-241.666-241.667z" fill="#9bd069"/></g><g><path d="m477.836 306.902c-41.282 32.881-93.562 52.542-150.44 52.542-133.469 0-241.666-108.198-241.666-241.666 0-17.642 1.908-34.835 5.497-51.402-.006.004-.011.009-.016.013-55.58 44.277-91.211 112.528-91.211 189.111 0 133.469 108.198 241.666 241.666 241.666 112.817 0 207.551-77.317 234.173-181.846.22-.865.441-1.731.652-2.6.101-.413 1.013-4.285 1.345-5.818z" fill="#6ec186"/></g></g><g><g><g><path d="m496.599 255.5c0 54.831-20.346 104.91-53.9 143.099-39.751 45.242-98.039 62.43-162.996 62.43-119.789 0-206.122-89.585-206.122-209.373 0-91.122 45.416-165.275 125.038-197.388 25.049-10.103 52.417-15.664 81.084-15.664 119.788 0 216.896 97.107 216.896 216.896z" fill="#f1d333"/></g><g><path d="m384.608 122.204c-2.32 0-4.666-.646-6.761-1.995-3.318-2.14-6.763-4.189-10.238-6.092-6.055-3.316-8.274-10.913-4.959-16.969 3.317-6.054 10.914-8.272 16.969-4.959 3.995 2.188 7.956 4.546 11.773 7.007 5.803 3.74 7.475 11.476 3.734 17.278-2.39 3.708-6.412 5.73-10.518 5.73z" fill="#f9ef63"/></g><g><path d="m335.003 98.496c-1.285.001-2.59-.199-3.877-.618-16.544-5.394-33.846-8.128-51.423-8.128-12.89 0-25.722 1.482-38.142 4.406-6.721 1.58-13.449-2.583-15.031-9.303s2.582-13.449 9.303-15.031c14.294-3.366 29.054-5.072 43.87-5.072 20.213 0 40.121 3.148 59.171 9.358 6.563 2.14 10.15 9.195 8.011 15.759-1.721 5.276-6.618 8.629-11.882 8.629z" fill="#f9ef63"/></g><g><path d="m361.611 414.268c-119.789 0-216.896-97.108-216.896-216.896 0-54.831 20.356-104.902 53.91-143.091-79.622 32.113-135.819 110.098-135.819 201.219 0 119.789 97.108 216.896 216.896 216.896 64.957 0 123.236-28.563 162.987-73.806-25.049 10.104-52.411 15.678-81.078 15.678z" fill="#eab14d"/></g></g><g><g><ellipse cx="286.144" cy="227.026" fill="#eab14d" rx="26.422" ry="31.778"/></g><g><circle cx="286.014" cy="219.025" fill="#783c28" r="23.778"/></g></g><g><g><ellipse cx="394.401" cy="227.026" fill="#eab14d" rx="26.357" ry="31.778"/></g><g><circle cx="394.158" cy="219.025" fill="#783c28" r="23.778"/></g></g><g><path d="m429.773 131.685c-1.006 0-2.002.04-2.999.076v12c.995-.043 1.993-.076 2.999-.076 38.172 0 69.227 31.055 69.227 69.227s-31.055 69.227-69.227 69.227c-1.006 0-2.003-.033-2.999-.076v12c.997.036 1.993.076 2.999.076 44.788 0 81.227-36.438 81.227-81.227s-36.438-81.227-81.227-81.227z" fill="#9dc6fb"/></g><g><path d="m429.773 294.138c-44.789 0-81.228-36.438-81.228-81.227s36.438-81.227 81.228-81.227c3.313 0 6 2.687 6 6s-2.687 6-6 6c-38.172 0-69.228 31.055-69.228 69.227s31.056 69.227 69.228 69.227c3.313 0 6 2.687 6 6s-2.686 6-6 6z" fill="#4faddb"/></g><g><path d="m341.057 380.825c0 6.014-4.875 10.888-10.889 10.888h-17.898c-4.49 0-8.13-3.64-8.13-8.13v-34.123h36.917z" fill="#fff"/></g><g><path d="m369.845 391.713h-17.899c-6.014 0-10.888-4.875-10.888-10.888v-31.365h36.917v34.123c0 4.49-3.64 8.13-8.13 8.13z" fill="#fff"/></g><g><path d="m340 355.578c-32.327 0-64.653-12.306-89.265-36.915-3.124-3.124-3.124-8.189 0-11.314 3.125-3.123 8.189-3.123 11.314 0 42.983 42.983 112.921 42.982 155.9 0 3.125-3.123 8.189-3.123 11.314 0 3.124 3.125 3.124 8.189 0 11.314-24.609 24.609-56.936 36.915-89.263 36.915z" fill="#783c28"/></g><g><path d="m354.546 218.912h-26.571c-3.313 0-6-2.687-6-6s2.687-6 6-6h26.571c3.313 0 6 2.687 6 6s-2.687 6-6 6z" fill="#4faddb"/></g><g><path d="m252.748 131.685c-1.006 0-2.003.04-3 .076v12c.996-.043 1.994-.076 3-.076 38.172 0 69.227 31.055 69.227 69.227s-31.055 69.227-69.227 69.227c-1.006 0-2.005-.033-3-.076v12c.998.036 1.994.076 3 .076 44.788 0 81.227-36.438 81.227-81.227s-36.439-81.227-81.227-81.227z" fill="#9dc6fb"/></g><g><path d="m252.748 294.138c-44.788 0-81.227-36.438-81.227-81.227s36.438-81.227 81.227-81.227c3.313 0 6 2.687 6 6s-2.687 6-6 6c-38.172 0-69.227 31.055-69.227 69.227s31.055 69.227 69.227 69.227c3.313 0 6 2.687 6 6s-2.686 6-6 6z" fill="#4faddb"/></g><g><path d="m209.277 198.732c-1.201 0-2.412-.359-3.466-1.106-2.703-1.918-3.341-5.663-1.423-8.365 9.461-13.34 23.744-23.553 40.22-28.758 16.021-5.06 31.554-4.48 42.612 1.591 2.904 1.596 3.967 5.243 2.372 8.147-1.595 2.905-5.245 3.966-8.147 2.372-16.477-9.05-50.156-.542-67.27 23.589-1.168 1.649-3.019 2.529-4.898 2.53z" fill="#eab14d"/></g><g><path d="m461.138 203.552c-1.879 0-3.729-.881-4.898-2.53-17.114-24.13-50.796-32.637-67.27-23.59-2.906 1.596-6.553.531-8.147-2.372-1.595-2.905-.532-6.553 2.372-8.147 11.06-6.071 26.592-6.649 42.612-1.59 16.476 5.205 30.759 15.418 40.22 28.758 1.918 2.702 1.28 6.447-1.423 8.365-1.053.746-2.266 1.105-3.466 1.106z" fill="#eab14d"/></g></g></g></svg>