<svg id="Layer_1" enable-background="new 0 0 511 511" height="512" viewBox="0 0 511 511" width="512" xmlns="http://www.w3.org/2000/svg"><g><g><g><path d="m502.093 318.621c.236-.91.463-1.826.688-2.743-.222.917-.455 1.83-.688 2.743z" fill="#afe6ff"/></g><g><path d="m255 .5c-98.131 0-158.574 55.347-158.741 55.441-3.787 17.481-10.374 42.85-10.374 61.465 0 140.833 118.763 254.972 259.596 254.972 60.017 0 115.159-27.944 158.719-62.639.178-1.087 5.8-23.477 5.8-54.239 0-140.833-114.167-255-255-255z" fill="#afe6ff"/></g><path d="m345.459 365.179c-140.833 0-255-114.167-255-255 0-18.615 2.013-36.757 5.8-54.239-.006.005-.011.01-.017.014-58.645 46.721-96.242 118.738-96.242 199.546 0 31.401 5.676 61.477 16.058 89.257l110.382 131.011c37.745 22.079 81.675 34.732 128.56 34.732 119.042 0 219.002-81.583 247.093-191.879.233-.913.466-1.826.688-2.743.106-.436 1.068-4.522 1.418-6.139-43.559 34.695-98.724 55.44-158.74 55.44z" fill="#9dc6fb"/></g><g><g><path d="m213.341 47.196c-24.736 0-48.351 4.799-69.965 13.516-68.702 27.709-107.171 95.01-107.171 173.636 0 103.362 73.775 177.241 177.137 177.241 56.05 0 106.344-14.728 140.644-53.766 6.39-7.273 12.225-15.045 17.438-23.251l28.984-94.494c.057-1.903.086-3.813.086-5.73 0-103.361-83.791-187.152-187.153-187.152z" fill="#f1d333"/><g><path d="m307.901 120.691c-2.143 0-4.306-.637-6.192-1.962-4.694-3.299-9.632-6.344-14.678-9.052-5.249-2.817-7.22-9.355-4.403-14.604s9.355-7.222 14.604-4.403c5.803 3.115 11.482 6.617 16.879 10.409 4.874 3.425 6.049 10.152 2.624 15.026-2.099 2.988-5.44 4.586-8.834 4.586z" fill="#f9ef63"/></g><g><path d="m261.057 98.876c-1.108 0-2.235-.173-3.345-.534-14.274-4.654-29.203-7.014-44.371-7.014-11.121 0-22.194 1.279-32.91 3.803-5.798 1.364-11.605-2.229-12.971-8.027-1.365-5.798 2.228-11.605 8.026-12.971 12.335-2.904 25.071-4.377 37.854-4.377 17.442 0 34.621 2.718 51.057 8.076 5.664 1.847 8.758 7.935 6.911 13.599-1.483 4.552-5.708 7.445-10.251 7.445z" fill="#f9ef63"/></g><g><path d="m284.017 371.344c-103.362 0-187.153-83.791-187.153-187.153 0-47.312 17.564-90.516 46.517-123.468-68.702 27.709-117.193 95-117.193 173.625 0 103.362 83.791 187.153 187.153 187.153 56.05 0 106.336-24.646 140.636-63.684-21.614 8.717-45.224 13.527-69.96 13.527z" fill="#eab14d"/></g></g><g><path d="m216.139 210.663c6.213 0 11.884 3.969 16.205 10.511 2.467 3.734 8.319 2.06 8.33-2.415 0-.061 0-.122 0-.183 0-23.279 1.097-57.917-24.535-57.917-25.789 0-24.535 34.638-24.535 57.917v.183c.011 4.475 5.864 6.15 8.33 2.415 4.321-6.541 9.992-10.511 16.205-10.511z" fill="#eab14d"/></g><g><path d="m216.139 191.684c6.213 0 11.884 3.969 16.205 10.511 2.467 3.734 8.319 2.06 8.33-2.415 0-.061 0-.122 0-.183 0-23.279-10.985-42.15-24.535-42.15s-24.535 18.871-24.535 42.15v.183c.011 4.475 5.864 6.15 8.33 2.415 4.321-6.542 9.992-10.511 16.205-10.511z" fill="#783c28"/></g><g><path d="m332.68 212.27c6.213 0 11.884 3.969 16.205 10.511 2.467 3.734 8.319 2.06 8.33-2.415 0-.061 0-.122 0-.183 0-23.279 1.097-57.917-24.535-57.917-25.789 0-24.535 34.638-24.535 57.917v.183c.011 4.475 5.864 6.15 8.33 2.415 4.321-6.542 9.992-10.511 16.205-10.511z" fill="#eab14d"/></g><g><path d="m332.68 193.29c6.213 0 11.884 3.969 16.205 10.511 2.467 3.734 8.319 2.06 8.33-2.415 0-.061 0-.122 0-.183 0-23.279-10.985-42.15-24.535-42.15s-24.535 18.871-24.535 42.15v.183c.011 4.475 5.864 6.15 8.33 2.415 4.321-6.542 9.992-10.511 16.205-10.511z" fill="#783c28"/></g><g><circle cx="161.11" cy="287.626" fill="#fa870a" r="48.161"/></g><path d="m372.936 332.136c16.54-26.936 26.448-58.378 27.461-92.059-5.313-2.018-11.071-3.132-17.092-3.132-26.599 0-48.161 21.562-48.161 48.161 0 23.038 16.179 42.286 37.792 47.03z" fill="#fa870a"/><g><path d="m275.226 343.633c-33.069 0-64.16-12.878-87.543-36.262-3.064-3.064-3.064-8.031 0-11.096 3.064-3.064 8.031-3.064 11.096 0 20.42 20.42 47.57 31.666 76.448 31.666s56.028-11.246 76.448-31.666c3.064-3.064 8.031-3.064 11.096 0 3.064 3.064 3.064 8.031 0 11.096-23.385 23.384-54.475 36.262-87.545 36.262z" fill="#783c28"/></g><g><g><path d="m123.015 294.387c-11.024 0-19.961 8.937-19.961 19.961v52.442l39.922 39.922v-92.364c0-11.024-8.937-19.96-19.961-19.961z" fill="#e7a52e"/></g><g><path d="m118.71 361.663v-52.442c0-5.824 2.496-11.065 6.475-14.714-.713-.077-1.436-.119-2.17-.119-11.024 0-19.961 8.937-19.961 19.961v52.442l39.922 39.922v-20.784z" fill="#da8059"/></g><path d="m47.597 265.867c-4.449-5.285-11.498-7.088-17.695-5.113-.501.16-1.077.769-1.687 1.615-3.489 4.844-4.212 11.156-2.198 16.776l4.061 11.333 73.785 93.63 25.323-21.317z" fill="#e7a52e"/><g><path d="m113.74 375.524-81.59-96.924c-4.33-5.144-4.985-12.152-2.248-17.842-2.003.638-3.918 1.669-5.626 3.107-6.993 5.887-7.89 16.327-2.003 23.32l81.59 96.924 25.323-21.317-.133-.158z" fill="#da8059"/></g><path d="m3.608 279.384c-.832-.832-1.731-1.552-2.679-2.17.903 10.706 2.467 21.222 4.651 31.51l64.207 83.651 23.406-23.406z" fill="#e7a52e"/><path d="m5.58 308.725c1.925 9.067 4.332 17.954 7.194 26.637l57.014 57.014 9.722-9.722z" fill="#da8059"/><path d="m58.158 417.615 17.721-20.078-59.807-52.785c9.975 26.692 24.282 51.27 42.086 72.863z" fill="#e7a52e"/><path d="m142.78 374.678c-.805-.897-1.638-1.778-2.501-2.641l-55.722-55.722-56.181 56.181c16.416 31.733 39.3 59.573 66.908 81.781l23.087 7.833c24.858-24.856 47.599-61.573 24.409-87.432z" fill="#e7a52e"/><path d="m125.816 438.639c-9.381 10.018-20.016 14.463-30.53 15.636 9.817 7.898 20.228 15.084 31.161 21.479 4.945-2.837 9.607-6.353 13.831-10.578 24.857-24.857 25.688-64.639 2.499-90.497 6.017 22.059.364 46.635-16.961 63.96z" fill="#da8059"/></g><g><g><path d="m359.559 287.768c10.286 3.728 15.603 15.088 11.875 25.374l-17.733 48.93-50.749 23.749 31.233-86.179c3.728-10.285 15.088-15.602 25.374-11.874z" fill="#eab14d"/></g><g><path d="m437.62 296.253-87.856 89.945-23.5-22.954 87.856-89.945c6.339-6.489 16.738-6.612 23.227-.273 6.49 6.338 6.612 16.737.273 23.227z" fill="#f1d333"/></g><g><path d="m478.115 314.782-95.232 82.096-21.449-24.881 95.232-82.096c6.871-5.923 17.242-5.155 23.165 1.716 5.923 6.871 5.154 17.242-1.716 23.165z" fill="#f1d333"/></g><g><path d="m465.723 301.654c5.088-4.386 12.091-5.093 17.79-2.381-.519-2.742-1.73-5.39-3.683-7.656-5.923-6.871-16.294-7.639-23.165-1.716l-95.231 82.096 9.674 11.221z" fill="#eab14d"/></g><g><path d="m496.492 351.699-100.157 76.009-19.859-26.168 100.157-76.009c7.226-5.484 17.53-4.072 23.013 3.155 5.485 7.226 4.072 17.529-3.154 23.013z" fill="#f1d333"/></g><g><path d="m386.105 413.317 100.157-76.009c4.867-3.693 11.125-4.246 16.371-2.014-.479-2.327-1.454-4.589-2.986-6.608-5.484-7.226-15.787-8.639-23.013-3.155l-100.158 76.009 19.859 26.168.439-.333z" fill="#eab14d"/></g><g><path d="m503.794 394.509-88.168 59.809-18.441-27.186 88.168-59.809c7.507-5.092 17.721-3.135 22.814 4.372 5.091 7.507 3.134 17.721-4.373 22.814z" fill="#f1d333"/></g><g><path d="m407.475 436.216 88.169-59.809c4.252-2.884 9.371-3.503 13.937-2.137-.392-.883-.853-1.748-1.415-2.575-5.092-7.507-15.306-9.465-22.813-4.372l-88.168 59.809 18.441 27.186 2.828-1.918z" fill="#eab14d"/></g><g><path d="m314.608 371.582 59.234-51.064 85.353 99.01-59.234 51.064c-27.341 23.57-68.612 20.513-92.181-6.828-23.57-27.341-20.513-68.613 6.828-92.182z" fill="#f1d333"/></g><g><path d="m336.405 373.059 87.856-89.945c4.553-4.661 11.195-6.018 16.984-4.075-.819-2.2-2.107-4.264-3.898-6.013-6.489-6.339-16.888-6.217-23.227.273l-87.856 89.945 23.5 22.954.045-.046z" fill="#eab14d"/></g><g><path d="m314.608 371.582 59.234-51.064 85.353 99.01-59.234 51.064c-27.341 23.57-68.612 20.513-92.181-6.828-23.57-27.341-20.513-68.613 6.828-92.182z" fill="#f1d333"/></g><g><path d="m354.023 447.764c-25.823-25.223-26.31-66.604-1.086-92.428l27.048-27.692-6.143-7.126-59.234 51.064c-27.341 23.57-30.398 64.841-6.828 92.181 23.57 27.341 64.841 30.398 92.181 6.828l5.185-4.47c-18.236 1.52-37.004-4.567-51.123-18.357z" fill="#eab14d"/></g></g></g></g></svg>