<svg id="Layer_1" enable-background="new 0 0 511 511" height="512" viewBox="0 0 511 511" width="512" xmlns="http://www.w3.org/2000/svg"><g><g><g><path d="m484.248 316.377c.227-.878.446-1.761.664-2.646-.214.885-.439 1.766-.664 2.646z" fill="#afe6ff"/></g><g><path d="m245.937 9.563c-94.643 0-152.939 53.38-153.099 53.47-3.653 16.86-10.005 41.327-10.005 59.281 0 135.827 114.542 245.91 250.369 245.91 57.884 0 111.066-26.951 153.078-60.413.171-1.048 5.594-22.642 5.594-52.311 0-135.827-110.11-245.937-245.937-245.937z" fill="#c14098"/></g><g><path d="m486.28 307.811c-42.011 33.462-95.215 53.47-153.099 53.47-135.827 0-245.937-110.11-245.937-245.937 0-17.953 1.942-35.451 5.594-52.311-.006.004-.011.009-.017.014-56.56 45.059-92.821 114.517-92.821 192.453 0 135.827 110.11 245.937 245.937 245.937 114.811 0 211.218-78.683 238.311-185.06.224-.881.449-1.761.664-2.646.102-.42 1.03-4.361 1.368-5.92z" fill="#8659b9"/></g></g><g><g><g><path d="m511 246.25c0 54.831-20.346 104.91-53.9 143.099-39.751 45.242-98.039 62.43-162.996 62.43-119.789 0-206.122-89.585-206.122-209.373 0-91.122 45.416-165.275 125.038-197.388 25.049-10.103 52.417-15.664 81.084-15.664 119.788 0 216.896 97.107 216.896 216.896z" fill="#f1d333"/></g><g><path d="m399.009 112.954c-2.319 0-4.666-.646-6.76-1.995-3.324-2.143-6.769-4.192-10.238-6.092-6.055-3.316-8.276-10.913-4.96-16.968 3.315-6.055 10.91-8.275 16.968-4.96 3.99 2.185 7.951 4.542 11.774 7.006 5.803 3.74 7.475 11.476 3.735 17.278-2.39 3.71-6.412 5.731-10.519 5.731z" fill="#f9ef63"/></g><g><path d="m349.403 89.246c-1.284.001-2.589-.199-3.876-.618-16.544-5.394-33.846-8.128-51.423-8.128-12.889 0-25.721 1.482-38.141 4.406-6.722 1.587-13.45-2.583-15.032-9.303s2.583-13.449 9.303-15.031c14.295-3.366 29.055-5.072 43.87-5.072 20.213 0 40.121 3.148 59.171 9.358 6.563 2.14 10.15 9.195 8.01 15.759-1.72 5.277-6.618 8.629-11.882 8.629z" fill="#f9ef63"/></g><g><path d="m376.012 405.018c-119.789 0-216.896-97.108-216.896-216.896 0-54.831 20.356-104.902 53.91-143.091-79.622 32.113-135.819 110.098-135.819 201.219 0 119.789 97.108 216.896 216.896 216.896 64.957 0 123.236-28.563 162.987-73.806-25.049 10.104-52.411 15.678-81.078 15.678z" fill="#eab14d"/></g></g><g><g><ellipse cx="267.783" cy="193.633" fill="#eab14d" rx="22.121" ry="44.974"/></g><g><ellipse cx="380.267" cy="193.655" fill="#eab14d" rx="21.975" ry="44.951"/></g><g><ellipse cx="267.493" cy="183.132" fill="#783c28" rx="20.066" ry="34.473"/></g><g><ellipse cx="380.143" cy="183.132" fill="#783c28" rx="20.066" ry="34.473"/></g></g><g><g><path d="m241.452 284.222c11.068 4.011 16.788 16.235 12.777 27.303l-19.081 52.649-54.606 25.554 33.607-92.728c4.011-11.068 16.235-16.789 27.303-12.778z" fill="#da8059"/></g><path d="m329.365 274.822-15.178-8.288-103.675 103.673 20.4 19.926 94.533-96.782c4.939-5.055 6.233-12.317 3.92-18.529z" fill="#e7a52e"/><g><path d="m369.018 313.29-102.47 88.336-23.08-26.772 102.47-88.336c7.393-6.373 18.553-5.547 24.926 1.846 6.373 7.393 5.547 18.553-1.846 24.926z" fill="#e7a52e"/></g><g><path d="m355.684 299.164c5.474-4.719 13.01-5.48 19.142-2.562-.559-2.95-1.861-5.8-3.963-8.237-6.373-7.393-17.533-8.22-24.926-1.846l-102.469 88.336 10.409 12.074z" fill="#da8059"/></g><g><path d="m388.792 353.013-107.769 81.786-21.368-28.157 107.769-81.786c7.775-5.901 18.862-4.381 24.763 3.394 5.9 7.775 4.38 18.862-3.395 24.763z" fill="#e7a52e"/></g><g><path d="m270.015 419.314 107.769-81.786c5.237-3.974 11.97-4.569 17.615-2.167-.516-2.504-1.564-4.938-3.213-7.11-5.901-7.775-16.987-9.295-24.763-3.394l-107.769 81.786 21.368 28.157.472-.358z" fill="#da8059"/></g><g><path d="m396.649 399.076-94.87 64.355-19.843-29.252 94.87-64.355c8.078-5.479 19.068-3.373 24.547 4.704 5.479 8.078 3.373 19.068-4.704 24.548z" fill="#e7a52e"/></g><g><path d="m293.009 443.953 94.87-64.355c4.575-3.103 10.083-3.769 14.996-2.299-.422-.95-.918-1.881-1.522-2.771-5.479-8.078-16.47-10.184-24.547-4.705l-94.87 64.355 19.843 29.252 3.043-2.064z" fill="#da8059"/></g><path d="m256.82 319.462-57.239 58.567c-1.634 1.409-3.253 3.014-4.848 4.794-44.795 49.974 8.85 126.481 71.55 102.552l24.22-9.243 58.157-50.135z" fill="#e7a52e"/><g><path d="m325.152 268.359c-6.982-6.821-18.172-6.689-24.992.294l-94.533 96.782 9.391 9.173c1.651-2.269 3.253-4.58 4.825-6.925 2.19-3.269 5.485-4.283 8.553-3.826l82.676-84.642c4.899-5.015 12.046-6.476 18.275-4.385-.883-2.368-2.268-4.589-4.195-6.471z" fill="#da8059"/></g><g><path d="m235.494 456.378c-27.786-27.14-28.309-71.667-1.169-99.452l30.124-29.982-7.63-7.482-63.736 54.945c-29.419 25.361-32.708 69.769-7.347 99.188 25.361 29.419 69.769 32.708 99.188 7.347l5.579-4.81c-19.622 1.634-39.817-4.915-55.009-19.754z" fill="#da8059"/></g></g></g></g></svg>