<svg id="Layer_1" enable-background="new 0 0 508.455 508.455" height="512" viewBox="0 0 508.455 508.455" width="512" xmlns="http://www.w3.org/2000/svg"><g><g><g><path d="m494.085 308.805c.229-.883.449-1.773.668-2.663-.216.89-.443 1.776-.668 2.663z" fill="#afe6ff"/></g><g><path d="m254.227 0c-95.257 0-153.931 53.726-154.092 53.817-3.676 16.969-10.07 41.595-10.07 59.665 0 136.708 115.285 247.505 251.993 247.505 58.259 0 111.787-27.126 154.07-60.805.172-1.055 5.631-22.789 5.631-52.65.001-136.708-110.823-247.532-247.532-247.532z" fill="#6ec186"/></g><g><path d="m496.129 300.182c-42.284 33.679-95.833 53.817-154.092 53.817-136.708 0-247.532-110.824-247.532-247.532 0-18.07 1.954-35.681 5.631-52.65-.006.005-.011.009-.017.014-56.928 45.352-93.424 115.26-93.424 193.701 0 136.708 110.824 247.532 247.532 247.532 115.556 0 212.588-79.193 239.857-186.26.226-.886.452-1.773.668-2.663.104-.423 1.037-4.389 1.377-5.959z" fill="#61aab7"/></g></g><g><g><g><path d="m471.124 256.702c0 54.831-20.346 104.91-53.9 143.099-39.751 45.242-98.039 62.43-162.997 62.43-119.789 0-206.122-89.585-206.122-209.373 0-91.122 58.179-153.159 125.038-197.388 25.049-10.103 52.417-15.664 81.084-15.664 119.789-.001 216.897 97.107 216.897 216.896z" fill="#f1d333"/></g><g><path d="m359.133 123.405c-2.319 0-4.665-.645-6.76-1.995-3.325-2.143-6.77-4.192-10.239-6.092-6.055-3.316-8.274-10.913-4.959-16.969 3.316-6.055 10.914-8.271 16.969-4.959 3.988 2.185 7.949 4.542 11.772 7.006 5.803 3.739 7.476 11.475 3.735 17.278-2.389 3.709-6.411 5.731-10.518 5.731z" fill="#f9ef63"/></g><g><path d="m309.526 99.698c-1.284 0-2.59-.199-3.877-.618-16.543-5.395-33.844-8.129-51.422-8.129-12.889 0-25.721 1.482-38.141 4.406-6.725 1.586-13.45-2.583-15.032-9.303s2.583-13.449 9.303-15.031c14.295-3.366 29.055-5.072 43.87-5.072 20.215 0 40.123 3.149 59.172 9.359 6.563 2.141 10.149 9.196 8.009 15.76-1.72 5.277-6.617 8.628-11.882 8.628z" fill="#f9ef63"/></g><g><path d="m336.136 415.47c-119.789 0-216.896-97.108-216.896-216.896 0-54.831 20.356-104.902 53.91-143.091-79.622 32.113-135.819 110.097-135.819 201.218 0 119.789 97.108 216.896 216.896 216.896 64.957 0 123.236-28.563 162.987-73.806-25.049 10.105-52.411 15.679-81.078 15.679z" fill="#eab14d"/></g></g><g><ellipse cx="274.277" cy="326.774" fill="#783c28" rx="96.127" ry="76.714"/></g><g><g><path d="m201.576 294.674c11.068 4.011 16.788 16.235 12.777 27.303l-19.081 52.649-54.606 25.554 33.607-92.729c4.011-11.068 16.235-16.788 27.303-12.777z" fill="#da8059"/></g><path d="m289.489 285.273-5.892-4.377c-6.983-6.82-17.95-.047-24.771 6.936l-85.046 93.468 17.256 19.285 94.533-96.782c4.939-5.056 6.233-12.318 3.92-18.53z" fill="#e7a52e"/><path d="m334.966 307.05c-.559-2.95-4.187-3.57-6.288-6.007l-21.949.33-103.137 83.932 23.08 26.772 102.469-88.336c4.956-4.271 6.961-10.694 5.825-16.691z" fill="#e7a52e"/><g><path d="m315.808 309.615c5.474-4.719 13.01-5.48 19.142-2.562-.559-2.95-1.861-5.8-3.963-8.237-6.373-7.393-17.533-8.22-24.926-1.846l-102.469 88.336 10.409 12.074z" fill="#da8059"/></g><path d="m355.543 345.807-13.984-8.625-121.781 79.911 21.368 28.157 107.769-81.786c5.604-4.253 7.959-11.198 6.628-17.657z" fill="#e7a52e"/><g><path d="m230.139 429.765 107.769-81.786c5.237-3.974 11.97-4.569 17.615-2.167-.516-2.504-1.564-4.938-3.213-7.11-5.901-7.775-16.987-9.295-24.763-3.394l-107.769 81.786 21.368 28.157.472-.358z" fill="#da8059"/></g><path d="m363.014 387.744c-.422-.949-12.139-4.022-12.743-4.912l-14.161 4.743-94.05 57.056 19.843 29.252 94.87-64.355c7.187-4.877 9.647-14.116 6.241-21.784z" fill="#e7a52e"/><g><path d="m253.133 454.405 94.87-64.355c4.575-3.103 10.083-3.769 14.996-2.299-.422-.95-.918-1.881-1.522-2.771-5.479-8.078-16.47-10.184-24.547-4.705l-94.87 64.355 19.843 29.252 3.043-2.064z" fill="#da8059"/></g><g><path d="m176.661 386.447 94.533-96.782c4.899-5.015 12.046-6.476 18.275-4.385-.881-2.367-2.267-4.588-4.194-6.47-6.983-6.821-18.172-6.689-24.992.294l-94.533 96.782 25.286 24.699.048-.05z" fill="#da8059"/></g><g><path d="m161.119 392.914 55.824-63.001 91.84 106.535-58.157 50.135c-29.419 25.361-68.11 16.433-93.471-12.985-25.36-29.419-25.454-55.323 3.964-80.684z" fill="#e7a52e"/></g><g><path d="m195.618 466.83c-27.786-27.14-28.309-71.667-1.169-99.452l29.498-29.34-7.003-8.124-63.736 54.945c-29.419 25.361-32.708 69.769-7.347 99.188 25.361 29.419 69.769 32.708 99.188 7.347l5.579-4.81c-19.623 1.634-39.818-4.915-55.01-19.754z" fill="#da8059"/></g></g><g><path d="m178.171 201.108c-2.329 0-4.637-1.006-6.214-2.95-2.772-3.416-2.284-8.415 1.116-11.207 1.141-.938 28.453-22.83 72.588-12.093 4.293 1.045 6.927 5.371 5.883 9.664-1.044 4.294-5.368 6.923-9.665 5.883-36.054-8.771-57.781 8.212-58.688 8.939-1.479 1.186-3.256 1.764-5.02 1.764z" fill="#783c28"/></g><g><path d="m382.757 201.133c-1.774 0-3.559-.587-5.041-1.792-.969-.775-22.685-17.688-58.684-8.936-4.292 1.041-8.62-1.59-9.664-5.883s1.59-8.62 5.883-9.664c44.136-10.736 71.447 11.154 72.589 12.093 3.414 2.804 3.908 7.846 1.104 11.26-1.582 1.925-3.876 2.922-6.187 2.922z" fill="#783c28"/></g></g></g></svg>