<svg id="Layer_1" enable-background="new 0 0 511 511" height="512" viewBox="0 0 511 511" width="512" xmlns="http://www.w3.org/2000/svg"><g><g><g><path d="m472.685 314.924c.222-.857.436-1.719.648-2.583-.209.864-.429 1.723-.648 2.583z" fill="#afe6ff"/></g><g><path d="m480.129 255.5c0-132.584-107.48-240.064-240.064-240.064-92.383 0-149.287 52.106-149.443 52.193-3.565 16.457-9.767 40.341-9.767 57.865 0 132.584 111.807 240.038 244.391 240.038 56.502 0 108.414-26.307 149.422-58.971.167-1.022 5.461-22.101 5.461-51.061z" fill="#dd6938"/></g><g><path d="m474.668 306.562c-41.008 32.663-92.942 52.193-149.443 52.193-132.584 0-240.064-107.481-240.064-240.064 0-17.525 1.895-34.604 5.461-51.062-.006.004-.011.009-.016.013-55.211 43.984-90.606 111.783-90.606 187.858 0 132.584 107.481 240.064 240.064 240.064 112.07 0 206.175-76.804 232.621-180.641.219-.86.438-1.719.648-2.583.1-.409 1.005-4.256 1.335-5.778z" fill="#d80a61"/></g></g><g><g><g><path d="m496.537 255.5c0 54.831-20.346 104.91-53.9 143.099-39.751 45.242-98.039 62.43-162.997 62.43-119.789 0-206.122-89.585-206.122-209.373 0-91.122 45.416-165.275 125.038-197.388 25.049-10.103 52.417-15.664 81.084-15.664 119.789 0 216.897 97.107 216.897 216.896z" fill="#f1d333"/></g><g><path d="m384.546 122.204c-2.319 0-4.665-.645-6.76-1.995-3.325-2.143-6.77-4.192-10.239-6.092-6.055-3.316-8.274-10.913-4.959-16.969 3.317-6.055 10.914-8.272 16.969-4.959 3.988 2.185 7.949 4.542 11.772 7.006 5.803 3.739 7.476 11.475 3.735 17.278-2.389 3.708-6.412 5.731-10.518 5.731z" fill="#f9ef63"/></g><g><path d="m334.939 98.496c-1.284.001-2.589-.199-3.876-.618-16.544-5.394-33.846-8.128-51.423-8.128-12.89 0-25.722 1.482-38.142 4.406-6.721 1.587-13.449-2.583-15.031-9.303s2.582-13.449 9.303-15.031c14.294-3.366 29.054-5.072 43.87-5.072 20.213 0 40.121 3.148 59.171 9.358 6.563 2.14 10.15 9.195 8.011 15.759-1.72 5.276-6.618 8.629-11.883 8.629z" fill="#f9ef63"/></g><g><path d="m361.548 414.268c-119.789 0-216.896-97.108-216.896-216.896 0-54.831 20.356-104.902 53.91-143.091-79.621 32.113-135.818 110.098-135.818 201.219 0 119.789 97.108 216.896 216.896 216.896 64.957 0 123.236-28.563 162.987-73.806-25.049 10.104-52.411 15.678-81.079 15.678z" fill="#eab14d"/></g></g><g><path d="m246.833 248.277c-13.576 0-27.147-5.166-37.482-15.5-2.929-2.93-2.929-7.678 0-10.607 2.93-2.928 7.678-2.928 10.607 0 14.817 14.819 38.93 14.819 53.751 0 2.929-2.929 7.678-2.928 10.606.001s2.929 7.678-.001 10.606c-10.332 10.332-23.909 15.5-37.481 15.5z" fill="#783c28"/></g><g><path d="m183.576 213.496c-1.06 0-2.133-.281-3.104-.87-2.834-1.718-3.738-5.408-2.021-8.241 25.15-41.483 66.188-37.523 67.926-37.332 3.294.359 5.673 3.32 5.314 6.615-.358 3.287-3.323 5.657-6.594 5.316-1.445-.142-35.304-3.148-56.385 31.621-1.128 1.862-3.108 2.891-5.136 2.891z" fill="#eab14d"/></g><g><path d="m367.784 344.545c-1.477 0-2.975-.345-4.375-1.073-26.922-14.002-53.094-14.002-80.016 0-4.654 2.416-10.39.61-12.812-4.046-2.421-4.654-.609-10.391 4.046-12.812 32.363-16.83 65.184-16.83 97.547 0 4.655 2.421 6.467 8.157 4.046 12.812-1.692 3.254-5.005 5.119-8.436 5.119z" fill="#783c28"/></g><g><path d="m443.363 144.506c-10.286 3.728-15.603 15.088-11.875 25.374l17.733 48.93 50.749 23.749-31.233-86.179c-3.727-10.285-15.087-15.601-25.374-11.874z" fill="#da8059"/></g><path d="m374.551 129.764c-1.79 1.749-12.072 3.807-12.891 6.006-2.15 5.773-.948 12.522 3.642 17.221l87.856 89.946 20.777-20.295z" fill="#e7a52e"/><g><path d="m324.808 171.521 95.232 82.096 21.449-24.881-95.232-82.096c-6.871-5.923-17.242-5.155-23.165 1.716-5.923 6.87-5.155 17.242 1.716 23.165z" fill="#e7a52e"/></g><g><path d="m337.2 158.392c-5.087-4.386-12.091-5.093-17.79-2.381.519-2.742 1.73-5.39 3.683-7.656 5.923-6.871 16.294-7.639 23.165-1.716l95.231 82.096-9.674 11.221z" fill="#da8059"/></g><g><path d="m306.431 208.437 100.157 76.009 19.859-26.168-100.157-76.009c-7.226-5.484-17.53-4.072-23.013 3.155-5.485 7.226-4.072 17.53 3.154 23.013z" fill="#e7a52e"/></g><g><path d="m416.818 270.055-100.157-76.009c-4.867-3.693-11.125-4.246-16.371-2.014.479-2.327 1.454-4.589 2.986-6.608 5.484-7.226 15.787-8.639 23.013-3.155l100.157 76.009-19.859 26.168-.439-.333z" fill="#da8059"/></g><path d="m482 227.396-52.919-50.139-66.607 77.265-44.903-30.46c-7.507-5.093-17.721-3.135-22.813 4.372-5.093 7.507-3.135 17.721 4.372 22.813l98.648 71.613c27.341 23.57 62.415 20.61 85.985-6.73l2.862-3.789c23.569-27.341 22.716-61.375-4.625-84.945z" fill="#e7a52e"/><g><path d="m354.943 265.478-47.664-32.333c-4.252-2.884-9.371-3.503-13.937-2.137.392-.883.853-1.748 1.415-2.575 5.092-7.507 15.306-9.465 22.813-4.372l44.903 30.46z" fill="#da8059"/></g><g><path d="m466.518 229.797-87.856-89.945c-4.553-4.661-11.195-6.018-16.984-4.075.819-2.2 2.107-4.264 3.898-6.013 6.489-6.339 16.888-6.217 23.227.273l87.856 89.945z" fill="#da8059"/></g><g><path d="m448.9 304.502c25.823-25.223 26.31-66.604 1.086-92.428l-27.048-27.692 6.143-7.126 59.234 51.064c27.341 23.57 30.398 64.841 6.828 92.181-23.57 27.341-64.841 30.398-92.181 6.828l-5.185-4.47c18.236 1.52 37.004-4.566 51.123-18.357z" fill="#da8059"/></g></g></g></svg>