<svg id="Layer_1" enable-background="new 0 0 511 511" height="512" viewBox="0 0 511 511" width="512" xmlns="http://www.w3.org/2000/svg"><g><g><path d="m483.487 318.621c.227-.91.446-1.826.663-2.743-.215.917-.439 1.83-.663 2.743z" fill="#afe6ff"/><path d="m491.1 255.5c0-140.833-109.936-255-245.55-255-94.494 0-152.698 55.347-152.858 55.441-3.647 17.481-9.99 42.85-9.99 61.465 0 140.833 114.362 254.972 249.976 254.972 57.793 0 110.892-27.944 152.837-62.639.171-1.087 5.585-23.477 5.585-54.239z" fill="#9bd069"/><path d="m485.515 309.739c-41.945 34.696-95.065 55.441-152.858 55.441-135.614 0-245.55-114.167-245.55-255 0-18.615 1.939-36.757 5.586-54.239-.006.005-.011.01-.017.014-56.472 46.72-92.676 118.737-92.676 199.545 0 140.833 109.937 255 245.55 255 114.63 0 210.886-81.583 237.937-191.879.224-.913.448-1.826.663-2.743.101-.436 1.027-4.523 1.365-6.139z" fill="#6ec186"/></g><g><g><path d="m511 252.861c0 54.831-20.346 104.91-53.9 143.099-39.751 45.242-98.039 62.43-162.996 62.43-119.789 0-206.122-89.585-206.122-209.373 0-91.122 45.416-165.275 125.038-197.388 25.049-10.103 52.417-15.664 81.084-15.664 119.788 0 216.896 97.108 216.896 216.896z" fill="#dd6938"/><g><path d="m399.01 119.565c-2.319 0-4.665-.645-6.76-1.995-3.326-2.144-6.771-4.193-10.238-6.092-6.056-3.315-8.276-10.912-4.961-16.967 3.315-6.057 10.914-8.276 16.967-4.961 3.988 2.184 7.95 4.54 11.775 7.006 5.803 3.739 7.476 11.475 3.735 17.278-2.39 3.709-6.412 5.731-10.518 5.731z" fill="#fa968c"/></g><g><path d="m349.403 95.857c-1.285.001-2.59-.199-3.877-.618-16.544-5.394-33.846-8.128-51.423-8.128-12.889 0-25.721 1.482-38.141 4.406-6.721 1.578-13.449-2.582-15.031-9.303-1.582-6.72 2.582-13.449 9.303-15.031 14.294-3.366 29.054-5.072 43.869-5.072 20.213 0 40.121 3.148 59.171 9.358 6.563 2.14 10.15 9.195 8.011 15.759-1.721 5.277-6.618 8.629-11.882 8.629z" fill="#fa968c"/></g><path d="m376.012 411.63c-119.789 0-216.896-97.108-216.896-216.896 0-54.831 20.356-104.902 53.91-143.091-79.622 32.112-135.819 110.097-135.819 201.218 0 119.789 97.108 216.896 216.896 216.896 64.957 0 123.236-28.563 162.987-73.806-25.049 10.104-52.411 15.679-81.078 15.679z" fill="#d80a61"/></g><g><path d="m259.957 302.722c0 24.756-20.069 44.825-44.825 44.825s-44.825-20.069-44.825-44.825 44.825-83.827 44.825-83.827 44.825 59.071 44.825 83.827z" fill="#9dc6fb"/><path d="m236.403 317.125c-24.756 0-44.999-20.069-44.825-44.825.15-21.345 23.554-53.406 23.554-53.406s-44.825 59.071-44.825 83.827 20.069 44.825 44.825 44.825c21.964 0 40.225-15.802 44.068-36.654-6.68 3.955-14.47 6.233-22.797 6.233z" fill="#61a3e0"/></g><g><ellipse cx="303.439" cy="210.403" fill="#d80a61" rx="26.422" ry="31.778"/><circle cx="303.309" cy="202.403" fill="#783c28" r="23.778"/></g><g><ellipse cx="403.205" cy="209.165" fill="#d80a61" rx="26.422" ry="31.778"/><circle cx="403.076" cy="201.165" fill="#783c28" r="23.778"/></g><ellipse cx="353.322" cy="339.04" fill="#783c28" rx="76.563" ry="56.529"/><g><path d="m392.973 481.629c5.706-7.827 9.08-17.462 9.08-27.889v-87.815c0-7.256-5.534-13.313-12.76-13.967-9.576-.867-18.378.712-26.164 5.501-5.429 3.339-12.141 3.547-17.814.641-3.854-1.974-7.866-3.321-12.008-4.155v127.684z" fill="#d82e3d"/><path d="m394.965 478.674c-3.77.965-7.72 1.479-11.791 1.479-26.182 0-47.407-21.225-47.407-47.407v-78.243c-4.747-1.214-9.677-1.7-14.752-1.611-7.651.134-13.775 6.37-13.775 14.022v86.826c0 26.182 21.225 47.407 47.407 47.407 17.032 0 31.96-8.987 40.318-22.473z" fill="#c10a54"/></g><g><path d="m225.675 180.182c-4.029 0-7.359-3.199-7.491-7.257-.134-4.14 3.113-7.604 7.253-7.739 35.868-1.163 61.213-13.546 77.481-37.855 2.305-3.443 6.964-4.366 10.404-2.062 3.442 2.305 4.366 6.963 2.062 10.404-18.886 28.219-48.985 43.192-89.462 44.506-.082.002-.165.003-.247.003z" fill="#d80a61"/></g><g><path d="m477.262 180.182c-.083 0-.165-.001-.248-.004-40.477-1.313-70.576-16.287-89.462-44.505-2.305-3.442-1.382-8.101 2.061-10.404 3.443-2.304 8.102-1.381 10.404 2.061 16.271 24.311 41.615 36.693 77.483 37.856 4.14.135 7.387 3.6 7.253 7.739-.132 4.056-3.462 7.257-7.491 7.257z" fill="#d80a61"/></g></g></g></svg>